<svg xmlns="http://www.w3.org/2000/svg" viewBox="0 0 434 326.739">
  <defs>
    <clipPath id="a">
      <path d="M0 0h20.169v21.01H0z" transform="rotate(-18.676 19.63665625 3.229)"/>
    </clipPath>
    <clipPath id="b">
      <path d="M18.547 21.428A15.716 15.716 0 006.968 40.477l49.77 200.668A15.842 15.842 0 0075.88 252.63l81.705-20.263a15.76 15.76 0 0011.579-19.049l-49.77-200.761a15.7 15.7 0 00-19.142-11.392z" transform="translate(-6.516 -.677)"/>
    </clipPath>
    <clipPath id="c">
      <path d="M0 0h254.173v250.251H0z" transform="rotate(-13.922 250.43884707 30.577)"/>
    </clipPath>
    <clipPath id="d">
      <path d="M0 0h16.528v17.181H0z" transform="rotate(-9.376 16.41381061 1.346)"/>
    </clipPath>
    <clipPath id="e">
      <path d="M0 0h13.073v13.633H0z" transform="rotate(-9.376 12.98715327 1.065)"/>
    </clipPath>
    <clipPath id="f">
      <path d="M0 0h22.877v23.905H0z" transform="rotate(-9.376 22.7244696 1.8635)"/>
    </clipPath>
    <clipPath id="g">
      <path d="M0 0h4.015v4.109H0z" transform="rotate(-59.588 3.02410372 1.7315)"/>
    </clipPath>
    <clipPath id="i">
      <path d="M0 0h4.015v4.109H0z" transform="rotate(-79.805 2.36305995 1.976)"/>
    </clipPath>
    <style>
      .a{fill:#c9e2be}.b{fill:#2e813a}.c,.k{fill:#030405}.d{fill:#fdc638}.e{fill:#f3a139}.g{fill:#8fc475}.i{fill:#e99f2e}.j,.l{fill:#fff}.k,.l{fill-rule:evenodd}.m{fill:#54ad41}.n{fill:#202020}.q{fill:#ffce37}.r{fill:#f4af01}.s{fill:#d59514}.t{fill:#e1a211}.u{fill:#010202}.aa{fill:#8ea08f}.ab{fill:#9a9a99}.ac{fill:#98c989}.ae{fill:#59ac33}.af{fill:#328c3e}.aj{fill:#ffd94b}.am{clip-path:url(#g)}
    </style>
  </defs>
  <path d="M379.816 248.012s-3.548 21.944-24 41.46c-15.781 15.034-41.553 28.667-83.479 29.881-96.365 2.615-198.894-14.38-230.549-83.2-15.125-32.962-22.969-57.149-23.062-76.849-.187-30.161 17.742-49.584 55.093-73.021 61.816-38.845 98.98-122.418 206.177-26.146s113.83 122.698 99.82 187.875z" class="a"/>
  <path d="M417.516 41.557l-69.193 85.44H327.78l77.97-94.591z" class="b"/>
  <path d="M427.787 16.812L398.28 28.017 422.745 48zM348.312 126.997L284.629 69.85H265.58l62.283 57.147z" class="b"/>
  <path d="M284.63 69.85l-49.584 74.422h-17.368l47.9-74.422z" class="b"/>
  <path d="M217.677 144.272h17.462s-31.001-38.752-31.842-38.752H187.89z" class="b"/>
  <path d="M203.298 105.427l-42.207 80.958h-12.886l39.592-80.865z" class="b"/>
  <path d="M29.274 49.783h.654v128.394h-.654zM47.587 49.783h.654v128.394h-.654zM65.993 49.783h.654v128.394h-.654zM84.306 49.783h.654v110.092h-.654zM102.618 49.783h.654v110.092h-.654zM121.025 49.783h.654v110.092h-.654zM139.336 49.783h.654v91.697h-.654zM157.742 49.783h.654v73.395h-.654zM176.055 49.783h.654v73.395h-.654z" class="c"/>
  <path d="M29.605 49.452h165.091v.654H29.605zM29.605 67.765h165.091v.654H29.605zM29.605 86.077h165.091v.654H29.605zM29.605 104.484h146.696v.654H29.605zM29.605 122.796h146.789v.654H29.605zM29.605 141.202h110.092v.654H29.605zM29.605 159.514h91.697v.654H29.605z" class="c"/>
  <g>
    <path d="M186.191 65.951h6.817a.091.091 0 01.093.093v1.588c.093.093 0 .093 0 .093h-6.91c-.093 0-.093 0-.093-.093v-1.494c0-.094 0-.187.093-.187z" class="d"/>
    <path d="M189.635 66.319v1.214h3.081a.091.091 0 00.093-.093v-.934a.091.091 0 00-.093-.093z" class="e"/>
    <path d="M186.468 63.953h6.817a.091.091 0 01.093.093v1.588a.091.091 0 01-.093.093h-6.817a.091.091 0 01-.093-.093v-1.588c0-.093 0-.093.093-.093z" class="d"/>
    <path d="M189.914 64.228l.187.56h3.081c-.093.654 0 .654 0 .56v-.933a.2.2 0 00-.187-.187h-3.081z" class="e"/>
    <path d="M185.916 61.861h6.817a.091.091 0 01.093.093v1.588a.091.091 0 01-.093.093h-6.817a.091.091 0 01-.093-.093v-1.588a.091.091 0 01.093-.093z" class="d"/>
    <path d="M189.361 62.136v1.214h3.081a.326.326 0 00.187-.093v-.934a.2.2 0 00-.187-.187h-3.081z" class="e"/>
    <g>
      <path d="M186.191 59.864h6.817a.091.091 0 01.093.093v1.588a.091.091 0 01-.093.093h-6.817a.091.091 0 01-.093-.093v-1.588c0-.093 0-.093.093-.093z" class="d"/>
      <path d="M189.635 60.138v1.214h3.081c.093 0 .093-.093.093-.187v-.934c.094-.093.001-.093-.093-.093h-3.081z" class="e"/>
    </g>
    <g>
      <path d="M177.3 65.951h6.817c.187 0 .187.093.187.187v1.587h-7a.091.091 0 01-.097-.093v-1.494a.326.326 0 01.093-.187z" class="d"/>
      <path d="M180.746 66.319v1.214h3.081c.187-.093.187-.093.187-.187v-.934c0-.093 0-.093-.093-.093h-3.175z" class="e"/>
    </g>
    <g>
      <path d="M177.669 63.953h6.813c.093 0 .093 0 .093.093v1.588a.091.091 0 01-.093.093h-6.813a.326.326 0 01-.187-.093v-1.588c0-.093.093-.093.187-.093z" class="d"/>
      <path d="M181.02 64.228v1.214h3.081c.187 0 .187-.093.187-.187v-.934a.091.091 0 00-.093-.093z" class="e"/>
    </g>
  </g>
  <g>
    <path d="M146.317 76.093h5.229v28.2h-5.229zM160.731 65.567h5.229v38.752h-5.229zM168.278 55.712h5.229v48.556h-5.229z" class="b"/>
    <path fill="#3aa649" d="M153.441 71.526h5.229v32.775h-5.229z"/>
  </g>
  <g>
    <g transform="translate(33.689 26.108)">
      <circle cx="32.122" cy="32.122" r="32.122" class="g"/>
      <circle cx="27.826" cy="27.826" r="27.826" class="c" transform="translate(4.268 4.337)"/>
      <path d="M49.74 10.772c4.482 4.575 6.91 10.645 7.844 17.462 1.4 9.711-10.365 27.173-25.679 29.787-7.283 1.214-14.286-1.868-19.609-6.163A27.8 27.8 0 0051.981 12.92a23.821 23.821 0 00-2.241-2.148z" class="i" opacity=".07"/>
      <path d="M30.326 31.736l27.266-.84a.2.2 0 01.187.187l.093 1.774a.2.2 0 01-.187.187l-27.266.84a.2.2 0 01-.187-.188l-.093-1.773a.2.2 0 01.187-.187z" class="j"/>
      <path d="M33.009 30.241l-.933-13.633a1.121 1.121 0 00-1.121-1.027 1.14 1.14 0 00-1.027 1.214l1.027 13.633a2.2 2.2 0 00-.56 2.988 2.2 2.2 0 002.988.56 2.2 2.2 0 00.56-2.988 2.371 2.371 0 00-.934-.747z" class="i"/>
    </g>
  </g>
  <g>
    <path d="M112.053 119.586s-2.054 13.447-21.29 15.127c-11.579 1.028-15.5 11.206-19.7 23.813-6.726 20.075-26.709 11.484-28.2 40.9-.934 18.022 15.034 32.589 43.514 16.434s73.021 6.91 76.663-54.252c.654-10.552-17.928-10.552-17.368-20.263.56-10.645-4.482-22.317-4.482-22.317z" class="k"/>
    <path d="M137.919 115.385s13.073 10.832 2.708 25.305c-10.365 14.567-11.392 2.055-11.392 2.055s-.561-22.785 8.684-27.36z" class="k"/>
    <path d="M132.595 135.087s-1.774 10.272-3.268 18.675a6.349 6.349 0 01-10.458 3.642l-1.587-1.4a7.989 7.989 0 01-2.428-8.311c2.241-7.75 6.256-21.85 6.256-21.85l11.485 9.244z" class="l"/>
    <path d="M127.274 138.916s-5.976 1.027-9.058-.934c0 0 3.828 6.63 9.058 6.723z" class="l"/>
    <path d="M117.564 123.135a6.166 6.166 0 015.509-6.35l10.645-.374c3.081-.093 5.042 2.615 5.509 5.883.56 3.922 0 12.046-1.027 17.928-.56 3.362-2.988 6.443-5.976 6.63-3.268.093-13.073-2.895-14.007-9.338a105.9 105.9 0 01-.654-14.38z" class="l"/>
    <path d="M109.998 129.954s0-11.766 5.136-15.5c6.91-4.949 15.594-7 23.438 1.681.093.093-1.027 18.115-28.573 13.82z" class="k"/>
    <path d="M114.574 134.434c.934 2.334 3.175 3.642 5.136 2.895s2.8-3.268 1.868-5.6-3.175-3.642-5.136-2.895-2.802 3.265-1.868 5.6z" class="l"/>
    <path d="M85.861 179.86s-17.181-5.882-29.227 8.031c0 0-8.217 7.937-6.443 19.516 0 0 3.735 20.636 37.818 27.079 0 .094-6.63-32.962-2.148-54.626z" class="g"/>
    <path d="M80.652 319.606c2.428-2.615 17.088-2.615 22.037-7.19v-50.984h6.07v51.077a12.578 12.578 0 005.7 2.8c6.536 1.681 15.781 2.8 16.341 8.03 0 0-2.8-.187-24.838-.187-22.971 0-26.146-.934-26.146-.934a2.563 2.563 0 01.836-2.612z" class="c"/>
    <path d="M170.718 304.481s-1.774 6.91 3.175 11.019a13.7 13.7 0 009.8 3.455s3.548.934 1.307 2.988-7.1 1.587-11.112.374-5.509.093-7 .374-6.817 0-5.976-5.976 2.614-9.246 2.054-12.141h7.752zM205.234 290.416s2.054 6.817 8.4 7.844a13.992 13.992 0 0010.178-2.054s3.548-1.027 2.615 1.868c-.84 2.895-5.229 4.949-9.338 5.976s-4.665 2.894-5.785 3.921-5.79 3.545-8.218-2.055-2.521-9.244-4.482-11.485z" class="b"/>
    <path d="M175.586 308.242c-.093.56-8.964 2.334-16.715 0 0 0-1.494-19.049-1.681-32.589 0-1.494-.28-8.591-.374-10.832l-.56-5.976c-6.536-.56-15.221-.934-15.221-.934h-24.09s22.5-22.877 39.405-21.941 25.305-1.4 25.305 28.478c0 10.178-2.241 24.091-6.069 43.794z" class="c"/>
    <path d="M130.256 151.755s-9.9 5.6-17.181-4.575c0 0-19.049 2.708-25.118 16.528s-7.191 46.688.373 72.272c0 0-.56-2.895 49.21-15.968a75.3 75.3 0 01-2.148-11.112c-1.121-9.244 0-22.037 0-22.037s7.937 15.129 19.614 18.958l31.842-.187 2.521-7.564s-25.305-6.63-34.363-21.1c-10.37-16.811-14.478-23.907-24.75-25.215z" class="m"/>
    <path d="M209.145 290.096s-8.591-26.893-21.1-51.451c-12.703-25.119-20.266-22.598-54.256-18.111 0 0-29.227 3.922-45.381 14.66 0 0 4.015 22.411 17.835 22.13 0 0 16.621 2.521 29.881-4.669 10.645-5.7 27.079-15.687 35.2-14.754 13.26 1.587 9.618 38.471 9.618 38.471 2.708 6.07 7.937 15.221 13.633 21.477-.09-.003 9.154-2.715 14.57-7.753zM131.437 205.464h115.881v8.03H131.437z" class="c"/>
    <path d="M228.634 212.818h6.817v111.026h-6.817zM144.55 212.818h6.817v111.026h-6.817z" class="c"/>
    <path d="M163.793 193.359s10.645 1.774 15.407 4.949 7.937 3.828 4.762 4.109c-3.081.28-20.169 0-20.169 0s-1.867-4.949 0-9.058z" class="j"/>
    <path d="M219.072 202.697l-1.307 2.8h-48.276l.84-2.8 13.727-30.909a3.9 3.9 0 013.548-2.8h42.485c1.5 0 3.363 1.121 2.71 2.8z" class="n"/>
    <path d="M141.756 202.417h30.254v3.081h-30.254z" class="j"/>
    <g>
      <path d="M141.094 257.898a7.166 7.166 0 01-5.229 6.443H82.08s-13.446 1.4-19.7-12.886c0 0-11.485-28.013-12.232-43.981 0 0 6.07 11.112 16.154 13.633s21.01 7.75 25.679 21.383 8.4 14.754 16.715 14.847c8.214.187 32.398.561 32.398.561z" class="m"/>
    </g>
    <g>
      <path d="M163.823 193.37s-12.139-.467-19.329-.654c-4.949-.093-18.862 0-18.862 0-4.949-3.363-12.512-11.298-14.847-19.142-5.042-16.901-9.618-19.421-15.967-17.461-4.763 1.401-11.766 11.018-6.443 31.095 5.789 22.037 27.453 27.36 40.9 25.585 11.019-1.494 35.11-10.365 35.11-10.365z" class="g"/>
    </g>
    <g>
      <path fill="#55ad42" d="M199.744 185.831c-1.307 2.334-.654 5.7 1.868 6.256a5.835 5.835 0 006.91-3.268c1.4-2.615.187-4.482-2.054-5.7s-5.23.191-6.724 2.712z"/>
    </g>
    <g>
      <path d="M308.99 323.694c.187-.093.093-.187-.374-.187l-.373.28zM305.66 323.264c-.56.093-1.214.28-.84.467a6.878 6.878 0 001.307-.374c.467 0 .84.093.747.187.187-.093.747.093 1.027-.093a4.929 4.929 0 00-2.334 0c-.094-.094.093-.187.093-.187zM257.664 322.917zM227.878 322.75c.187 0 .28 0 .374-.093a.93.93 0 01-.374.093zM222.851 322.548zM257.634 322.94l-.746-.093c-.094.093.373 0 .746.093zM299.05 323.828a.842.842 0 00.467-.093.842.842 0 00-.467.093zM270.79 322.741h.28c.093 0 .093-.093.187-.093zM280.855 322.707c-.187 0-.28.187-.374.28a.713.713 0 01.467-.187.091.091 0 00-.093-.093zM296.763 323.012zM263.601 322.628zM128.183 322.452c.934.187-1.587.187-.093.374-.187-.094 1.307-.281.093-.374zM298.769 323.768zM192.135 322.426a.326.326 0 01.187.093c0-.093-.094-.093-.187-.093zM208.022 322.669zM183.792 322.666zM175.223 322.692zM8.265 324.035c-.187 0-.28-.093-.467-.187.187.187-1.12.187.467.187zM299.072 323.688a.343.343 0 01-.28.093.343.343 0 00.28-.093zM183.429 324.234h-1.4a7.021 7.021 0 011.4 0zM70.094 323.989zM178.009 324.224a1.759 1.759 0 00-.747-.187c-.093 0-.093 0-.187.093z" class="c"/>
      <path d="M3.455 324.095c1.027-.187 3.081 0 4.3-.28.093 0 .093 0 .187.093a.373.373 0 01-.192-.371c.56 0 1.121-.187 1.307 0a1.184 1.184 0 00-.56.093l.654-.093c.56.28-.84.093-.84.28 1.121-.093 2.334-.187 3.548-.187.187.187-2.148.093-.934.28l-1.4-.093c1.121.374-.84 0 .093.374 1.868.093 2.054-.093 3.922-.093.467-.093-.093-.187.28-.28 2.615-.187 2.054.56 4.015.28a2.683 2.683 0 012.054-.28l-.467.28c1.774 0 1.027-.374 2.895-.187a8.779 8.779 0 01-1.121.093c1.214.187.84-.187 1.774-.187l.187.187c1.961 0 4.015-.187 6.163-.28-.093.093-.467.187 0 .187a81.681 81.681 0 018.311.187l1.027-.187c.187 0 .467.093.187.093 1.027.093.093-.093.56-.187.56 0 .747.093.374.187a43.012 43.012 0 016.91-.187l-.374.093c1.494.093 1.681-.374 2.988-.187h-.28c3.175.093 6.723-.093 9.058.187.467-.28 3.175.093 3.362-.28a26.57 26.57 0 003.828.374c.654 0 1.027-.28 1.868-.28v.187l1.121-.187.654.28.747-.093c-.28 0-.654-.093-.654-.187a8.648 8.648 0 013.081.28l2.895-.187a1.589 1.589 0 01-.654.093c1.121-.093.093.28 1.4.093-.187-.093.093-.093.093-.187a22.531 22.531 0 003.548.093l-.187.187c2.148 0 4.575-.093 7-.093-.84-.093-.654-.28 0-.374l.28.187c.467-.093-.747-.093.187-.28.934 0 .654.28.093.28l1.121-.093c.093.093-.187.093-.28.187a22.638 22.638 0 002.521 0l.093.093c2.428 0 3.548-.093 5.509-.093 0-.187.84-.187 1.4-.28 1.494.093 3.081.187 4.856.187 1.214-.093.374-.187.934-.28.093.187 1.868.187.934.28 2.148 0 2.708 0 5.323-.187-.28-.093-.654-.093-.467-.187.467 0 1.121.093 1.027.187h-.093c2.988-.28 6.91.467 9.244.187h-.093l2.428-.187c1.121 0-.654.093.187.28 2.615-.28 4.2 0 6.35-.187 1.681.56 5.976 0 8.311.28l-.093-.093c.56-.093.747.093 1.121.093-.093-.093-.654-.093-.28-.187 5.042-.187 10.365.187 15.5.28 1.868 0 1.027-.654 3.455-.374l-.654.187c3.828-.28 7.75 0 11.485-.187a1.184 1.184 0 01-.56.093 10.039 10.039 0 002.895-.093c.56 0 .093.093.467.187a20.9 20.9 0 012.428 0c.093 0-.093 0-.187.093.654-.093 2.148 0 1.774-.187 1.4.093 2.708-.093 3.735 0 .747-.187 2.428.093 2.615-.187-.093.28 2.428.28 3.362.093-.28.093.747.093.467.187 1.027 0 1.961-.093 1.774-.187 1.868.374 3.735-.28 4.762.187 2.988-.187 5.789-.28 8.4-.374-.093.28-2.988 0-2.895.374 2.521-.093 4.015-.374 6.536-.28.654 0-.374.093-.56.187 2.521-.093 4.949 0 7.19-.187a.842.842 0 01-.467.093c.467 0 1.027 0 1.027-.093h-.467c-.747-.187 1.774-.467 1.868-.56-.747.374 2.241.093 1.027.654.28 0 .654-.093.56-.187.467 0 .56.093.093.187a24.7 24.7 0 012.521-.187c0 .093-.28.093-.467.187a8.641 8.641 0 012.72-.185c-.093 0 0 .093-.187.093 2.054 0 3.548-.374 5.789-.187-.654.28.747.093.934.374l1.214-.093-.467-.093c1.121 0 2.054-.187 2.988-.093l-.84.093 2.054-.093-1.124-.101c1.121-.093-.093-.28 1.307-.28a10.289 10.289 0 011.681.187 6.432 6.432 0 011.868-.093c.187.093-.187.28 0 .374.56-.187 2.521-.093 3.175-.28-.187.093-.28.187-.187.187l.467-.187c.467.093.56.093.467.187 1.494 0-.467-.28 1.307-.187-.093 0-.28.093-.374.093 1.774.093 3.455-.093 5.136 0 .467.28-1.494.093-.934.28 2.428 0 4.949-.28 7.283-.28h-.467c.28-.374 1.774.187 2.895 0-.28 0-.374.187-.28.187 1.587.093 3.268-.093 5.6-.187l-.28.093c.934.093 2.428.093 3.455.093.28-.093.84-.093.56-.187 3.081.56 5.976-.28 8.684.187-.374 0-.747.093-.56.093l2.334-.093c-.187-.187-.28-.093-.84-.187a8.224 8.224 0 011.587-.187c-1.027.093 0 .28.467.374-.093-.093.093-.093 0-.187 1.214.28.187-.28 1.868-.093l-.093.093a12.515 12.515 0 011.868-.093c.28.187-.654.093-.747.28a13.675 13.675 0 012.709-.187 7.067 7.067 0 01-1.4.093 5.458 5.458 0 001.774.187h-.091l1.587.093-.374-.093c1.214-.467 2.428-.093 4.015-.374-1.587.28-.28.187-.374.374.374.093 1.027.093.84.187.747-.187 1.307.093 2.334-.093.093.093.84 0 .654.187 1.027-.093-.187-.093-.187-.187 1.494-.187 3.548.28 5.789 0 1.868-.093 2.241-.374 4.015-.467.56.093-.467.28-.467.28a11.38 11.38 0 002.521 0c-.187.093 0 .093.28.187.747 0 .467-.28 1.4-.187a6.435 6.435 0 01-.747.28l2.521-.28c.187.093-.56.187-.84.28a15.2 15.2 0 002.895-.28l-.462-.087c.093 0 0 .187-.28.187a2.035 2.035 0 01-1.307-.093h.654c-.654-.374-2.521.093-3.735 0l.56-.28-1.307.28c-.28-.093-.467-.187.187-.28-.934-.187-.84.093-1.587-.093-.093 0 0 0 0-.093l-.84.093c.187-.093-.187-.187.374-.187-1.587-.187-2.521.187-3.175 0h.093c-2.148.093-.187.187-1.868.467l-1.121-.56-.187.187c-.187 0-.654 0-.56-.093-.84.187.187.093-.374.187-1.121-.187-2.988.093-3.268-.28-.374.187 1.027.093-.093.187-.374-.374-1.307.093-2.334-.093.28-.187 1.214-.093.28-.28-.56.28-1.961-.093-2.8 0 0 .28-1.868.093-3.268.187.093-.093-2.615-.093-3.922-.187-.28.28-1.587.187-2.615.28 0-.187.187-.187.747-.28h-.934a4.687 4.687 0 01-1.121.187l.187-.187c-1.307.093-2.708.093-4.109.093-.093.187 1.307.467-.374.56-.093-.093-.093-.28.28-.28a2.539 2.539 0 01-.84 0l.654-.187c-.747-.093-.374.093-.934.093 0-.093-.467-.093-.374-.187h.747a10.289 10.289 0 01-1.681-.187c.093.093 0 .187-.467.187-1.214 0-.467-.187-1.121-.187-.28.093-1.121 0-1.121.187a.686.686 0 01-.56-.187c-.654.093-2.988 0-2.241.28h.093c-2.054.187-4.3-.093-6.443 0v-.093c-1.214.093-2.8 0-3.642.187-.374 0-.84-.093-.747-.187a10.556 10.556 0 01-2.428 0c.934-.093-.28-.093.934-.093a14.042 14.042 0 00-2.8 0c.467-.187-.934-.187-1.494-.187l.84.093h-1.778l.28-.187c-2.521-.28-4.575.467-6.443 0-.654.187 1.4.093.747.28a23.417 23.417 0 01-2.708-.374c-1.587-.093-1.494.374-3.175.28.187.093.374.28-.84.374-1.121 0-1.4-.374-.654-.374h.374c.374 0 .84-.093.374-.187l-.187.093c-.56-.093-2.148-.093-1.774-.187-.84.093-.374.093.28.187-1.494-.093-2.334 0-3.828-.093.28 0 .467.093.187.093-2.241-.093-1.027.187-2.521.187-.84-.093.28-.28-1.214-.187-.934-.093-.187-.187.187-.28a20.228 20.228 0 01-3.365-.096l.747-.093h-1.121l.374.187c-.467 0-.84 0-.747-.093-.467.093.374.28-.56.374-.56-.093-1.774.093-1.961-.093 1.774.093-.187-.187 1.307-.28h-1.119c-.093 0 .093 0 .187-.093-1.774-.187-.84.28-2.615.28.187-.093-.374-.187-.747-.187.747 0 .373.187-.28.28a12.514 12.514 0 00-1.868.093h.654a9.2 9.2 0 01-1.587.187c-.093-.093.747-.093.467-.093-.934.187-2.054-.187-3.268-.093-.56-.093-.093-.187-.56-.28-1.4.187-1.494-.187-2.988 0 .467.187.467.093-.56.28l2.428-.093-1.494.28c.747 0 1.494-.093 1.961-.093-.747.093-.654.093-.28.187-1.027-.28-1.961.187-3.081 0v-.377c-1.774-.187-3.081.187-5.322.093l.747.093a16.53 16.53 0 01-2.148.093c.093-.093-.374-.187-.654-.28 0 .093-1.681 0-1.868.28l-1.027-.187c-1.774-.093-2.054.374-3.828.374.56-.187-.28-.28.934-.374-.56 0-1.121 0-1.121.093-.374-.093-1.587.187-2.148.093a1.684 1.684 0 01-.934.187c-.093 0 0-.093 0-.093 0 .093-1.027.093-.467.28-1.774-.467-4.949 0-6.536-.374-1.307 0-2.8.093-3.922.093.093 0 0-.093.187-.093-1.587-.093-.934.374-2.8.28-.934-.187.934-.093.373-.187-.28-.467-2.148.093-3.362-.187h.28c-.934-.187-2.241.187-3.735.093 0 0 .093 0 0-.093a36.265 36.265 0 01-4.482.374c.467-.187.654-.093.374-.28-.654 0 .187.28-1.121.374-.467-.093-1.4-.187-1.494-.374h1.214a9 9 0 00-2.241 0l.093-.093c-1.868 0-1.868.28-3.922.28l.187.093c-1.121.28-.934-.187-2.054.093l-.374-.28a36.252 36.252 0 01-3.828.28c.747-.187 2.241-.28 3.268-.467a14.135 14.135 0 00-2.8.187 3.177 3.177 0 01.934-.093 11.191 11.191 0 01-3.548.28c.28-.56-3.735-.093-4.856-.56-2.521.187-5.042-.093-8.03-.093 1.027.374-.84 0-.654.467h-1.027l-2.054-.28c-.467-.093.654-.093.56-.187-1.494 0-.654-.187-1.681-.28.187.187-.56.187-1.4.187l1.214.187c-2.148.187-1.868-.374-4.015-.093l.654-.093a31.687 31.687 0 00-5.136.374c-.187-.093-.467-.187 0-.187-2.615-.093-5.883.374-7.844.187l.187-.093a7.548 7.548 0 01-1.494.093s.187-.093 0-.093a6.922 6.922 0 01-1.961.093l.56-.093a58.8 58.8 0 00-6.07.374c0-.28-2.054-.374-2.988-.467-2.988 0-5.042.28-7.844.374-1.681-.28-5.789-.093-8.591-.28.467.093-.093.187-.56.28-.654-.093-1.774.187-1.681-.093h.187a9.872 9.872 0 00-2.895-.187l-.187.374c-2.708-.56-7.1.187-8.591-.28.467-.28-.374-.28-1.027-.187v-.188a43.532 43.532 0 00-4.949 0l.467-.093c-1.307 0-1.587.56-2.8.56l-.28-.374c-2.241-.093-4.389-.093-6.63 0 0 0 .093-.093.467-.093-1.027 0-4.015-.187-3.642.187 0-.28-2.241 0-3.455.093l.187-.187a6.963 6.963 0 01-2.428.374c-.374 0-.28-.187.187-.093-1.121-.093-.84.187-2.241.093l.467-.093a3.476 3.476 0 00-1.681.187 6.6 6.6 0 01-2.334-.187 2.662 2.662 0 01-1.494.187c-.093-.093.187-.093.28-.093-1.868-.093-2.8.187-4.109 0 0-.093-.093-.093-.187-.093h2.615c0-.187-1.214-.187-.28-.467a26.57 26.57 0 01-3.828.374c-.093 0-.093 0-.187-.093h-.654c-.374 0-.654-.093-1.027-.093a7.417 7.417 0 00-2.054-.093c.093.187-.747.187 0 .28h2.33a5.1 5.1 0 01-1.681.093 4.4 4.4 0 01-.84.28c-.747-.28-2.334-.374-2.615-.56a28.375 28.375 0 00-5.6.467 1.388 1.388 0 01-.84-.187 2.585 2.585 0 00.84-.093c-1.027.093-3.175 0-3.362.28-1.307-.093.747-.187-1.121-.187l.28-.093c-3.548-.374-5.789.654-9.8.187a.842.842 0 01.467.093c-.934-.093-1.961-.093-2.988-.093a4.546 4.546 0 00-.1 1.117c1.121 0 .467.187.934.28.934-.093 1.681-.28 2.428-.28.093.093.186.093.093.187zm23.624-1.681h-.84a.326.326 0 01.187-.093 2.28 2.28 0 01.654.093zM31 323.628a3.853 3.853 0 00.84.093h-1.119c-.093-.093 0-.093.28-.093zM28.7 323.729zM25.756 322.669z" class="c"/>
      <path d="M272.123 323.592c.093 0 .093 0 .187.093 0-.093-.094-.093-.187-.093zM278.236 323.632l.84.093a3.216 3.216 0 00-.84-.093zM282.887 323.739l.093-.093-.093.093zM208.426 323.944h-.186c-.467.093-.183 0 .186 0zM230.531 323.508c-.187 0-.467.093-.654.093.374 0 .654 0 .654-.093zM228.78 323.58zM303.207 323.787zM303.454 323.763zM304.258 323.72h-.56a.6.6 0 00.56 0zM295.153 323.714a11.3 11.3 0 001.774.093l.093-.093c-.373.185-1.493-.095-1.867 0zM287.311 322.892l1.587.093c-.374-.093-.654-.187 0-.187-1.961-.28.467.094-1.587.094zM282.411 322.747c.84 0 0-.093 0-.187-.561.093-.654.187 0 .187zM246.969 322.815l.093-.187c-.653 0 0 0-.093.187zM240.215 323.721l.654.093.28-.187zM236.196 322.442zM176.718 322.516l.187.187c.467-.002.56-.282-.187-.187zM151.084 322.715a3.56 3.56 0 00-1.4-.091c.467 0 1.121.091 1.4.091z" class="c"/>
      <g>
        <path d="M74.081 322.328l.56-.093-.934.093z" class="c"/>
      </g>
    </g>
  </g>
  <g>
    <g clip-path="url(#a)" transform="translate(201.033 129.376)">
      <path d="M17.186 22.384c-4.669 1.587-9.991-1.494-11.859-6.817s.56-11.112 5.229-12.7 9.991 1.494 11.859 6.817-.56 11.112-5.229 12.7" class="q"/>
    </g>
    <path d="M206.384 144.923c-1.68-5.042.191-10.178 4.202-12.232-.374.093-.747.187-1.027.28-4.669 1.587-7.1 7.283-5.229 12.606s7.1 8.4 11.859 6.817a5 5 0 001.027-.467c-4.482.934-9.151-2.054-10.832-7" class="r"/>
    <path d="M206.542 145.262l-2.148.654c.093.28.187.467.28.747l2.054-.747a1.731 1.731 0 00-.186-.654M205.952 143.451l-2.054.747c.093.28.093.467.187.747l2.054-.747a2.2 2.2 0 00-.187-.747M207.298 146.891l-2.148.747a3.953 3.953 0 01.467.654l2.054-.747a4.06 4.06 0 01-.373-.654M208.343 148.516l-2.054.654c.187.187.28.467.467.654l2.054-.748a2.476 2.476 0 00-.467-.56M205.734 141.639l-2.054.654a2.056 2.056 0 00.093.747l2.054-.747c0-.187-.093-.467-.093-.654M205.846 139.628l-2.054.747c0 .28-.093.56-.093.84l2.053-.747a2.585 2.585 0 00.093-.84M206.582 137.035l-2.054.747a3.317 3.317 0 00-.374.84l2.054-.747a2.307 2.307 0 00.374-.84M208.098 134.644l-2.054.654a7.127 7.127 0 00-.746 1.027l2.054-.747a6.542 6.542 0 01.746-.934M210.16 150.2l-2.148.747c.28.187.467.374.747.56l2.053-.747c-.187-.187-.467-.374-.654-.56M210.139 152.141a5.264 5.264 0 001.121.374l2.054-.748a4.925 4.925 0 01-1.121-.28z" class="s"/>
    <g>
      <path d="M216.183 140.641l.56 2.148-.467.093-1.027-.747.187 1.027-.467.093-.56-2.147.467-.093 1.027.84-.28-1.027z" class="t"/>
      <path d="M213.98 137.361a4.267 4.267 0 014.669 1.961l-1.4.747a2.662 2.662 0 00-2.895-1.027 3.258 3.258 0 00-2.055 3.828 2.877 2.877 0 003.362 2.334h.093a3.044 3.044 0 002.054-2.428h1.587a4.584 4.584 0 01-3.268 4.109 4.47 4.47 0 01-5.322-3.455v-.187a4.988 4.988 0 013.175-5.882z" class="t"/>
      <path d="M214.107 141.287l.467 2.148-.56.093-.467-2.148z" class="t"/>
      <path d="M213.222 133.905c4.015-1.121 8.03 1.681 9.151 6.163s-1.307 9.055-5.322 10.085c-4.015 1.121-8.124-1.681-9.151-6.163s1.307-9.057 5.322-10.085zm3.362 14.567a6.643 6.643 0 004.2-8.03 6.107 6.107 0 00-7-4.949.343.343 0 00-.28.093 6.643 6.643 0 00-4.2 8.03 6.107 6.107 0 007 4.949c.187 0 .187 0 .28-.093" class="t"/>
    </g>
  </g>
  <g>
    <path d="M225.952 35.698a15.716 15.716 0 00-11.579 19.049l49.77 200.668a15.842 15.842 0 0019.142 11.485l81.705-20.263a15.76 15.76 0 0011.579-19.049l-49.77-200.761a15.7 15.7 0 00-19.142-11.392z" class="u"/>
    <g clip-path="url(#b)" transform="translate(213.921 14.947)">
      <path d="M-90.949 36.822l246.70645693-61.15421523L215.968036 218.56745371l-246.70645693 61.15421523z" class="u"/>
      <g clip-path="url(#c)" transform="translate(-90.949 -24.332)">
        <path fill="#010202" stroke="#55ad42" stroke-miterlimit="10" d="M70.393 43.637L211.14806388 8.74628178l62.03048317 250.24147015-140.75506388 34.89071822z"/>
      </g>
      <path fill="none" stroke="#55ad42" stroke-miterlimit="10" d="M-90.949 36.822l246.70645693-61.15421523L215.968036 218.56745371l-246.70645693 61.15421523z"/>
    </g>
    <path fill="none" stroke="#727c70" stroke-miterlimit="10" d="M225.952 35.698a15.716 15.716 0 00-11.579 19.049l49.77 200.668a15.842 15.842 0 0019.142 11.485l81.705-20.263a15.76 15.76 0 0011.579-19.049l-49.77-200.761a15.7 15.7 0 00-19.142-11.392z"/>
    <g>
      <path d="M313.029 45.583l14.758 57.987a8.769 8.769 0 01-.187 5.136 6.433 6.433 0 01-.28.747 8.928 8.928 0 01-5.883 4.949l-58.084 14.851a8.921 8.921 0 01-10.832-6.443l-14.754-57.992a8.921 8.921 0 016.443-10.832l57.988-14.753a8.864 8.864 0 0110.831 6.35z" class="j"/>
      <path d="M322.822 83.958l4.669 18.209-.093 7.377a8.928 8.928 0 01-5.883 4.949l-33.242 8.5-35.764-.654-6.163-24.281a18.3 18.3 0 018.591-5.042 18.9 18.9 0 012.428-.374c6.256-.467 9.431 1.681 12.979 3.922 3.735 2.428 7.844 5.042 16.528 4.762 6.91-.187 10.365-3.081 13.726-6.443 4.576-4.762 8.964-10.365 22.224-10.925z" class="u"/>
      <path d="M259.618 135.412l32.4-8.311a1.61 1.61 0 011.961 1.214l1.774 7a1.61 1.61 0 01-1.214 1.961l-32.4 8.311a1.61 1.61 0 01-1.961-1.214l-1.774-7a1.636 1.636 0 011.214-1.961zM275.53 67.245l-6.256 7.564 7.844 30.628 15.221-3.828-7.938-30.629z" class="m"/>
      <path d="M284.436 70.917l7.41975346-1.89127144 7.81875374 30.67419298-7.41975345 1.89127144z" class="g"/>
      <path d="M269.273 74.805l-1.4.187 7.283-8.587 10.739 4.3-1.4.374-8.965-3.647z" class="u"/>
      <path d="M275.156 66.405l8.5-1.868 9.151 4.3-6.91 1.868z" class="u"/>
      <path d="M272.474 74.82a1.539 1.539 0 00-1.027 1.96l.934 3.548 2.895-.747-.934-3.548a1.665 1.665 0 00-1.868-1.213z" class="j"/>
      <path d="M272.475 74.819h-.187l1.4 5.229.28-.093-1.493-5.136z" class="aa"/>
      <path d="M271.366 76.79l2.895419-.73803305.04618882.18120594-2.895419.73803305z" class="aa"/>
      <path d="M276.669 73.777a1.539 1.539 0 00-1.027 1.958l.934 3.548 2.895-.747-.934-3.548a1.587 1.587 0 00-1.868-1.211z" class="j"/>
      <path d="M276.67 73.774c-.093 0-.093 0-.187.093l1.4 5.136.187-.093-1.4-5.136z" class="aa"/>
      <path d="M275.66 75.727l2.895419-.73803305.04618882.18120594-2.895419.73803305z" class="aa"/>
      <path d="M280.862 72.736a1.5 1.5 0 00-1.027 1.958l.934 3.548 2.895-.747-.934-3.548a1.587 1.587 0 00-1.868-1.211z" class="j"/>
      <path d="M280.956 72.733c-.093 0-.093 0-.187.093l1.307 5.136.28-.093-1.4-5.136z" class="aa"/>
      <path d="M279.861 74.69l2.895419-.73803305.04618882.18120594-2.895419.73803305z" class="aa"/>
      <g>
        <path d="M275.091 83.574a1.673 1.673 0 00-1.118 1.958l.934 3.548 2.895-.747-.934-3.548a1.451 1.451 0 00-1.777-1.211z" class="j"/>
        <path d="M275.091 83.571c-.093 0-.093 0-.187.093l1.307 5.136.28-.093-1.4-5.136z" class="aa"/>
        <path d="M273.992 85.535l2.895419-.73803305.04618882.18120594-2.895419.73803305z" class="aa"/>
      </g>
      <g>
        <path d="M279.286 82.53a1.5 1.5 0 00-1.027 1.958l.934 3.548 2.895-.747-.934-3.548a1.587 1.587 0 00-1.868-1.211z" class="j"/>
        <path d="M279.287 82.527c-.093 0-.093 0-.187.093l1.307 5.136.28-.093-1.4-5.136z" class="aa"/>
        <path d="M278.196 84.495l2.895419-.73803305.04618882.18120594-2.895419.73803305z" class="aa"/>
      </g>
      <g>
        <path d="M283.479 81.392a1.539 1.539 0 00-1.027 1.958l.934 3.548 2.895-.747-.934-3.548a1.587 1.587 0 00-1.868-1.211z" class="j"/>
        <path d="M283.48 81.389c-.093 0-.093 0-.187.093l1.4 5.136.28-.093-1.493-5.136z" class="aa"/>
        <path d="M282.464 83.342l2.895419-.73803305.04618882.18120594-2.895419.73803305z" class="aa"/>
      </g>
      <g>
        <path d="M277.509 93.108a1.5 1.5 0 00-1.027 1.958l.934 3.548 2.895-.747-.934-3.548a1.587 1.587 0 00-1.868-1.211z" class="j"/>
        <path d="M277.603 93.105h-.187l1.307 5.136.187-.093-1.307-5.043z" class="aa"/>
        <path d="M276.508 95.063l2.895419-.73803305.04618882.18120594-2.895419.73803305z" class="aa"/>
      </g>
      <g>
        <path d="M281.8 91.968a1.673 1.673 0 00-1.118 1.96l.934 3.548 2.895-.747-.934-3.548a1.565 1.565 0 00-1.777-1.213z" class="j"/>
        <path d="M281.8 91.967c-.093.093-.093.093-.187.093l1.307 5.136.187-.093-1.307-5.136z" class="aa"/>
        <path d="M280.69 93.931l2.895419-.73803305.04618882.18120594-2.895419.73803305z" class="aa"/>
      </g>
      <g>
        <path d="M285.991 90.926a1.539 1.539 0 00-1.027 1.958l.934 3.548 2.8-.747-.928-3.548a1.451 1.451 0 00-1.779-1.211z" class="j"/>
        <path d="M285.992 90.923h-.187l1.307 5.136.28-.093-1.4-5.043z" class="aa"/>
        <path d="M284.89 92.892l2.895419-.73803305.04618882.18120594-2.895419.73803305z" class="aa"/>
      </g>
      <g>
        <path d="M322.067 81.138l5.7 22.5a8.921 8.921 0 01-6.443 10.832l-57.991 14.757a8.715 8.715 0 01-6.63-.934c1.121-8.964 2.521-20.355 10.272-24.555.56-.28 1.214-.56 1.774-.84 4.762-1.681 7.75-.747 10.925.28a20.361 20.361 0 0013.913.187c5.323-1.681 7.47-4.669 9.338-7.937 2.894-4.766 5.229-10.181 15.878-13.45a21.018 21.018 0 013.264-.84z" class="a"/>
      </g>
      <g>
        <path d="M327.563 108.731a8.937 8.937 0 01-6.256 5.7l-57.988 14.843a8.921 8.921 0 01-10.832-6.443l-7.283-28.76a15.1 15.1 0 013.548-.184c9.338.747 9.244 7.19 18.3 9.9a33.457 33.457 0 004.2.84 14.35 14.35 0 008.591-1.307c5.98-3.086 9.435-9.533 23.161-7.848h.187c10.739 1.4 19.049 7.657 24.372 13.259z" class="m"/>
      </g>
      <path d="M336.934 139.426l14.751 57.988a8.769 8.769 0 01-.187 5.136 6.436 6.436 0 01-.28.747 8.928 8.928 0 01-5.883 4.949l-57.984 14.757a8.921 8.921 0 01-10.832-6.443l-14.754-57.991a8.921 8.921 0 016.443-10.832l57.988-14.754a8.868 8.868 0 0110.738 6.443z" class="j"/>
      <g>
        <path d="M346.712 177.716l4.669 18.209-.187 7.377a8.928 8.928 0 01-5.883 4.949l-33.242 8.5-35.764-.654-6.162-24.281a18.3 18.3 0 018.591-5.042 18.9 18.9 0 012.428-.374c6.256-.467 9.431 1.681 12.979 3.922 3.735 2.428 7.844 5.042 16.528 4.762 6.91-.187 10.365-3.081 13.726-6.443 4.669-4.669 9.148-10.271 22.317-10.925z" class="u"/>
      </g>
      <path d="M283.523 229.163l32.4-8.311a1.61 1.61 0 011.961 1.214l1.774 7a1.61 1.61 0 01-1.214 1.961l-32.4 8.311a1.61 1.61 0 01-1.961-1.214l-1.774-7a1.654 1.654 0 011.214-1.961z" class="m"/>
      <g>
        <path d="M345.956 174.896l5.7 22.5a8.921 8.921 0 01-6.443 10.832l-57.991 14.851a8.715 8.715 0 01-6.63-.934c1.121-8.964 2.521-20.356 10.272-24.558.56-.28 1.214-.56 1.774-.84 4.762-1.681 7.75-.747 10.925.28a20.361 20.361 0 0013.913.187c5.323-1.681 7.47-4.669 9.338-7.937 2.894-4.763 5.229-10.181 15.878-13.541 1.116-.28 2.144-.56 3.264-.84z" class="g"/>
      </g>
      <g>
        <path d="M351.453 202.585a8.766 8.766 0 01-6.256 5.7l-57.988 14.75a8.921 8.921 0 01-10.832-6.443l-7.283-28.667a14.318 14.318 0 013.455-.184c9.338.747 9.244 7.19 18.3 9.9a33.457 33.457 0 004.2.84 13.728 13.728 0 008.591-1.4c5.976-3.081 9.431-9.524 23.158-7.844h.187c10.835 1.396 19.145 7.652 24.468 13.348z" class="m"/>
      </g>
      <g>
        <path d="M313.093 165.353l-6.723 7.283 5.6 22.037 15.874-4.015-5.6-22.037z" class="j"/>
        <path d="M301.03 173.951l5.33830766-1.36071756 5.62762551 22.07805442-5.33830766 1.36071756z" class="ab"/>
        <path d="M313.093 165.353c-6.723 1.681-4.015-.093-12.139 8.591 6.817-1.681 4.109.093 12.139-8.591z" class="c"/>
        <path d="M314.12 176.652c1.027 3.922.28 3.268 2.428 2.708-1.028-3.922-.28-3.175-2.428-2.708zM315.988 184.215c1.027 3.922.28 3.268 2.428 2.708-.934-3.922-.187-3.268-2.428-2.708z" class="m"/>
        <path d="M311.973 194.674l-2.802-11.019-13.913 3.548 3.828 15.127z" class="j"/>
        <path d="M293.671 203.638l5.509-1.4c-4.575-18.116-2.614-13.358-8.404-21.758-1.12 10.178-1.68 5.042 2.895 23.158z" class="ab"/>
        <path d="M309.176 183.655l-4.58-6.723-13.82 3.548 4.575 6.723z" class="c"/>
        <path d="M305.903 196.164c-1.307-5.042-.467-4.389-2.708-3.735 1.214 5.046.467 4.299 2.708 3.735zM296.285 198.685c-1.308-5.039-.467-4.385-2.708-3.731 1.214 4.949.467 4.295 2.708 3.731z" class="m"/>
        <path d="M303.662 164.326l1.868 7.47c2.148-2.334 1.961-.56 0-7.937z" class="j"/>
        <path d="M301.903 164.848l1.81012139-.46139416 1.91424234 7.50987192-1.81012138.46139416z" class="ab"/>
      </g>
    </g>
  </g>
  <g>
    <path d="M328.115 50.823a27.65 27.65 0 00-2.615-3.828 16.779 16.779 0 00-1.774-1.868 7.689 7.689 0 00-2.054-1.494 1.672 1.672 0 00-2.148.654l-1.4 1.958a38.216 38.216 0 00-2.335 4.3 34.417 34.417 0 00-2.8 18.862 32.583 32.583 0 002.613 9.238 16.362 16.362 0 005.7 7.1 7.717 7.717 0 001.214.654.774.774 0 00.747.28.82.82 0 00.654.093.565.565 0 00.56-.28 34.908 34.908 0 003.175-6.817 25.153 25.153 0 001.494-2.708 25.657 25.657 0 002.428-8.684 28.7 28.7 0 00-3.459-17.46zm-11.3 15.874zm3.268 4.856l-.093-.467h.093v.467zM389.084 48.539a27.124 27.124 0 002.522-3.824 17.637 17.637 0 001.027-2.334 10.335 10.335 0 00.654-2.428 1.7 1.7 0 00-1.4-1.681 19.125 19.125 0 00-2.241-.467 26.38 26.38 0 00-4.67-.466 33.826 33.826 0 00-18.022 4.481 28.856 28.856 0 00-7.283 5.789 15.59 15.59 0 00-4.3 7.75 7.208 7.208 0 00-.187 1.4.712.712 0 000 .747.889.889 0 00.187.654.62.62 0 00.467.374 38.111 38.111 0 007.283.374 29.006 29.006 0 002.988.374 24.916 24.916 0 008.687-1.028 29.326 29.326 0 0014.288-9.715zm-18.488-4.291c-.093.093-.187.093-.374.187zm-3.081 4.762l.374-.28-.374.28zM365.995 81.964a28.961 28.961 0 003.268-4.3 17.837 17.837 0 001.4-2.615 10.981 10.981 0 00.934-2.8 1.932 1.932 0 00-1.494-2.051c-.84-.28-1.774-.56-2.615-.747a35.845 35.845 0 00-5.509-1.027 40.694 40.694 0 00-21.756 3.735 35.816 35.816 0 00-9.151 6.163 19.847 19.847 0 00-5.789 8.777 9.435 9.435 0 00-.28 1.587 1.071 1.071 0 00-.093.934v.093a.992.992 0 00.093.747.842.842 0 00.56.56 37.923 37.923 0 008.591 1.027c1.121.28 2.334.467 3.455.654a29.716 29.716 0 0010.364-.462 35 35 0 0018.022-10.275zm-21.482-6.725c-.187.093-.28.093-.374.187.093-.093.28-.093.374-.187zm-4.1 5.324l.467-.28v.093c-.093.093-.28.093-.467.187zM366.85 4.029a19.549 19.549 0 00-2.615-2.241 16.242 16.242 0 00-1.68-1.027 10.12 10.12 0 00-1.774-.746 1.26 1.26 0 00-1.4.84 12.471 12.471 0 00-.654 1.681 21.843 21.843 0 00-.84 3.548 26.313 26.313 0 001.494 14.193 22.833 22.833 0 003.642 6.163 12.369 12.369 0 005.416 4.109c.374.093.654.187 1.027.28a.617.617 0 00.56.093.411.411 0 00.467-.093c.187 0 .28-.187.374-.374a27.314 27.314 0 001.027-5.509l.56-2.241a23.2 23.2 0 00.187-6.723 21.837 21.837 0 00-5.791-11.953zm-5.137 13.633a.343.343 0 01.093.28.343.343 0 01-.093-.28zm3.268 2.8l-.187-.28.187.28z" class="ac"/>
    <path d="M374.151 20.097a.718.718 0 01-.187.28 189.151 189.151 0 01-9.524 18.956 96.9 96.9 0 01-12.042 16.154 122.759 122.759 0 01-14.567 13.26c-5.042 4.015-10.645 7.47-14.754 12.606-3.642 4.575-5.789 10.832-3.828 16.528a17.689 17.689 0 00.84 1.961.813.813 0 00.84.374 32.007 32.007 0 005.323 1.587.722.722 0 00.746-.654.666.666 0 00-.28-.56c-2.054-5.6.374-11.672 3.922-16.061 3.922-4.856 9.151-8.311 13.726-12.513a88.573 88.573 0 0012.791-14.286 117.082 117.082 0 009.8-16.9c1.4-2.988 2.8-5.976 4.109-8.964a65.992 65.992 0 003.739-9.246c.187-.84.374-1.587.56-2.428.374-.841-1.027-.934-1.214-.094zm-12.419 27.92c.093-.093.093-.093.093-.187 0 .093 0 .187-.093.187z" class="a"/>
    <g clip-path="url(#d)" transform="translate(364.751 43.218)">
      <path d="M11.801 17.839c-4.015.654-7.844-2.521-8.591-7.1s1.868-8.871 5.883-9.524 7.844 2.521 8.684 7.1-1.961 8.871-5.976 9.524" class="q"/>
    </g>
    <path d="M367.907 53.968c-.747-4.2 1.494-8.217 5.042-9.338a3.5 3.5 0 00-.934.093c-4.015.654-6.63 4.949-5.883 9.524s4.669 7.75 8.684 7.1c.28-.093.56-.093.84-.187-3.642.093-7-2.988-7.75-7.19" class="r"/>
    <path d="M367.99 54.237l-1.774.28c0 .187.093.374.093.56l1.774-.28c0-.187-.093-.374-.093-.56M367.819 52.786l-1.774.28v.56l1.774-.28v-.56M368.386 55.654l-1.774.374.28.56 1.774-.28a4.552 4.552 0 01-.28-.654M369.028 57.124l-1.774.28a1.953 1.953 0 00.374.56l1.774-.28c-.093-.187-.28-.374-.374-.56M367.827 51.2l-1.774.28a1.823 1.823 0 01-.093.654l1.774-.28a1.589 1.589 0 00.093-.654M368.232 49.664l-1.774.28a1.35 1.35 0 00-.187.654l1.774-.28a1.35 1.35 0 01.187-.654M369.107 47.644l-1.774.28c-.093.187-.28.467-.374.654l1.774-.28c.093-.187.28-.467.374-.654M370.719 45.909l-1.774.28a2.842 2.842 0 00-.747.747l1.774-.28a2.842 2.842 0 01.747-.747M370.198 58.707l-1.774.28.56.56 1.774-.28-.56-.56M370.002 60.316a3.785 3.785 0 00.84.467l1.774-.28c-.28-.187-.56-.28-.84-.467z" class="s"/>
    <g>
      <path d="M376.375 51.806l.187 1.774h-.374l-.747-.747.093.84-.467.093-.092-1.773h.374l.747.747-.093-.84z" class="t"/>
      <path d="M375.087 48.888a3.417 3.417 0 013.455 2.241l-1.215.466a2.068 2.068 0 00-2.148-1.214 2.652 2.652 0 00-2.148 2.8 2.312 2.312 0 002.334 2.334h.093a2.29 2.29 0 001.961-1.681l1.307.187a3.909 3.909 0 01-3.172 2.897 3.655 3.655 0 01-3.827-3.455v-.187a4.041 4.041 0 013.36-4.388z" class="t"/>
      <path d="M374.621 51.985l.093 1.774-.467.093-.093-1.774z" class="t"/>
      <g>
        <path d="M374.872 45.972c3.362-.374 6.256 2.428 6.536 6.256s-2.241 7.1-5.6 7.47-6.257-2.426-6.536-6.258 2.24-7.097 5.6-7.468zm.84 12.232a5.441 5.441 0 004.482-5.883 4.982 4.982 0 00-4.947-4.949h-.187a5.441 5.441 0 00-4.482 5.883 4.982 4.982 0 004.949 4.949h.187" class="t"/>
      </g>
    </g>
    <g>
      <path d="M327.488 22.657a147.985 147.985 0 0017.088-2.708c0 .187.093.28.093.467a147.984 147.984 0 01-17.088 2.708z" class="ae"/>
      <path d="M327.583 23.165a148.145 148.145 0 0017.088-2.8 120.781 120.781 0 0013.26 33.522 151.569 151.569 0 01-16.9 6.07 140.362 140.362 0 01-13.448-36.792z" class="af"/>
      <path d="M333.045 24.086c2.428-.374 4.762-.747 7.1-1.214a4.081 4.081 0 004.949 3.081 118.719 118.719 0 009.058 22.971 3.732 3.732 0 00-2.148 4.762 2.341 2.341 0 00.374.654c-2.334.84-4.669 1.681-7 2.428a5.764 5.764 0 00-6.163-2.988 138.291 138.291 0 01-9.158-25.025 3.845 3.845 0 003.175-4.3.708.708 0 01-.187-.369z" class="j"/>
      <g>
        <path d="M336.29 40.898a4.806 4.806 0 012.427-6.256l.84-.28a6.2 6.2 0 017 3.922 4.877 4.877 0 01-2.988 6.723c-2.797.747-6.159-1.12-7.279-4.109z" class="ae"/>
      </g>
    </g>
    <g>
      <path d="M372.099 35.508a145.863 145.863 0 00-4.575-16.621l.467-.187a145.863 145.863 0 014.575 16.621z" class="ae"/>
      <path d="M372.501 35.273a145.863 145.863 0 00-4.575-16.621 123.783 123.783 0 0031.842-16.808 171.738 171.738 0 017.844 16.154 135.038 135.038 0 01-35.111 17.275z" class="af"/>
      <path d="M372.862 29.87c-.56-2.334-1.307-4.669-1.961-6.91a4.1 4.1 0 002.521-5.229 121.937 121.937 0 0021.85-11.485 3.707 3.707 0 004.949 1.587c.28-.187.467-.374.654-.467 1.121 2.241 2.148 4.482 3.175 6.723a5.672 5.672 0 00-2.334 6.443 141.52 141.52 0 01-23.815 11.86 3.734 3.734 0 00-4.669-2.615.706.706 0 00-.37.093z" class="j"/>
      <g>
        <path d="M389.219 24.739a4.772 4.772 0 01-6.537-1.774 3.317 3.317 0 01-.374-.84 6.15 6.15 0 013.082-7.377c2.708-1.4 5.883-.56 7 2.241 1.217 2.706-.277 6.35-3.171 7.75z" class="ae"/>
      </g>
    </g>
    <g>
      <g clip-path="url(#e)" transform="translate(368.217 3.729)">
        <path d="M9.33 14.077c-3.175.56-6.256-1.961-6.817-5.6s1.494-7 4.669-7.564 6.257 1.958 6.817 5.603c.654 3.642-1.4 7.1-4.669 7.564" class="q"/>
      </g>
      <path d="M370.756 12.155c-.56-3.362 1.214-6.537 4.016-7.377a2.056 2.056 0 00-.747.093c-3.175.56-5.323 3.922-4.669 7.564.56 3.642 3.642 6.163 6.817 5.6a1.35 1.35 0 00.654-.187c-2.895.093-5.509-2.334-6.07-5.7" class="r"/>
      <path d="M370.802 12.451l-1.4.187c0 .187.093.28.093.467l1.4-.187a1.015 1.015 0 01-.093-.467M370.67 11.207l-1.4.187v.467l1.4-.187v-.467M371.114 13.576l-1.4.187c.093.187.093.28.187.467l1.4-.187c-.093-.187-.093-.28-.187-.467M371.626 14.666l-1.4.187c.093.187.187.28.28.467l1.4-.187a2.041 2.041 0 01-.28-.467M370.672 10.024l-1.4.187v.467l1.4-.187v-.467M370.941 8.806l-1.4.187a1.015 1.015 0 00-.093.467l1.399-.187a4.044 4.044 0 01.094-.467M371.672 7.185l-1.4.187-.28.56 1.399-.187.28-.56M372.954 5.811l-1.4.187c-.187.187-.467.374-.654.56l1.4-.187a4.061 4.061 0 01.654-.56M372.557 16.016l-1.4.187a.932.932 0 00.467.374l1.4-.187c-.186-.094-.28-.281-.467-.374M372.422 17.276c.187.093.467.28.654.374l1.4-.187c-.186-.094-.467-.281-.654-.374z" class="s"/>
      <g>
        <path d="M377.434 10.505l.093 1.4h-.28l-.56-.654v.654h-.374l-.093-1.4h.28l.56.654v-.654z" class="t"/>
        <path d="M376.403 8.191a2.839 2.839 0 012.8 1.774l-.934.374a1.86 1.86 0 00-1.68-1.028 2.068 2.068 0 00-1.681 2.241 1.873 1.873 0 001.872 1.868h.093a2.07 2.07 0 001.587-1.307l1.027.187a2.875 2.875 0 01-2.521 2.241 2.8 2.8 0 01-2.988-2.8v-.096a2.857 2.857 0 012.425-3.454z" class="t"/>
        <path d="M376.108 10.647l.093 1.4h-.374l-.093-1.4z" class="t"/>
        <g>
          <path d="M376.23 5.86c2.708-.28 4.949 1.961 5.229 4.949a5.357 5.357 0 01-4.482 5.883c-2.708.28-4.949-1.961-5.229-4.949a5.357 5.357 0 014.482-5.883zm.654 9.711a4.242 4.242 0 003.548-4.669 3.946 3.946 0 00-3.922-3.923h-.187a4.242 4.242 0 00-3.548 4.669 3.946 3.946 0 003.922 3.922h.187" class="t"/>
        </g>
      </g>
    </g>
  </g>
  <g>
    <path fill="#2a402d" d="M301.22 323.936c0 1.587 18.862 2.8 42.207 2.8s42.207-1.214 42.207-2.8-18.862-2.8-42.207-2.8-42.207 1.307-42.207 2.8z"/>
    <path d="M366.394 314.786l-5.7 4.015a6.935 6.935 0 01-4.015 1.587l-1.485.098a1.487 1.487 0 00-1.4 1.121 1.645 1.645 0 001.4 1.961l16.9-.28s3.922-.84.747-8.311z" class="k"/>
    <path d="M345.014 194.329s7.19 56.867 9.244 68.352c1.961 11.485 12.139 52.1 12.139 52.1l6.443.187s11.766-31.281 2.988-53.038c-5.509-13.633-2.521-32.309-.28-44.821a73.551 73.551 0 00-.84-28.573l-1.121-4.949z" class="ac"/>
    <path d="M357.994 215.62c1.121 19.983 2.241 40.806 6.63 54.626a223.8 223.8 0 013.548 44.634l-1.681-.093-12.139-52.1-6.443-47.067z" class="g"/>
    <path d="M350.337 122.896l-7.75 6.817-10.739-7.284h-.093l2.428-7.75.28.187h.092l.84.467z" class="j"/>
    <path fill="#98c989" fill-rule="evenodd" d="M328.3 195.263l-4.015 57.987a50.922 50.922 0 00.467 11.3l7.283 50.237 6.443.187s10.738-32.589 6.256-49.583 18.3-70.126 18.3-70.126z"/>
    <path d="M305.142 125.044s4.2 19.516 7.937 32.122c4.109 13.913-7.283 9.618-9.431 6.163-.747-1.119-5.416-36.419-4.295-39.219z" class="l"/>
    <path d="M323.448 130.366l-19.8 32.962.467 2.334c1.4 6.817 9.9 9.711 14.847 4.856l.654-.654 15.687-18.675z" class="j"/>
    <path d="M354.819 99.645s2.8 9.151 5.042 16.715a5.863 5.863 0 01-3.922 7.283 6.11 6.11 0 01-3.175.093l-1.961-.467a7.574 7.574 0 01-5.509-5.789c-1.4-7.283-3.921-20.543-3.921-20.543l13.446 2.708z" class="l"/>
    <path d="M332.038 314.786l-5.789 4.015a6.935 6.935 0 01-4.015 1.587l-1.496.098a1.487 1.487 0 00-1.4 1.121 1.69 1.69 0 001.4 1.961l16.9-.28s3.922-.84.84-8.311z" class="k"/>
    <path d="M334.556 95.443c.187 6.163 2.334 12.886 8.311 12.7s13.54-7.283 13.353-13.446a10.879 10.879 0 10-21.757.093 1.385 1.385 0 01.093.653z" class="j"/>
    <path d="M343.894 78.728s6.91-3.175 12.606.374c7.47 4.575 8.684 14.66 3.081 24.838-1.4 2.428-7.657 1.121-9.711-.093-6.63-3.642-10.458-14.1-10.458-14.1s-15.501-9.244 4.482-11.019zM356.873 115.613s16.9-.84 19.516 12.419 1.214 35.2 2.521 44.728 3.922 24.465.84 27.826c0 0-45.008 6.163-58.548-.093 0 0 8.311-21.944 7.19-28.854-1.121-7-8.591-35.764-4.856-41.179s15.129-11.766 24.28-13.354z" class="n"/>
    <path d="M342.399 141.852l-15.78 24.558a46.693 46.693 0 01-13.54-23.718l10.925-13.166zM321.11 200.496s7-20.263 7.1-24.558a53.967 53.967 0 00-1.03-10.275l9.337-14.567s11.952 22.411 3.828 52.2c.001 0-14.006.465-19.235-2.8z" class="n"/>
    <path d="M342.124 98.432c.374 2.241 2.241 3.828 4.109 3.548s3.081-2.428 2.708-4.669-2.246-3.828-4.117-3.546-3.078 2.426-2.7 4.667z" class="l"/>
    <path d="M320.805 116.195a9.932 9.932 0 00-3.268-.84c-.934 0-1.4-.28-1.961.093-.654.374-1.307.747-1.494.56a1.267 1.267 0 01.093-1.4 3.966 3.966 0 011.961-1.494 2.758 2.758 0 011.214-.187 12.764 12.764 0 013.455 3.268z" class="j"/>
    <path d="M314.12 115.989a.7.7 0 01.093-.467c.187-.093 1.027-.56 1.4-.187-.093 0-.093.093-.187.093a2.422 2.422 0 01-1.306.561zM335.465 115.355l-3.642 7.19-.093-.093c-.467-.374-2.428-2.241-3.922-3.362-1.774-1.307-4.389-1.774-6.91-2.8a13.148 13.148 0 01-4.3-3.268l-.374-.374c-.654-.747-4.575-3.548-5.976-4.856s-3.263-2.615-2.423-3.549c.747-.84 1.4-.187 3.828 1.681 1.774 1.307 3.642 2.521 5.509 3.642a1.668 1.668 0 01.56-.934 2.46 2.46 0 011.961-.56 2.3 2.3 0 012.148-1.121c.28-1.307 2.708-1.027 3.828-.747s1.587 1.681 2.708 3.081 1.587 2.615 2.148 3.362c.467.654 1.681 1.214 3.735 2.148.093 0 .187.093.28.093h.093z" class="j"/>
    <path d="M309.174 105.405a.666.666 0 01-1.025.091.775.775 0 01-.187-1.121.739.739 0 011.027-.093c.285.282.561.562.185 1.123zM321.832 106.858h.934a3.318 3.318 0 01.934.187 6.288 6.288 0 01-.934-.093 6.288 6.288 0 00-.934-.094zM319.591 107.978a6.1 6.1 0 011.868.467c-.187 0-.374-.093-.934-.187-.56-.187-.747-.187-.934-.28zM317.163 109.566a1.327 1.327 0 00.56.187c.187.093.467.093.654.187a2.056 2.056 0 01-.747-.093 2.041 2.041 0 00-.467-.281z" class="j"/>
    <g>
      <path d="M293.843 114.558c-.747-.56-1.587-1.121-1.868-1.4a8.419 8.419 0 00-.934-.84 4.894 4.894 0 01-1.027-.934.932.932 0 011.121-.374 17.338 17.338 0 012.522 2.705 2.726 2.726 0 01.186.843z" class="j"/>
      <path d="M290.476 111.476a.417.417 0 00-.467 0 9.924 9.924 0 001.027.84c.094-.378-.187-.658-.56-.84zM288.428 106.902a1.01 1.01 0 00-1.027.654 4.685 4.685 0 001.4 1.307 18.227 18.227 0 011.961 1.961c.84 1.027 2.148 2.054 2.895 2.988a21.478 21.478 0 00-5.229-6.91z" class="j"/>
      <path d="M288.269 107.681a.6.6 0 00-.84-.093 8.652 8.652 0 001.307 1.309c.187-.375-.186-.842-.467-1.216z" class="j"/>
      <path d="M299.54 124.737c-.654-2.148-3.548-5.6-4.2-6.63a25.734 25.734 0 01-1.681-3.642 15.118 15.118 0 00-2.523-3.828c-1.121-1.4-2.708-3.455-3.268-4.015a8 8 0 01-1.588-1.961c0-.28 1.121-.747 2.428.187s10.085 14.66 10.645 16.808c.467 2.241.84 5.131.187 3.081z" class="j"/>
      <path d="M287.589 106.21a1.155 1.155 0 00-.374-1.307.9.9 0 00-.933-.278 5.411 5.411 0 001.307 1.585zM299.259 124.083c-.187-.747-.56-1.587-2.148-3.828a13.271 13.271 0 01-2.334-4.393 33.574 33.574 0 00-2.988-5.416c-.934-1.307-2.428-3.268-2.708-3.828-.374-.654-1.027-1.587-.934-1.774.187-.187 1.121-.56 2.334.56s.934 1.307 2.241 2.521a18.227 18.227 0 011.961 1.961 18.984 18.984 0 011.588 1.776c4.762 6.256 5.323 4.2 5.883 3.642a1.731 1.731 0 01.187-.654c.28-.56.187-.747.467-1.214a6.11 6.11 0 012.615-2.708c.84-.467 1.774 0 1.681.28a22.552 22.552 0 01-1.4 2.241 10.413 10.413 0 00-.467 2.895c-.467 2.334.747 4.389.187 6.63a13.115 13.115 0 000 2.708c.187.934.467 2.334.747 3.455l-6.443.374a16.327 16.327 0 00-.469-5.228z" class="j"/>
      <path d="M288.062 104.866a5.191 5.191 0 00.84 1.587 1.15 1.15 0 00-.187-.934 1.128 1.128 0 00-.653-.653zM305.653 112.093c-.093.093 0 .28.093.374a10.337 10.337 0 001.025-1.587c-.28-.094-.934.84-1.118 1.213z" class="j"/>
    </g>
  </g>
  <g>
    <path d="M408.88 285.917a.737.737 0 01-.747-.742v-59.953a.747.747 0 111.494 0v59.953a.8.8 0 01-.747.742z" class="a"/>
    <path d="M413.36 269.456a11.713 11.713 0 01-4.949-1.214.625.625 0 01-.374-.654 10.107 10.107 0 019.992-10.458 10.945 10.945 0 015.136 1.214.625.625 0 01.374.654 10.09 10.09 0 01-9.9 10.458h-.28zm-3.735-2.334a8.721 8.721 0 003.735.84 8.735 8.735 0 008.684-8.4 8.735 8.735 0 00-11.579 4.109 7.27 7.27 0 00-.84 3.455z" class="a"/>
    <path d="M404.263 269.456a10.1 10.1 0 01-10.178-10.271v-.28a.786.786 0 01.374-.654 10.289 10.289 0 0113.913 4.108 9.933 9.933 0 011.213 5.136.786.786 0 01-.374.654 9.146 9.146 0 01-4.948 1.307zm-8.591-9.991a8.591 8.591 0 008.871 8.4 7.27 7.27 0 003.455-.84 8.591 8.591 0 00-8.871-8.4 10.425 10.425 0 00-3.455.84zM413.36 248.484a11.713 11.713 0 01-4.949-1.214.625.625 0 01-.374-.654 10.245 10.245 0 019.992-10.551 10.946 10.946 0 015.136 1.214.625.625 0 01.374.654 10.164 10.164 0 01-9.991 10.458c0 .093-.093.093-.187.093zm-3.735-2.428a8.721 8.721 0 003.735.84 8.735 8.735 0 008.684-8.4 8.706 8.706 0 00-11.579 4.109 7.545 7.545 0 00-.84 3.455z" class="a"/>
    <path d="M404.263 248.482a10.1 10.1 0 01-10.178-10.271v-.28a.786.786 0 01.374-.654 10.289 10.289 0 0113.913 4.108 9.933 9.933 0 011.213 5.136.786.786 0 01-.374.654 9.146 9.146 0 01-4.948 1.307zm-8.591-9.991a8.591 8.591 0 008.871 8.4 7.27 7.27 0 003.455-.84 8.591 8.591 0 00-8.871-8.4 10.425 10.425 0 00-3.455.84z" class="a"/>
    <circle cx="12.139" cy="12.139" r="12.139" class="aj" transform="translate(396.702 202.539)"/>
    <g>
      <circle cx="9.898" cy="9.898" r="9.898" fill="#d8b237" transform="translate(398.902 204.739)"/>
    </g>
    <g>
      <path d="M404.911 231.875a.86.86 0 01-.654-1.027.86.86 0 011.027-.654.86.86 0 01.654 1.027.9.9 0 01-.84.654h-.187zm6.91-.654a.909.909 0 01.654-1.027.86.86 0 011.027.654.86.86 0 01-.654 1.027h-.187a.754.754 0 01-.84-.654zm-14.006-2.801a.769.769 0 01-.093-1.121.769.769 0 011.121-.093.769.769 0 01.093 1.121.848.848 0 01-.654.28.6.6 0 01-.467-.187zm20.823-.093a.85.85 0 01.093-1.121.989.989 0 011.214.093.85.85 0 01-.093 1.121 1.327 1.327 0 01-.56.187 1.009 1.009 0 01-.654-.28zm-25.679-5.977a.9.9 0 01.374-1.121.9.9 0 011.121.374.9.9 0 01-.374 1.121.561.561 0 01-.374.093.739.739 0 01-.747-.467zm30.626.37a.864.864 0 01-.374-1.121.864.864 0 011.121-.374.864.864 0 01.374 1.121.832.832 0 01-.747.467c-.093 0-.187-.093-.374-.093zm-32.4-8.03a.837.837 0 01.84-.84.837.837 0 01.84.84.837.837 0 01-.84.84.837.837 0 01-.84-.84zm33.616 0a.862.862 0 01.84-.934.837.837 0 01.84.84.837.837 0 01-.84.84.763.763 0 01-.84-.747zm-31.468-6.533a.864.864 0 01-.374-1.121.864.864 0 011.121-.374.864.864 0 01.374 1.121.832.832 0 01-.747.467c-.187 0-.28-.093-.374-.093zm29.881-.467a.9.9 0 01.371-1.12.9.9 0 011.121.374.9.9 0 01-.374 1.121.561.561 0 01-.374.093.952.952 0 01-.747-.467zm-25.492-5.6a.85.85 0 01.093-1.121.85.85 0 011.121.093.989.989 0 01-.093 1.214 1.327 1.327 0 01-.56.187c-.187-.093-.467-.187-.56-.374zm21.01 0a.769.769 0 01-.093-1.121.769.769 0 011.121-.093.769.769 0 01.093 1.121.848.848 0 01-.654.28.6.6 0 01-.467-.187zm-14.474-3.644a.86.86 0 01.653-1.026.86.86 0 011.027.654.86.86 0 01-.653 1.026h-.187a.818.818 0 01-.84-.654zm8.127.654a.86.86 0 01-.654-1.027.86.86 0 011.024-.653.86.86 0 01.654 1.027.9.9 0 01-.84.654h-.184z" class="a"/>
    </g>
    <g>
      <path d="M408.848 208.736a5.883 5.883 0 11-5.883 5.883 5.918 5.918 0 015.883-5.883m0-1.494a7.47 7.47 0 107.47 7.47 7.492 7.492 0 00-7.47-7.47z" class="aj"/>
      <path d="M408.037 215.744h-.56v-1.961h.56zM410.235 215.744h-.468l-.84-.934v.934h-.56v-1.961h.467l.84.934v-.934h.56z" class="aj"/>
      <path d="M411.396 215.996a2.8 2.8 0 01-3.735 1.307 2.922 2.922 0 01-1.587-2.521 2.751 2.751 0 012.8-2.8 2.812 2.812 0 012.522 1.589l1.49-.375a4.344 4.344 0 10-2.521 5.6 4.464 4.464 0 002.521-2.517z" class="aj"/>
    </g>
    <g>
      <path d="M433.961 284.65a1.669 1.669 0 00-1.867-1.68c-.374 0-43.327.374-43.327.374-.093 0-.093-.093-.187-.093a1.184 1.184 0 00-.56-.093h-.093a1.515 1.515 0 00-1.494 1.027 1.731 1.731 0 00-.187.654v.093c-1.961 8.4-3.081 17.555.28 25.679a25.448 25.448 0 006.252 9.059 18.71 18.71 0 0010.365 4.575 34.141 34.141 0 007.564 0c.467 0 .934-.093 1.494-.093a28.411 28.411 0 006.91-.56c.187 0 .374-.093.56-.093h.187c6.817-1.868 10.458-9.338 12.232-15.594 2.058-7.474 1.965-15.411 1.871-23.255zm-8.777 5.509h.187v.654a1.35 1.35 0 00-.187-.654zm1.868 21.2c.374-.934.747-1.774 1.027-2.708-.28.934-.654 1.774-1.027 2.708z" class="c"/>
    </g>
  </g>
  <g>
    <g clip-path="url(#f)" transform="translate(237.226 72.59)">
      <path d="M16.331 24.711c-5.6.934-10.925-3.455-11.952-9.9s2.612-12.23 8.212-13.164 10.925 3.548 11.952 9.9-2.609 12.231-8.212 13.164" class="q"/>
    </g>
    <path d="M241.633 87.432c-1.027-5.886 2.054-11.392 6.91-12.886-.374 0-.84.093-1.214.093-5.605.934-9.244 6.817-8.217 13.167s6.443 10.738 11.952 9.9c.374-.093.84-.187 1.214-.28-5.042.093-9.711-4.109-10.645-9.991" class="r"/>
    <path d="M241.686 87.864l-2.521.374c.093.28.093.56.187.84l2.428-.374c0-.28-.093-.56-.093-.84M241.45 85.753l-2.521.467a2.585 2.585 0 00.093.84l2.428-.374v-.933M242.237 89.826l-2.428.467.28.84 2.428-.374c-.093-.374-.187-.654-.28-.934M243.124 91.831l-2.428.374a5.212 5.212 0 00.467.747l2.428-.374a8.612 8.612 0 00-.467-.747M241.553 83.683l-2.521.374c0 .28-.093.56-.093.84l2.427-.374c.093-.28.093-.56.187-.84M242.039 81.458l-2.52.374c-.093.374-.187.654-.28.934l2.428-.374a6.438 6.438 0 00.372-.934M243.279 78.69l-2.521.467a8.676 8.676 0 00-.467.933l2.428-.374a10.185 10.185 0 01.56-1.027M245.426 76.191l-2.428.467a11.192 11.192 0 00-1.12 1.027l2.521-.467 1.027-1.027M244.844 94.124l-2.521.374.747.747 2.428-.374a5.338 5.338 0 00-.654-.747M244.474 96.308c.374.187.747.467 1.214.654l2.521-.374c-.467-.28-.84-.467-1.307-.747z" class="s"/>
    <g>
      <path d="M253.363 84.525l.187 2.428-.467.093-1.027-1.121.093 1.121-.654.187-.186-2.521.467-.093 1.027 1.12-.094-1.121z" class="t"/>
      <path d="M251.534 80.381a4.78 4.78 0 014.856 3.08l-1.681.654a3.18 3.18 0 00-2.988-1.774 3.608 3.608 0 00-2.988 3.922 3.308 3.308 0 003.268 3.268h.093a3.331 3.331 0 002.708-2.334l1.774.28a5.165 5.165 0 01-4.389 4.015 5.167 5.167 0 01-5.321-4.856v-.187a5.657 5.657 0 014.668-6.068z" class="t"/>
      <path d="M250.954 84.771l.186 2.428-.747.093-.093-2.428z" class="t"/>
      <path d="M251.303 76.37c4.669-.467 8.777 3.362 9.058 8.591s-3.175 9.9-7.844 10.365-8.778-3.365-9.057-8.594 3.174-9.898 7.843-10.362zm1.121 16.995c3.735-.374 6.443-4.109 6.163-8.217s-3.548-7.19-7.19-6.817c-3.735.374-6.443 4.015-6.163 8.217.28 4.109 3.455 7.19 7.19 6.817" class="t"/>
    </g>
  </g>
  <g>
    <path d="M233.517 181.805v2.8a1.436 1.436 0 01-1.4 1.4h-2.055v-4.2a1.436 1.436 0 011.4-1.4h.654a1.375 1.375 0 011.4 1.4z" class="ae"/>
    <path d="M233.893 181.809v4.2h-3.455v-4.2a1.436 1.436 0 011.4-1.4h.654a1.375 1.375 0 011.4 1.4z" class="ae"/>
    <path d="M232.001 183.022a.921.921 0 00.934-.84.888.888 0 00-1.773-.094.773.773 0 00.84.934zM238.827 188.108l-.187 15.314a2.094 2.094 0 01-2.148 2.054h-10.364c-1.121 0-1.681-.934-1.681-2.054l.187-15.408a2.094 2.094 0 012.147-2.054l9.991.093a2.073 2.073 0 012.055 2.055z" class="ae"/>
    <path d="M237.894 189.078l-.093 13.726a1.873 1.873 0 01-1.868 1.868l-9.151-.093c-1.027 0-1.494-.84-1.494-1.868l.187-13.726a1.873 1.873 0 011.867-1.868l8.777.093a1.74 1.74 0 011.774 1.868z" class="c"/>
    <path d="M230.159 200.183l.093-10.739a1.357 1.357 0 011.401-1.307h4.2a1.357 1.357 0 011.306 1.4l-.09 10.739a1.357 1.357 0 01-1.4 1.307h-4.2a1.419 1.419 0 01-1.31-1.4zM219.317 196.726a45.818 45.818 0 00.84-7.19h.187a62.831 62.831 0 01-.84 7.19z" class="ae"/>
    <path d="M219.511 196.681a45.818 45.818 0 00.84-7.19 48.182 48.182 0 0015.034-1.494 66.843 66.843 0 01.467 7.47 56.832 56.832 0 01-16.341 1.214z" class="ae"/>
    <path d="M220.483 194.647c.093-1.027.28-2.054.374-2.988a1.768 1.768 0 001.867-1.685 47.337 47.337 0 0010.272-1.027 1.559 1.559 0 001.681 1.4.343.343 0 00.28-.093c.093 1.027.187 2.054.187 3.081a2.385 2.385 0 00-1.868 2.148 55.19 55.19 0 01-11.112.84 1.649 1.649 0 00-1.401-1.776c-.187.1-.187.1-.28.1z" class="j"/>
    <g>
      <path d="M227.656 195.233a1.885 1.885 0 01-2.241-1.68v-.374a2.525 2.525 0 012.334-2.426 2.018 2.018 0 012.334 1.681v.28a2.626 2.626 0 01-2.427 2.519z" class="ae"/>
    </g>
    <g>
      <path d="M218.96 193.343a60.173 60.173 0 003.175-6.536l.187.093c-.934 2.241-1.962 4.389-3.082 6.537z" class="ae"/>
      <path d="M219.14 193.409a46.158 46.158 0 003.081-6.536 49.263 49.263 0 0014.66 3.362 52.645 52.645 0 01-1.961 7.283 54.674 54.674 0 01-15.78-4.109z" class="ae"/>
      <path d="M220.706 191.764c.467-.934.84-1.774 1.307-2.708a1.721 1.721 0 002.241-.934 46.537 46.537 0 0010.085 2.334 1.527 1.527 0 001.121 1.866h.28c-.28 1.027-.56 1.961-.84 2.988a2.589 2.589 0 00-2.521 1.4 53.463 53.463 0 01-10.738-2.8 1.681 1.681 0 00-.747-2.148z" class="j"/>
      <path d="M227.298 194.661a2.05 2.05 0 01-1.585-2.337c0-.187.093-.28.093-.374a2.642 2.642 0 012.986-1.489 2.018 2.018 0 011.681 2.33.343.343 0 01-.093.28 2.659 2.659 0 01-3.082 1.59z" class="ae"/>
    </g>
    <g>
      <path d="M220.272 187.174a68.2 68.2 0 006.35-3.362l.093.187a46.1 46.1 0 01-6.35 3.362z" class="ae"/>
      <path d="M220.371 187.325a46.1 46.1 0 006.35-3.362 52.392 52.392 0 009.8 11.485 56.1 56.1 0 01-5.883 4.669 56.738 56.738 0 01-10.267-12.792z" class="ae"/>
      <path d="M222.594 187.01c.934-.467 1.774-.934 2.615-1.4a1.778 1.778 0 002.428.56 49.591 49.591 0 006.723 7.94 1.5 1.5 0 00-.187 2.148c.093.093.093.187.187.187-.84.654-1.587 1.307-2.428 1.961a2.543 2.543 0 00-2.895-.374 52.806 52.806 0 01-7-8.684 1.644 1.644 0 00.654-2.148c-.003-.096-.003-.19-.097-.19z" class="j"/>
      <g>
        <path d="M226.195 193.209a2.03 2.03 0 01.093-2.8c.093-.093.187-.187.28-.187a2.556 2.556 0 013.268.56 2.057 2.057 0 01-.093 2.895l-.187.187a2.634 2.634 0 01-3.361-.655z" class="ae"/>
      </g>
    </g>
    <g>
      <g class="am">
        <path d="M228.487 197.917a2.181 2.181 0 01-2.708 1.119 2.051 2.051 0 01-1.027-2.708 2.181 2.181 0 012.713-1.12c.093 0 .187.093.28.093a2.038 2.038 0 01.742 2.616" class="q"/>
      </g>
      <path d="M225.831 198.401a2.008 2.008 0 01-.933-2.334.326.326 0 00-.093.187 1.893 1.893 0 001.12 2.613 2.041 2.041 0 002.428-.654c0-.093.093-.093.093-.187a2.023 2.023 0 01-2.615.374" class="r"/>
      <path d="M225.943 198.401l-.187.374a.091.091 0 01.093.093l.187-.374a.091.091 0 01-.093-.093M225.647 198.209l-.28.374.093.093.187-.374v-.093M226.268 198.545l-.187.374h.187l.187-.374c-.093.093-.187.093-.187 0M226.621 198.637l-.187.374h.187l.187-.374c-.093.093-.093.093-.187 0M225.384 197.967l-.28.374.093.093.187-.374v-.093M225.15 197.666l-.28.374.093.093.187-.374v-.093M224.93 197.203l-.28.374c0 .093 0 .093.093.187l.187-.374v-.187M224.843 196.655l-.28.374v.28l.187-.374a.343.343 0 00.093-.28M227.096 198.742l-.187.374h.187l.187-.467a.326.326 0 01-.187.093M227.366 198.969a.326.326 0 00.187-.093l.28-.374a.326.326 0 00-.187.093z" class="s"/>
      <g>
        <path d="M226.793 196.52l.374.28h-.374l.187.093-.094.187-.28-.28.093-.093h.28l-.28-.093z" class="t"/>
        <path d="M226.031 196.251a.845.845 0 01.933-.278l-.093.28a.449.449 0 00-.56.187.608.608 0 00.187.84.6.6 0 00.84-.093.8.8 0 000-.654l.187-.187a1.022 1.022 0 01.093 1.027.753.753 0 01-1.214.187.945.945 0 01-.373-1.309z" class="t"/>
        <path d="M226.507 196.868l.374.28-.093.093-.28-.28z" class="t"/>
        <path d="M225.488 195.892a1.492 1.492 0 012.148-.28h.093a1.516 1.516 0 11-1.681 2.523h-.093a1.654 1.654 0 01-.467-2.243zm2.334 1.68a1.216 1.216 0 00-.374-1.681 1.124 1.124 0 00-1.681.187 1.329 1.329 0 00.374 1.774 1.2 1.2 0 001.681-.28" class="t"/>
      </g>
    </g>
    <g>
      <path d="M242.319 191.231l-2.055 12.325a2.073 2.073 0 01-2.054 2.054l-12.139-.093 2.054-14.847a1.6 1.6 0 011.681-1.587l10.552.093a2.056 2.056 0 011.961 2.055z" class="ae"/>
      <path fill="#83c0de" d="M239.164 204.601a1.327 1.327 0 01-.56.187c-.093 0-.093 0-.093-.093s0-.093.093-.093a.713.713 0 00.467-.187h.093v.187zm.467-.84s-.093.093-.093 0c0 0-.093-.093 0-.093v-.187l.093-.374a.091.091 0 01.093-.093.091.091 0 01.093.093l-.093.374c0 .093-.093.187-.093.28zm-1.961 1.026h-.654c-.093 0-.093 0-.093-.093s0-.093.093-.093h.56c.093 0 .093 0 .093.187zm2.241-2.521c-.093 0-.093.093 0 0-.093 0-.187 0-.187-.093l.093-.56a.0935.0935 0 11.187 0l-.093.654zm-3.735 2.521h-.654c-.093 0-.093 0-.093-.093s0-.093.093-.093h.56s.093 0 .093.187zm3.922-4.015c-.093 0-.187 0-.187-.093l.093-.56a.091.091 0 01.093-.093.091.091 0 01.093.093l-.093.654zm.28-1.494s-.093.093-.093 0c0 0-.093-.093 0-.093l.093-.56a.091.091 0 01.093-.093.091.091 0 01.093.093l-.187.654zm-5.79 5.416h-.65c-.093 0-.093 0-.093-.093s0-.093.093-.093h.56c.093.093.187.093.093.187zm6.07-6.91h-.093v-.093l.093-.56a.091.091 0 01.093-.093.091.091 0 01.093.093l-.187.654zm-7.564 6.91h-.656c-.093 0-.093 0-.093-.093s0-.093.093-.093h.56c.093.093.187.093.093.187zm7.75-8.4c-.093 0-.187 0-.187-.093l.093-.56a.0935.0935 0 11.187 0l-.093.654zm-9.244 8.4h-.654c-.093 0-.093 0-.093-.093s0-.093.093-.093h.56c.093 0 .093.093.093.187zm9.524-9.9c-.093 0-.187 0-.187-.093l.093-.56a.091.091 0 01.095-.094.091.091 0 01.093.093l-.093.654zm-11.019 9.9h-.652c-.093 0-.093 0-.093-.093s0-.093.093-.093h.56c.093 0 .093.093.093.187zm11.3-11.392h-.093v-.093l.093-.56a.0935.0935 0 01.187 0l-.187.654zm-12.886 11.392h-.654a.0935.0935 0 110-.187h.56c.093 0 .187.093.093.187.093-.093.093 0 0 0zm13.073-12.886c-.093 0-.187 0-.187-.093l.093-.56h.187l-.093.654zm-.187-1.4h-.093a2.041 2.041 0 00-.467-.28.091.091 0 01-.093-.093.091.091 0 01.093-.093l.56.28v.185zm-14.193 13.726h-.187a1.327 1.327 0 01-.187-.56c0-.093 0-.093.093-.093s.093 0 .093.093a.713.713 0 00.187.467c.093 0 .093 0 0 .093zm0-1.494c-.093 0-.187 0-.187-.093l.093-.56a.0935.0935 0 11.187 0l-.093.654zm12.7-12.606h-.654c0 .093-.093 0-.093 0 0-.093 0-.093.093-.093h.56c.093 0 .093 0 .093.093zm-12.514 11.113h-.093v-.093l.093-.56a.0935.0935 0 11.187 0l-.187.653zm11.019-11.113h-.654c-.093 0-.093 0-.093-.093s0-.093.093-.093h.56c.093.093.093.093.093.187zm-10.739 9.613c-.093 0-.187 0-.187-.093l.093-.56a.091.091 0 01.093-.093.091.091 0 01.093.093l-.092.653zm9.244-9.618h-.654c-.093 0-.093 0-.093-.093s0-.093.093-.093h.56c.093 0 .093.093.093.187zm-9.057 8.129c-.093 0-.187 0-.187-.093l.093-.56a.091.091 0 01.093-.093.091.091 0 01.093.093l-.093.654zm7.473-8.124h-.654c-.093 0-.093 0-.093-.093s0-.093.093-.093h.56c.093 0 .187.093.093.187.093-.093.093 0 0 0zm-7.283 6.63c-.093 0-.187 0-.187-.093l.093-.56a.0935.0935 0 01.187 0l-.093.654zm5.783-6.63h-.65c-.093 0-.093 0-.093-.093s0-.093.093-.093h.56c.093 0 .093.093.093.187zm-5.506 5.136c-.093 0-.187 0-.187-.093l.093-.56a.091.091 0 01.093-.093.091.091 0 01.093.093l-.093.654zm4.015-5.136h-.654c-.093 0-.093 0-.093-.093s0-.093.093-.093h.56c.093 0 .093 0 .093.187zm-3.828 3.548h-.094v-.093l.093-.56a.091.091 0 01.093-.093.091.091 0 01.093.093l-.187.654zm.187-1.494c-.093 0-.187 0-.187-.093l.093-.56a.091.091 0 01.093-.093.091.091 0 01.093.093l-.093.654zm2.148-2.054h-.654c-.093 0-.093 0-.093-.093s0-.093.093-.093h.56s.093 0 .093.187zm-1.868.56h-.094v-.093c0-.187.187-.28.28-.467h.093v.093c-.093.187-.187.28-.28.467z"/>
    </g>
    <g>
      <g class="am">
        <path d="M228.602 181.756a2.181 2.181 0 01-2.708 1.119 2.051 2.051 0 01-1.027-2.708 2.181 2.181 0 012.713-1.12c.093 0 .187.093.28.093a2.068 2.068 0 01.742 2.616" class="q"/>
      </g>
      <path d="M225.945 182.241a2.008 2.008 0 01-.933-2.334c0 .093-.093.093-.093.187a2.094 2.094 0 001.12 2.708 2.041 2.041 0 002.428-.654c0-.093.093-.093.093-.187a2.108 2.108 0 01-2.615.28" class="r"/>
      <path d="M226.057 182.334l-.187.374h.093l.187-.374h-.093M225.763 182.143l-.28.28c.093.093.093.093.187.093l.187-.373h-.094M226.385 182.478l-.187.374h.093l.187-.374h-.093M226.734 182.572l-.187.374h.093l.187-.374h-.093M225.495 181.807l-.28.374.187.187.187-.374c-.094-.094-.094-.094-.094-.187M225.261 181.508l-.28.374.093.093.187-.374v-.093M225.044 181.045l-.28.374c0 .093 0 .093.093.187l.187-.374v-.187M224.957 180.495l-.28.374v.28l.187-.374a.343.343 0 00.093-.28M227.207 182.583l-.187.374h.187l.187-.374h-.187M227.479 182.902a.289.289 0 01.187-.093l.187-.374a.326.326 0 00-.187.093z" class="s"/>
      <path d="M226.907 180.359l.374.28-.093.093h-.28l.187.093v.094l-.375-.28.093-.093h.28l-.28-.093z" class="t"/>
      <path d="M226.147 180.185a.726.726 0 01.934-.28l-.093.28a.449.449 0 00-.56.187.608.608 0 00.187.84.6.6 0 00.84-.093.8.8 0 000-.654l.187-.187a1.022 1.022 0 01.092 1.032.885.885 0 01-1.214.187.985.985 0 01-.373-1.312z" class="t"/>
      <path d="M226.623 180.708l.374.28v.093l-.374-.28z" class="t"/>
      <g>
        <path d="M225.6 179.731a1.492 1.492 0 012.148-.28h.093a1.516 1.516 0 11-1.681 2.523h-.093a1.654 1.654 0 01-.467-2.243zm2.334 1.774a1.309 1.309 0 00-.374-1.774 1.2 1.2 0 00-1.681.187 1.309 1.309 0 00.374 1.774 1.182 1.182 0 001.681-.187" class="t"/>
      </g>
    </g>
    <g>
      <g clip-path="url(#i)" transform="translate(218.977 199.464)">
        <path d="M4.379 2.549A1.994 1.994 0 012.325 4.51 2.14 2.14 0 01.364 2.362 1.965 1.965 0 012.512.402h.28A1.8 1.8 0 014.379 2.55" class="q"/>
      </g>
      <path d="M221.039 203.324a1.911 1.911 0 01-1.681-1.868c0 .093 0 .093-.093.187a2.037 2.037 0 002.054 2.147 2.138 2.138 0 002.054-1.4v-.187a1.97 1.97 0 01-2.334 1.121" class="r"/>
      <path d="M221.162 203.399l-.093.374h.187l.093-.374h-.187M220.814 203.321l-.093.374h.093l.094-.467a.091.091 0 01-.093.093M221.512 203.419l-.093.374h.187l.093-.374h-.187M221.874 203.357l-.093.467h.187l.093-.467h-.187M220.481 203.185l-.093.374a.091.091 0 01.093.093l.094-.467h-.094M220.162 202.981l-.093.374.093.093.094-.467h-.094M219.794 202.629l-.093.374c0 .093.093.093.093.187l.093-.467a.091.091 0 01-.093-.094M219.524 202.047l-.093.467c0 .093.093.187.093.28l.093-.467a.343.343 0 01-.093-.28M222.33 203.268l-.093.374c.093 0 .093-.093.187-.093l.093-.374a.289.289 0 00-.187.093M222.732 203.423c0-.093.093-.093.187-.187v-.373a.326.326 0 01-.187.093z" class="s"/>
      <g>
        <path d="M221.281 201.255l.374.093v.093l-.187.094.187.093v.093l-.467-.092v-.094l.28-.093-.187-.093z" class="t"/>
        <path d="M220.494 201.368a.9.9 0 01.746-.654v.28a.62.62 0 00-.467.374.71.71 0 00.56.747.635.635 0 00.747-.374c0-.187 0-.467-.187-.56l.187-.28a.888.888 0 01.374.934 1.011 1.011 0 01-1.214.56.925.925 0 01-.746-1.027z" class="t"/>
        <path d="M221.146 201.665l.374.093v.093l-.374-.093z" class="t"/>
        <g>
          <path d="M219.833 201.115a1.556 1.556 0 011.865-1.024h.093a1.587 1.587 0 011.214 1.864 1.571 1.571 0 01-1.872 1.121l-.093-.093a1.587 1.587 0 01-1.207-1.868zm2.895.84a1.323 1.323 0 00-1.03-1.494 1.148 1.148 0 00-1.494.747 1.214 1.214 0 00.929 1.494 1.21 1.21 0 001.587-.747" class="t"/>
        </g>
      </g>
    </g>
  </g>
</svg>
