<svg xmlns="http://www.w3.org/2000/svg" xmlns:xlink="http://www.w3.org/1999/xlink" viewBox="0 0 303.935 187.24"><defs><style>.a{fill:#97ce89;}.b{fill:#45bf55;}.c{fill:#1a1818;}.d{fill:#c9e4be;}.e,.t{fill:#fff;}.f{fill:#54ac42;}.g{opacity:0.43;}.h{fill:#8fc474;}.i{fill:#9a9a99;}.j{fill:#1a1718;}.k{fill:#58ac34;}.l{fill:#2e8039;}.m{clip-path:url(#a);}.n{fill:#ffce33;}.o{fill:#f4af00;}.p{fill:#d69515;}.q{fill:#e1a10f;}.r{clip-path:url(#b);}.s{clip-path:url(#d);}.t{stroke:#58ac34;stroke-miterlimit:10;stroke-width:0.5px;}.u{fill:#040505;}.v{fill:#262626;}.w{fill:#5cb24c;}</style><clipPath id="a"><rect width="13.1" height="12.5" transform="translate(0.837 9.834) rotate(-85.122)"/></clipPath><clipPath id="b"><rect width="12.5" height="13.1" transform="matrix(0.935, -0.355, 0.355, 0.935, 0.786, 1.269)"/></clipPath><clipPath id="d"><rect width="12.5" height="13.1" transform="translate(0.793 1.581) rotate(-10.673)"/></clipPath></defs><g transform="translate(-0.8 0.734)"><path class="a" d="M204.1,38.3c-44.3.4-41.1,55.4-68.9,59,0,0,8.9,24.1,44.7,33.5s81.4-3.6,81.4-3.6C243.9,120.2,248.4,37.9,204.1,38.3Z"/><g transform="translate(109.224 81.333)"><path class="b" d="M78.6,16.8C55.7,12.3,58.9-.1,40.9-2.9S10.5,12.1.8,24.4c0,0,10.5,20.5,70.2,37.3S186.3,46.3,186.3,46.3c-2.6-5.3-20.2-33-52.5-39.3S101.6,21.3,78.6,16.8Z"/></g><path class="c" d="M190.6,83.8c-16.2-12.1-47.9,6.5-64.4-8.9s-23-21.3-42.4-21.3c-35,0-40.9,74.2-67.3,74.2,0,0,222.9-.5,225.6-.2C218.7,121.7,206.9,95.9,190.6,83.8Z"/><path class="d" d="M287.6,146.1h-36a9.757,9.757,0,0,0-6.9,2.8,9.164,9.164,0,0,0-2.9,6.6,9.6,9.6,0,0,1-9.8,9.4H188a11.435,11.435,0,0,0-8,3.2,10.614,10.614,0,0,0-3.3,7.6,10.993,10.993,0,0,1-11.3,10.8H114.9a8.468,8.468,0,0,1-6-2.4,7.887,7.887,0,0,1-2.5-5.7,8.282,8.282,0,0,0-8.5-8.1H60.3a9,9,0,0,1-6.4-2.6,8.415,8.415,0,0,1-2.7-6.1,8.335,8.335,0,0,0-2.3-5.8,9.223,9.223,0,0,0-6.8-2.9H14.7A13.617,13.617,0,0,1,.8,139.6v-10a6.125,6.125,0,0,1,6.2-6H298.5C310.2,123.7,304.8,146.1,287.6,146.1Z"/><g transform="translate(68.443 19.93)"><rect class="e" width="18.5" height="12.7" transform="translate(68.8 91.6)"/><rect class="f" width="18.5" height="5.2" transform="translate(68.8 91.6)"/><path class="e" d="M51.7,101.7h52.6a4.439,4.439,0,0,1,4.4,4.4H47.4a4.291,4.291,0,0,1,4.3-4.4Z"/><path class="f" d="M7.9-3.2H148.2a7.127,7.127,0,0,1,7.1,7.1V85a7.127,7.127,0,0,1-7.1,7.1H7.9A7.127,7.127,0,0,1,.8,85V3.9A7.127,7.127,0,0,1,7.9-3.2Z"/><path class="e" d="M10.9.1H145.2a6.487,6.487,0,0,1,6.5,6.5V82.1a6.487,6.487,0,0,1-6.5,6.5H10.9a6.487,6.487,0,0,1-6.5-6.5V6.6A6.487,6.487,0,0,1,10.9.1Z"/></g><g class="g" transform="translate(78.015 85.406)"><rect class="h" width="1.6" height="17.9" transform="translate(0.8 5.7)"/><rect class="h" width="1.6" height="11.4" transform="translate(3.6 12.2)"/><rect class="h" width="1.6" height="10.4" transform="translate(6.4 13.2)"/><rect class="h" width="1.6" height="10.3" transform="translate(9.2 13.3)"/><rect class="h" width="1.6" height="9" transform="translate(12 14.7)"/><rect class="h" width="1.6" height="7.8" transform="translate(14.8 15.8)"/><rect class="h" width="1.6" height="6.5" transform="translate(17.6 17.1)"/><rect class="h" width="1.6" height="6" transform="translate(20.4 17.6)"/><rect class="h" width="1.6" height="7.7" transform="translate(23.2 15.9)"/><rect class="h" width="1.6" height="7.4" transform="translate(26 16.2)"/><rect class="h" width="1.6" height="6.3" transform="translate(28.8 17.3)"/><rect class="h" width="1.6" height="4.7" transform="translate(31.6 18.9)"/><rect class="h" width="1.6" height="3.8" transform="translate(34.4 19.8)"/><rect class="h" width="1.6" height="2.2" transform="translate(37.2 21.4)"/><rect class="h" width="1.6" height="3.4" transform="translate(40 20.2)"/><rect class="h" width="1.6" height="5.3" transform="translate(42.8 18.3)"/><rect class="h" width="1.6" height="2.9" transform="translate(45.6 20.7)"/><rect class="h" width="1.6" height="10.4" transform="translate(48.4 13.2)"/><rect class="h" width="1.6" height="16" transform="translate(51.2 7.6)"/><rect class="h" width="1.6" height="10" transform="translate(54 13.6)"/><rect class="h" width="1.6" height="11.6" transform="translate(56.8 12)"/><rect class="h" width="1.6" height="12.3" transform="translate(59.6 11.3)"/><rect class="h" width="1.6" height="13.3" transform="translate(62.4 10.3)"/><rect class="h" width="1.6" height="14.3" transform="translate(65.2 9.3)"/><rect class="h" width="1.6" height="16.9" transform="translate(67.9 6.7)"/><rect class="h" width="1.6" height="17.9" transform="translate(70.7 5.7)"/><rect class="h" width="1.6" height="20.3" transform="translate(76.3 3.3)"/><rect class="h" width="1.6" height="19.5" transform="translate(79.1 4.1)"/><rect class="h" width="1.6" height="20.6" transform="translate(81.9 3)"/><rect class="h" width="1.6" height="21.9" transform="translate(84.7 1.7)"/><rect class="h" width="1.6" height="22.9" transform="translate(87.5 0.7)"/><rect class="h" width="1.6" height="24" transform="translate(90.3 -0.4)"/><rect class="h" width="1.6" height="26.8" transform="translate(93.1 -3.2)"/><rect class="h" width="1.6" height="20.5" transform="translate(95.9 3.1)"/><rect class="h" width="1.6" height="23.3" transform="translate(98.7 0.3)"/><rect class="h" width="1.6" height="20.5" transform="translate(101.5 3.1)"/><rect class="h" width="1.6" height="14.9" transform="translate(104.3 8.7)"/><rect class="h" width="1.6" height="12.3" transform="translate(107.1 11.4)"/><rect class="h" width="1.6" height="12.1" transform="translate(109.9 11.5)"/><rect class="h" width="1.6" height="14.1" transform="translate(112.7 9.5)"/><rect class="h" width="1.6" height="17.9" transform="translate(115.5 5.7)"/><rect class="h" width="1.6" height="19.6" transform="translate(118.3 4)"/><rect class="h" width="1.6" height="16.4" transform="translate(121.1 7.2)"/><rect class="h" width="1.6" height="16" transform="translate(123.9 7.6)"/><rect class="h" width="1.6" height="14.9" transform="translate(126.7 8.7)"/><rect class="h" width="1.6" height="17.9" transform="translate(129.5 5.7)"/><rect class="h" width="1.6" height="14.6" transform="translate(132.3 9)"/><rect class="h" width="1.6" height="12.1" transform="translate(135.1 11.5)"/><rect class="h" width="1.6" height="17.9" transform="translate(137.9 5.7)"/></g><g transform="translate(108.417 28.062)"><path class="e" d="M73.4,5.6,73,61.2a7.983,7.983,0,0,1-1.4,4.5,2.651,2.651,0,0,1-.5.6,8.2,8.2,0,0,1-6.5,3L9,68.9A8.258,8.258,0,0,1,.8,60.6L1.3,5A8.258,8.258,0,0,1,9.6-3.2h0l55.6.4a8.411,8.411,0,0,1,8.2,8.4Z"/><g transform="translate(0.003 36.76)"><path d="M71.9,4.7l-.1,17.1L70,28.3a8.315,8.315,0,0,1-6.4,3l-31.3-.2L.8,22.2,1-.7A16.88,16.88,0,0,1,9.7-3.2a16.352,16.352,0,0,1,2.2.2c5.7,1,8,3.7,10.5,6.5a22.9,22.9,0,0,0,13.5,8.1c6.2,1.4,9.9-.3,13.7-2.5C54.9,6.1,60.1,2.2,71.9,4.7Z"/></g><g transform="translate(2.484 42.743)"><path class="h" d="M70.6-3.1l-.2,21.6a8.258,8.258,0,0,1-8.3,8.2h0L6.5,26.2A8.2,8.2,0,0,1,.8,23.8C4,16,7.9,6.1,15.9,4.2a4.844,4.844,0,0,1,1.8-.3c4.7-.4,7.1,1.2,9.8,2.8A19.073,19.073,0,0,0,40,10.2c5.2-.2,7.8-2.4,10.3-5,3.6-3.6,6.9-7.9,17.3-8.4C68.5-3.2,69.6-3.2,70.6-3.1Z"/></g><g transform="translate(0 36.275)"><path class="f" d="M71.5,29.4a8.363,8.363,0,0,1-6.9,3.7L9,32.6A8.258,8.258,0,0,1,.8,24.3L1-3.2a11.433,11.433,0,0,1,3.2.7C12.4.4,10.8,6.1,18.3,10.7a16.153,16.153,0,0,0,3.5,1.7,12.91,12.91,0,0,0,8,.8c6.1-1.3,10.7-6.4,22.6-1.6l.1.1C62.1,15.5,68.1,23.1,71.5,29.4Z"/></g><g transform="translate(18.575 23.29)"><path class="e" d="M27.3-.1,19.5,4.8,19.4,26l15.2.1L34.7,5Z"/><rect class="i" width="21.1" height="5.1" transform="translate(14.229 25.979) rotate(-89.547)"/><path class="j" d="M27.3-.1c-6.5-.1-3.6-1-12.9,4.9C20.9,4.9,18,5.8,27.3-.1Z"/><path class="k" d="M25.5,10.4c0,3.7-.5,3,1.6,3C27.1,9.6,27.6,10.4,25.5,10.4Z"/><path class="k" d="M25.4,17.6c0,3.7-.5,3,1.6,3C27.1,16.8,27.5,17.6,25.4,17.6Z"/><path class="e" d="M19.4,26l.1-10.6L6.2,15.3,6.1,29.8Z"/><path class="i" d="M.8,29.7H6.1c.1-17.3.8-12.6-2.4-21.5C.2,17.1,1,12.4.8,29.7Z"/><path class="j" d="M19.5,15.4,17,8.3,3.7,8.2l2.5,7.1Z"/><path class="k" d="M13.6,25.9c0-4.8.6-4-1.6-4C11.9,26.7,11.4,25.9,13.6,25.9Z"/><path class="k" d="M4.3,25.9c0-4.8.6-4-1.6-4C2.7,26.7,2.1,25.8,4.3,25.9Z"/><path class="e" d="M19-3.2V4c2.5-1.6,1.8,0,1.9-7.2Z"/><rect class="i" width="7.2" height="1.7" transform="translate(17.316 3.941) rotate(-89.547)"/></g></g><g transform="translate(49.095 56.341)"><g transform="translate(98.861)"><path class="l" d="M47.4,9.6,11.5,54H.8L41.3,4.9Z"/><path class="l" d="M52.7-3.2,37.4,2.6,50.1,13Z"/></g><path class="l" d="M110.3,54l-33-29.6H67.4L99.7,54Z"/><path class="l" d="M77.3,24.3,51.6,63H42.5L67.4,24.4h9.9Z"/><path class="l" d="M42.5,63h9.1S35.5,42.9,35.1,42.9h-8Z"/><path class="l" d="M35,42.8,7.2,96.1H.8L27,42.8Z"/></g><g transform="translate(52.214 62.806)"><g class="m"><g transform="translate(1.903 0.59)"><path class="n" d="M5.9,9.6C2.8,9.3.6,6.3.9,2.8S3.9-3.4,7-3.1,12.3.2,12,3.7,9,9.8,5.9,9.6"/></g></g><path class="o" d="M2.8,3.3A6.205,6.205,0,0,1,8.2-2.6c-.2,0-.5-.1-.7-.1C4.4-3,1.7-.3,1.4,3.2s2,6.6,5,6.8h.7A6.071,6.071,0,0,1,2.8,3.3"/><path class="p" d="M2.7,3.5,1.4,3.4v.5L2.7,4V3.5"/><path class="p" d="M2.9,2.4,1.5,2.3a4.331,4.331,0,0,0-.1.5l1.4.1c0-.2.1-.3.1-.5"/><path class="p" d="M2.8,4.7,1.4,4.6a.9.9,0,0,0,.1.5l1.4.1a1.087,1.087,0,0,1-.1-.5"/><path class="p" d="M3,5.9,1.6,5.7c0,.2.1.3.2.5l1.4.1A.758.758,0,0,1,3,5.9"/><path class="p" d="M3.2,1.3,1.9,1.2c-.1.1-.1.3-.2.4l1.4.1c0-.1.1-.3.1-.4"/><path class="p" d="M3.8.2,2.4.1a.758.758,0,0,0-.2.4L3.6.6A.758.758,0,0,1,3.8.2"/><path class="p" d="M4.8-1.1,3.5-1.2c-.2.1-.3.3-.5.4l1.4.1.4-.4"/><path class="p" d="M6.3-2.1,4.9-2.2a5.736,5.736,0,0,0-.7.4l1.4.1a2.506,2.506,0,0,1,.7-.4"/><path class="p" d="M3.6,7.3,2.2,7.2c.1.2.2.3.3.5l1.4.1c-.1-.2-.2-.3-.3-.5"/><path class="p" d="M3.1,8.4l.5.5L5,9a1.205,1.205,0,0,1-.5-.5Z"/><g transform="translate(2.867 1.91)"><g transform="translate(1.962 2.171)"><g transform="translate(2.368 2.287)"><path class="q" d="M2.2-3,2-1.7H1.7l-.4-.7-.1.6L.8-1.9,1-3.2h.3l.4.7.1-.6Z"/></g><path class="q" d="M4.2-3.2A2.767,2.767,0,0,1,6.4-.9l-1,.1A1.84,1.84,0,0,0,4-2.1,1.979,1.979,0,0,0,1.9-.4,1.827,1.827,0,0,0,3.2,1.8h.1A1.965,1.965,0,0,0,5,.9l.9.4A2.919,2.919,0,0,1,3.1,2.8,2.829,2.829,0,0,1,.9-.5h0V-.6A3.085,3.085,0,0,1,4.2-3.2Z"/></g><g transform="translate(3.767 4.38)"><path class="q" d="M1.4-3.1,1.2-1.8.8-1.9,1-3.2Z"/></g><path class="q" d="M6.5-3.2a4.713,4.713,0,0,1,3.7,5.6h0v.2A5.276,5.276,0,0,1,4.6,7.1,4.9,4.9,0,0,1,.9,1.5V1.3A5.325,5.325,0,0,1,6.5-3.2ZM4.8,6A4.092,4.092,0,0,0,9.2,2.5,3.784,3.784,0,0,0,6.4-2.1H6.2A4.04,4.04,0,0,0,1.9,1.4,3.862,3.862,0,0,0,4.7,6h.1"/></g></g><g transform="translate(216.062 20.121)"><g class="r"><g transform="translate(3.086 1.677)"><path class="n" d="M8.8,9.1c-2.9,1.1-6.2-.7-7.5-4s.1-6.9,3-8,6.2.7,7.5,4-.1,6.9-3,8"/></g></g><path class="o" d="M4.4,6.8A6.265,6.265,0,0,1,6.7-.9a1.421,1.421,0,0,0-.6.2C3.2.4,1.9,4,3.1,7.3s4.6,5.1,7.5,4l.6-.3A6.177,6.177,0,0,1,4.4,6.8"/><path class="p" d="M4.5,7l-1.3.5c.1.1.1.3.2.4l1.3-.5A.758.758,0,0,1,4.5,7"/><path class="p" d="M4.1,5.9l-1.3.5c0,.1.1.3.1.4l1.3-.5c0-.1-.1-.3-.1-.4"/><path class="p" d="M5,8l-1.3.5c.1.1.2.3.3.4l1.3-.5c-.1-.1-.2-.3-.3-.4"/><path class="p" d="M5.7,9l-1.3.5a1.38,1.38,0,0,1,.3.4L6,9.3,5.7,9"/><path class="p" d="M3.9,4.7l-1.2.5v.5L4,5.2a4.331,4.331,0,0,1-.1-.5"/><path class="p" d="M4,3.5,2.7,4v.5L3.9,4A1.087,1.087,0,0,1,4,3.5"/><path class="p" d="M4.3,1.9l-1.2.5a1.421,1.421,0,0,0-.2.6l1.3-.5c0-.2.1-.4.1-.6"/><path class="p" d="M5.2.3,4,.8a3.039,3.039,0,0,0-.5.7L4.8,1A4.348,4.348,0,0,0,5.2.3"/><path class="p" d="M6.8,10l-1.3.5c.2.1.3.2.5.3l1.3-.5a2.186,2.186,0,0,0-.5-.3"/><path class="p" d="M6.9,11.2a1.854,1.854,0,0,0,.7.2l1.3-.5c-.2-.1-.5-.1-.7-.2Z"/><g transform="translate(4.224 2.829)"><g transform="translate(1.964 2.162)"><g transform="translate(2.284 2.128)"><path class="q" d="M1.9-3.2l.4,1.3L2-1.8l-.6-.5.2.6-.4.1L.8-2.9,1.1-3l.7.5-.2-.6Z"/></g><path class="q" d="M2.8-3.1A2.563,2.563,0,0,1,5.7-2l-.8.5a2.107,2.107,0,0,0-1.8-.6A1.945,1.945,0,0,0,1.9.3,1.81,1.81,0,0,0,4,1.8h.1A1.722,1.722,0,0,0,5.3.3h1A2.8,2.8,0,0,1,4.4,2.9,2.774,2.774,0,0,1,1,.9H1V.8A3.126,3.126,0,0,1,2.8-3.1Z"/></g><g transform="translate(3.702 4.693)"><path class="q" d="M1.2-3.2l.4,1.3-.4.1L.8-3.1Z"/></g><path class="q" d="M4.2-3A4.875,4.875,0,0,1,10,.4V.6A5.191,5.191,0,0,1,6.9,7,4.875,4.875,0,0,1,1.1,3.6h0V3.4A5.022,5.022,0,0,1,4.2-3ZM6.6,6A4.1,4.1,0,0,0,9,.9,3.605,3.605,0,0,0,4.6-2H4.4A4.1,4.1,0,0,0,2,3.1,3.8,3.8,0,0,0,6.5,6h.1"/></g></g><g transform="translate(235.436 106.343)"><g class="r"><g transform="translate(3.087 1.678)"><path class="n" d="M8.8,9.1c-2.9,1.1-6.2-.7-7.5-4s.1-6.9,3-8,6.2.7,7.5,4-.1,6.9-3,8"/></g></g><path class="o" d="M4.4,6.8A6.265,6.265,0,0,1,6.7-.9a1.421,1.421,0,0,0-.6.2C3.2.4,1.9,4,3.1,7.3s4.6,5.1,7.5,4l.6-.3A6.177,6.177,0,0,1,4.4,6.8"/><path class="p" d="M4.5,7l-1.3.5c.1.1.1.3.2.4l1.3-.5A.758.758,0,0,1,4.5,7"/><path class="p" d="M4.1,5.9l-1.3.5c0,.1.1.3.1.4l1.3-.5c0-.1-.1-.3-.1-.4"/><path class="p" d="M5,8l-1.3.5c.1.1.2.3.3.4l1.3-.5c-.1-.1-.2-.3-.3-.4"/><path class="p" d="M5.7,9l-1.3.5a1.38,1.38,0,0,1,.3.4L6,9.3,5.7,9"/><path class="p" d="M3.9,4.7l-1.2.5v.5L4,5.2a4.331,4.331,0,0,1-.1-.5"/><path class="p" d="M4,3.5,2.7,4v.5L3.9,4A1.087,1.087,0,0,1,4,3.5"/><path class="p" d="M4.3,1.9l-1.2.5a1.421,1.421,0,0,0-.2.6l1.3-.5c0-.2.1-.4.1-.6"/><path class="p" d="M5.2.3,4,.8a3.039,3.039,0,0,0-.5.7L4.8,1A4.348,4.348,0,0,0,5.2.3"/><path class="p" d="M6.8,10l-1.3.5c.2.1.3.2.5.3l1.3-.5a2.186,2.186,0,0,0-.5-.3"/><path class="p" d="M6.9,11.2a1.854,1.854,0,0,0,.7.2l1.3-.5c-.2-.1-.5-.1-.7-.2Z"/><g transform="translate(4.225 2.826)"><g transform="translate(1.962 2.165)"><g transform="translate(2.285 2.128)"><path class="q" d="M1.9-3.2l.4,1.3L2-1.8l-.6-.5.2.6-.4.1L.8-2.9,1.1-3l.7.5-.2-.6Z"/></g><path class="q" d="M2.8-3.1A2.563,2.563,0,0,1,5.7-2l-.8.5a2.107,2.107,0,0,0-1.8-.6A1.945,1.945,0,0,0,1.9.3,1.81,1.81,0,0,0,4,1.8h.1A1.722,1.722,0,0,0,5.3.3h1A2.8,2.8,0,0,1,4.4,2.9,2.774,2.774,0,0,1,1,.9V.8A3.126,3.126,0,0,1,2.8-3.1Z"/></g><g transform="translate(3.703 4.696)"><path class="q" d="M1.2-3.2l.4,1.3-.4.1L.8-3.1Z"/></g><path class="q" d="M4.2-3A4.875,4.875,0,0,1,10,.4h0V.6A5.191,5.191,0,0,1,6.9,7,4.875,4.875,0,0,1,1.1,3.6V3.4A5.022,5.022,0,0,1,4.2-3ZM6.6,6A4.1,4.1,0,0,0,9,.9,3.605,3.605,0,0,0,4.6-2H4.4A4.1,4.1,0,0,0,2,3.1,3.8,3.8,0,0,0,6.5,6h.1"/></g></g><g transform="translate(135.088)"><g class="s"><g transform="translate(2.407 0.967)"><path class="n" d="M7.6,11.9c-3,.6-6-1.8-6.7-5.3S2.2-.1,5.2-.7s6,1.8,6.7,5.3-1.2,6.8-4.3,7.3"/></g></g><path class="o" d="M3.4,7.7A6.052,6.052,0,0,1,7,.6a1.7,1.7,0,0,0-.7.1C3.3,1.3,1.3,4.5,2,8s3.6,5.8,6.7,5.3a2.544,2.544,0,0,0,.7-.2,6.315,6.315,0,0,1-6-5.4"/><path class="p" d="M3.4,7.9l-1.3.2c0,.2.1.3.1.4l1.3-.3a1.007,1.007,0,0,1-.1-.3"/><path class="p" d="M3.2,6.7,1.9,7v.5l1.3-.3a.454.454,0,0,0,0-.5"/><path class="p" d="M3.7,9l-1.3.2c.1.1.1.3.2.4l1.3-.3A1.439,1.439,0,0,0,3.7,9"/><path class="p" d="M4.3,10,3,10.3c.1.1.2.3.3.4l1.3-.3c-.2-.1-.2-.2-.3-.4"/><path class="p" d="M3.3,5.6l-1.4.2v.5L3.2,6c0-.1.1-.3.1-.4"/><path class="p" d="M3.5,4.4l-1.3.2c0,.2-.1.3-.1.5l1.3-.3c0-.1.1-.3.1-.4"/><path class="p" d="M4.2,2.9l-1.4.2c-.1.2-.2.3-.3.5l1.3-.3c.2-.1.3-.3.4-.4"/><path class="p" d="M5.3,1.5,4,1.7l-.6.6L4.8,2a1.205,1.205,0,0,1,.5-.5"/><path class="p" d="M5.2,11.3l-1.3.3.4.4,1.3-.3c-.1-.2-.3-.3-.4-.4"/><path class="p" d="M5,12.4a4.875,4.875,0,0,0,.7.3L7,12.5a4.875,4.875,0,0,0-.7-.3Z"/><g transform="translate(3.489 2.179)"><g transform="translate(1.937 2.184)"><g transform="translate(2.386 2.266)"><path class="q" d="M2-.7,2.1.6H1.8L1.3.1l.1.6L1,.8.8-.6h.3l.6.6L1.6-.7Z"/></g><path class="q" d="M3.3-.7A2.7,2.7,0,0,1,6,.9l-.9.4A1.682,1.682,0,0,0,3.4.4,2.069,2.069,0,0,0,1.8,2.6,1.736,1.736,0,0,0,3.7,4.3h.1A1.84,1.84,0,0,0,5.2,3l1,.1A2.991,2.991,0,0,1,3.8,5.4a2.8,2.8,0,0,1-3-2.6h0V2.7A3.176,3.176,0,0,1,3.3-.7Z"/></g><g transform="translate(3.759 4.619)"><path class="q" d="M1.2-.7,1.3.6,1,.7.8-.7Z"/></g><path class="q" d="M5-.7a4.792,4.792,0,0,1,5.1,4.4h0v.2A5.194,5.194,0,0,1,6,9.7,4.8,4.8,0,0,1,.9,5.3h0V5.1A5.081,5.081,0,0,1,5-.7Zm.9,9.3A4.124,4.124,0,0,0,9.2,4,3.716,3.716,0,0,0,5.3.4H5.1A4.081,4.081,0,0,0,1.8,4.9,3.8,3.8,0,0,0,5.7,8.6h.2"/></g></g><g transform="translate(163.997 3.506)"><circle class="t" cx="24.6" cy="24.6" r="24.6" transform="translate(0.9 -3.2)"/><g transform="translate(12.725 9.365)"><rect class="k" width="4.8" height="19.9" transform="translate(0.8 5)"/><rect class="k" width="4.8" height="23.3" transform="translate(10 1.5)"/><rect class="k" width="4.8" height="28.1" transform="translate(19.2 -3.2)"/></g></g><g transform="translate(236.124 65.984)"><g transform="translate(24.52)"><path class="k" d="M1.2-3.2a141.551,141.551,0,0,0,10,13.1l-.3.3A126.915,126.915,0,0,1,.8-2.9Z"/></g><g transform="translate(0 0.281)"><path class="l" d="M25.4-3.2a141.551,141.551,0,0,0,10,13.1A111.567,111.567,0,0,0,13.5,35.4,153.216,153.216,0,0,1,.8,23.9,124.29,124.29,0,0,1,25.4-3.2Z"/></g><g transform="translate(4.177 4.715)"><path class="e" d="M22.9-2.7Q25,.15,27.1,2.7a3.935,3.935,0,0,0-.4,5.5h0a112.93,112.93,0,0,0-15,17.4,3.393,3.393,0,0,0-4.9.3,2.092,2.092,0,0,0-.4.6c-1.8-1.6-3.5-3.2-5.2-4.8a5.563,5.563,0,0,0-.3-6.5A120.588,120.588,0,0,1,17.5-3.2a3.653,3.653,0,0,0,5.1.7c.1,0,.2-.1.3-.2Z"/></g><g transform="translate(12.18 13.509)"><path class="k" d="M2.4-1.5a4.571,4.571,0,0,1,6.4-.6h0l.5.5a5.761,5.761,0,0,1-.1,7.5,4.529,4.529,0,0,1-6.5.8c-.1-.1-.3-.2-.4-.4A5.716,5.716,0,0,1,2.4-1.5Z"/></g></g><g transform="translate(124.923 38.876)"><path class="u" d="M3.4,13.9a26,26,0,0,0,14.1,34h0a3.552,3.552,0,0,1,.9.4c14,5.4,29.9-1.1,35.6-14.6A26,26,0,0,0,39.9-.3h0A3.552,3.552,0,0,1,39-.7C25-6.2,9.1.4,3.4,13.9ZM38.8.1A25.416,25.416,0,0,1,53.7,32.6h0l-.3.9C47.9,46.6,32.4,53,18.8,47.7A25.25,25.25,0,0,1,3.9,15.2l.3-.9C9.7,1.2,25.2-5.2,38.8.1Z"/><path class="u" d="M47.2,45l-1-1.8-5,3.2,1.2,2.1Z"/><path class="v" d="M4.2,14.3a25.275,25.275,0,0,0,13.7,33l.9.3c13.6,5.3,29-1.1,34.6-14.2A25.275,25.275,0,0,0,39.7.4h0L38.8.1C25.2-5.2,9.7,1.2,4.2,14.3ZM38.5.7C51.7,6,58.1,20.4,52.8,33.2S32.3,52.2,19,47.1A24.709,24.709,0,0,1,4.4,15.4l.3-.9C10,2.2,25.4-4.6,38.5.7Z"/><g transform="translate(0.177 0.16)"><g transform="translate(0.827 0.787)"><g transform="translate(0.667 0.635)"><g transform="translate(0.386 14.977)"><path class="u" d="M52.2,16.5l-.7.3.3.7.7-.3Z"/><path class="u" d="M1.6-3.2l-.8.3.3.7.7-.3Z"/></g><g transform="translate(0.515 14.516)"><path class="u" d="M51.5-3.2l-.3.7.7.3.3-.7Z"/><path class="u" d="M1.1,17.5l-.3.7.7.3.3-.7Z"/></g><g transform="translate(15.386 0.37)"><path class="u" d="M21.4-2.9l.3.7.7-.3-.3-.7Z"/><path class="u" d="M.8,46.1l.3.7.7-.3-.3-.7Z"/></g><g transform="translate(15.078 0.567)"><path class="u" d="M.8-2.5l.7.3.3-.7-.7-.3Z"/><path class="u" d="M22,46.1l.7.3.3-.7-.7-.3Z"/></g><g transform="translate(0 15.921)"><path class="u" d="M52.9,14.6l-.7.4.3.7.7-.3Z"/><path class="u" d="M1.6-3.2l-.8.3.3.7.7-.3Z"/></g><g transform="translate(0.951 13.598)"><path class="u" d="M50.6-3.2l-.3.7.7.3.3-.7Z"/><path class="u" d="M1.1,19.3.8,20l.7.3.3-.7Z"/></g><g transform="translate(16.358)"><path class="u" d="M19.5-2.9l.3.7.7-.3-.3-.7Z"/><path class="u" d="M.8,46.8l.3.7.7-.3-.3-.7Z"/></g><g transform="translate(14.128 0.992)"><path class="u" d="M.8-2.5l.7.3.3-.7-.7-.3Z"/><path class="u" d="M24,45.3l.7.3.3-.7-.7-.3Z"/></g></g><g transform="translate(0.305 17.554)"><path class="u" d="M53.6,12.6l-.7.4.4.7.7-.4Z"/><path class="u" d="M1.5-3.2l-.7.4.4.7.7-.4Z"/></g><g transform="translate(2.11 13.291)"><path class="u" d="M49.6-3.2l-.2.7.8.2.1-.7Z"/><path class="u" d="M1.1,21.2.8,22l.8.2.2-.7Z"/></g><g transform="translate(18.057 0.291)"><path class="u" d="M17.4-2.8l.4.7.7-.4-.4-.7Z"/><path class="u" d="M.8,47.5l.4.7.7-.4-.4-.7Z"/></g><g transform="translate(13.818 2.108)"><path class="u" d="M.8-2.5l.8.2L1.8-3l-.7-.2Z"/><path class="u" d="M25.9,44.3l.8.2.2-.7-.8-.2Z"/></g><g transform="translate(0 18.522)"><path class="u" d="M54.2,10.7l-.7.4.4.7.7-.4Z"/><path class="u" d="M1.5-3.2l-.7.4.4.7.7-.4Z"/></g><g transform="translate(2.625 12.412)"><path class="u" d="M48.6-3.2l-.2.7.8.2.1-.7Z"/><path class="u" d="M1,23l-.2.7.8.2.2-.7Z"/></g><g transform="translate(19.057)"><path class="u" d="M15.4-2.8l.4.7.7-.4-.4-.7Z"/><path class="u" d="M.8,48.1l.4.7.7-.4-.4-.7Z"/></g><g transform="translate(12.905 2.605)"><path class="u" d="M.8-2.5l.8.2L1.8-3,1-3.2Z"/><path class="u" d="M27.8,43.4l.8.2.2-.7-.8-.3Z"/></g></g><g transform="translate(0.332 0.314)"><g transform="translate(0.225 19.993)"><path class="u" d="M54.7,8.7l-.7.4.4.7.7-.4Z"/><path class="u" d="M1.5-3.2l-.7.4.4.7.7-.4Z"/></g><g transform="translate(3.677 12.007)"><path class="u" d="M47.4-3.2l-.2.7.8.2.2-.7Z"/><path class="u" d="M1,24.8l-.2.7.8.2.2-.7Z"/></g><g transform="translate(20.586 0.214)"><path class="u" d="M13.3-2.8l.4.7.7-.4L14-3.2Z"/><path class="u" d="M.8,48.6l.4.7.7-.4-.4-.7Z"/></g><g transform="translate(12.489 3.62)"><path class="u" d="M.8-2.4l.8.2L1.8-3,1-3.2Z"/><path class="u" d="M29.6,42.3l.8.2.2-.7-.8-.2Z"/></g><g transform="translate(0 20.984)"><path class="u" d="M55.1,6.7l-.7.4.4.6.7-.4Z"/><path class="u" d="M1.5-3.2l-.7.4.4.6.7-.4Z"/></g><g transform="translate(4.261 11.167)"><path class="u" d="M46.3-3.2l-.2.8.8.1L47-3Z"/><path class="u" d="M1,26.5l-.2.8.8.1.2-.8Z"/></g><g transform="translate(21.61)"><path class="u" d="M11.2-2.8l.4.6.7-.4-.4-.6Z"/><path class="u" d="M.8,49.1l.4.6.7-.4-.4-.6Z"/></g><g transform="translate(11.618 4.187)"><path class="u" d="M.8-2.4l.8.1L1.8-3,1-3.2Z"/><path class="u" d="M31.4,41.2l.8.1.2-.8-.8-.1Z"/></g></g><g transform="translate(0.142 22.34)"><path class="u" d="M55.5,4.6l-.7.4.5.6.6-.5Z"/><path class="u" d="M1.5-3.2l-.7.5.5.6.6-.5Z"/></g><g transform="translate(5.241 10.63)"><path class="u" d="M45-3.2l-.1.8.8.1.1-.8Z"/><path class="u" d="M1,28.2.8,29l.8.1.1-.8Z"/></g><g transform="translate(23.019 0.133)"><path class="u" d="M9.1-2.7l.5.6.6-.5-.5-.6Z"/><path class="u" d="M.8,49.5l.5.6.6-.5L1.5,49Z"/></g><g transform="translate(11.067 5.126)"><path class="u" d="M.8-2.4l.8.1.1-.8L1-3.2Z"/><path class="u" d="M33.2,40l.8.1.1-.8-.8-.1Z"/></g><g transform="translate(0 23.344)"><path class="u" d="M55.7,2.6l-.6.5.5.6.6-.5Z"/><path class="u" d="M1.5-3.2l-.7.5.5.6L2-2.6Z"/></g><g transform="translate(5.884 9.839)"><path class="u" d="M43.7-3.2l-.1.8.8.1.1-.8Z"/><path class="u" d="M.9,29.8l-.1.8.8.1.1-.8Z"/></g><g transform="translate(24.057)"><path class="u" d="M7-2.7l.5.6.6-.5-.5-.6Z"/><path class="u" d="M.8,49.7l.5.6.7-.4-.5-.6Z"/></g><g transform="translate(10.248 5.758)"><path class="u" d="M.8-2.4l.8.1.1-.8L.9-3.2Z"/><path class="u" d="M34.9,38.7l.8.1.1-.8h-.9Z"/></g></g><g transform="translate(0.013 0.01)"><g transform="translate(0.057 24.588)"><path class="u" d="M55.9.4l-.6.5.5.6.6-.5Z"/><path class="u" d="M1.4-3.2l-.6.5.5.6L2-2.6Z"/></g><g transform="translate(6.796 9.158)"><path class="u" d="M42.2-3.2l-.1.8.8.1.1-.8Z"/><path class="u" d="M.9,31.5l-.1.8.8.1.1-.8Z"/></g><g transform="translate(25.354 0.05)"><path class="u" d="M4.7-2.7l.5.6.6-.5-.5-.6Z"/><path class="u" d="M.8,50l.5.6L2,50l-.5-.6Z"/></g><g transform="translate(9.547 6.629)"><path class="u" d="M.8-2.4l.8.1.1-.8L.9-3.2Z"/><path class="u" d="M36.6,37.3l.8.1.1-.8-.8-.1Z"/></g><g transform="translate(0 25.602)"><path class="u" d="M56-1.6l-.6.5.6.5.6-.5Z"/><path class="u" d="M1.4-3.2l-.6.5.5.6L2-2.6Z"/></g><g transform="translate(7.515 8.421)"><path class="u" d="M40.7-3.2v.8h.8v-.8Z"/><path class="u" d="M.9,33v.8h.8V33Z"/></g><g transform="translate(26.402)"><path class="u" d="M2.6-2.7l.5.6.6-.5-.5-.6Z"/><path class="u" d="M.8,50.1l.5.6.7-.6-.5-.6Z"/></g><g transform="translate(8.781 7.327)"><path class="u" d="M.8-2.4h.8v-.8H.8Z"/><path class="u" d="M38.2,36H39v-.8h-.8Z"/></g></g><g transform="translate(0 26.1)"><path class="u" d="M56-3.2l-.6.6.6.5.6-.6Z"/><path class="u" d="M1.4-2.6l-.6.5.6.5L2-2.1Z"/></g><g transform="translate(8.304 7.681)"><path class="u" d="M39.2-3.2v.8H40v-.8Z"/><path class="u" d="M.8,34.5v.8h.8v-.8Z"/></g><g transform="translate(27.11)"><path class="u" d="M.8-2.6l.6.5L2-2.7l-.6-.5Z"/><path class="u" d="M1.2,50.1l.6.5.6-.6-.6-.5Z"/></g><g transform="translate(8.025 8.087)"><path class="u" d="M.8-2.4h.8v-.8H.8Z"/><path class="u" d="M39.7,34.5h.8v-.8h-.8Z"/></g><g transform="translate(0.028 0.031)"><g transform="translate(0 25.055)"><path class="u" d="M55.9-3.2l-.5.6.6.5.5-.6Z"/><path class="u" d="M1.4-.6.8,0l.6.5L2-.1Z"/></g><g transform="translate(9.023 6.94)"><rect class="u" width="0.8" height="0.8" transform="translate(37.681 -3.183) rotate(-2.694)"/><rect class="u" width="0.8" height="0.8" transform="matrix(0.999, -0.047, 0.047, 0.999, 0.881, 35.918)"/></g><g transform="translate(26.029)"><path class="u" d="M.8-2.6l.6.5L2-2.7l-.6-.5Z"/><path class="u" d="M3.3,50.1l.6.5.6-.6-.6-.5Z"/></g><g transform="translate(7.254 8.779)"><rect class="u" width="0.8" height="0.8" transform="matrix(0.999, -0.048, 0.048, 0.999, 0.881, -3.183)"/><rect class="u" width="0.8" height="0.8" transform="translate(41.182 32.318) rotate(-2.751)"/></g></g><g transform="translate(0.1 0.104)"><g transform="translate(0 23.95)"><path class="u" d="M55.8-3.2l-.5.6.6.5.5-.6Z"/><path class="u" d="M1.3,1.5l-.5.6.6.5L2,2Z"/></g><g transform="translate(9.742 6.172)"><path class="u" d="M36-3.1l.1.8.8-.1-.1-.8Z"/><path class="u" d="M.8,37.3l.1.8.8-.1-.1-.8Z"/></g><g transform="translate(24.891)"><path class="u" d="M.8-2.6l.6.5L2-2.7l-.7-.5Z"/><path class="u" d="M5.5,50l.6.5.5-.6L6,49.4Z"/></g><g transform="translate(6.459 9.474)"><path class="u" d="M.9-2.4l.8-.1-.1-.7-.8.1Z"/><path class="u" d="M42.7,31.5l.8-.1-.1-.8-.8.1Z"/></g><g transform="translate(0.112 0.11)"><g transform="translate(0 22.832)"><path class="u" d="M55.5-3.2l-.5.6.6.5.5-.6Z"/><path class="u" d="M1.3,3.5l-.5.6.6.5L1.9,4Z"/></g><g transform="translate(10.433 5.413)"><path class="u" d="M34.4-3.1l.1.8.8-.1-.1-.8Z"/><path class="u" d="M.8,38.7l.1.8.8-.1-.1-.8Z"/></g><g transform="translate(23.736)"><path class="u" d="M.8-2.6l.6.5.5-.6-.6-.5Z"/><path class="u" d="M7.6,49.8l.6.5.5-.6-.6-.5Z"/></g><g transform="translate(5.672 10.142)"><path class="u" d="M.9-2.3l.8-.1-.1-.8-.8.1Z"/><path class="u" d="M44,30l.8-.1-.1-.8-.8.1Z"/></g></g><g transform="translate(0.272 0.27)"><g transform="translate(0 21.627)"><path class="u" d="M55.2-3.2l-.5.6.6.4.5-.6Z"/><path class="u" d="M1.3,5.6l-.5.6.6.4L1.9,6Z"/></g><g transform="translate(11.138 4.614)"><path class="u" d="M32.6-3.1l.1.8.8-.1-.1-.8Z"/><path class="u" d="M.8,39.9l.2.8.8-.1-.1-.8Z"/></g><g transform="translate(22.494)"><path class="u" d="M.8-2.6l.6.4.5-.6-.6-.4Z"/><path class="u" d="M9.7,49.5l.6.4.5-.6-.6-.4Z"/></g><g transform="translate(4.841 10.826)"><path class="u" d="M1-2.3l.8-.1-.2-.8-.8.1Z"/><path class="u" d="M45.4,28.3l.8-.1-.2-.8-.8.1Z"/></g><g transform="translate(0.194 0.192)"><g transform="translate(0 20.442)"><path class="u" d="M54.8-3.2l-.4.6.6.5.4-.6Z"/><path class="u" d="M1.3,7.6l-.5.6.7.4L1.9,8Z"/></g><g transform="translate(11.798 3.832)"><path class="u" d="M30.9-3l.2.8.8-.2-.2-.8Z"/><path class="u" d="M.8,41.1l.2.8.8-.2L1.6,41Z"/></g><g transform="translate(21.27)"><path class="u" d="M.8-2.5l.7.4.4-.6-.6-.5Z"/><path class="u" d="M11.8,49.1l.7.4.4-.6-.7-.4Z"/></g><g transform="translate(4.039 11.454)"><path class="u" d="M1-2.3l.8-.2-.2-.7L.8-3Z"/><path class="u" d="M46.6,26.6l.8-.2-.2-.8-.8.2Z"/></g></g></g></g><g transform="translate(0.806 0.778)"><g transform="translate(0 19.178)"><path class="u" d="M54.3-3.2l-.4.7.7.4.4-.7Z"/><path class="u" d="M1.2,9.6l-.4.7.7.4.4-.7Z"/></g><g transform="translate(12.462 3.014)"><path class="u" d="M29.1-3l.2.7.7-.1-.2-.7Z"/><path class="u" d="M.8,42.3,1,43l.8-.2-.2-.7Z"/></g><g transform="translate(19.966)"><path class="u" d="M.8-2.5l.7.4.4-.7-.7-.4Z"/><path class="u" d="M13.9,48.7l.7.4.4-.7-.7-.4Z"/></g><g transform="translate(3.2 12.093)"><path class="u" d="M1-2.3l.8-.2-.2-.7L.8-3Z"/><path class="u" d="M47.8,24.9l.8-.2-.2-.7-.8.2Z"/></g><g transform="translate(0.277 0.27)"><g transform="translate(0 17.933)"><path class="u" d="M53.7-3.2l-.4.7.7.3.4-.7Z"/><path class="u" d="M1.2,11.6l-.4.7.7.4.4-.7Z"/></g><g transform="translate(13.084 2.234)"><path class="u" d="M27.2-3l.2.7.8-.2L28-3.2Z"/><path class="u" d="M.8,43.3l.3.7.8-.2-.2-.7Z"/></g><g transform="translate(18.68)"><path class="u" d="M.8-2.5l.7.4.4-.7-.7-.4Z"/><path class="u" d="M16,48.1l.7.4.4-.7-.7-.4Z"/></g><g transform="translate(2.386 12.699)"><path class="u" d="M1.1-2.2l.8-.2-.3-.8L.8-3Z"/><path class="u" d="M48.9,23.1l.8-.2-.2-.7-.8.2Z"/></g></g><g transform="translate(0.608 0.594)"><g transform="translate(0 16.605)"><path class="u" d="M53-3.2l-.4.7.7.3.4-.7Z"/><path class="u" d="M1.2,13.6l-.4.7.7.3.4-.6Z"/></g><g transform="translate(13.713 1.411)"><path class="u" d="M25.3-2.9l.3.7.8-.2-.3-.7Z"/><path class="u" d="M.8,44.3l.3.7.8-.2-.3-.7Z"/></g><g transform="translate(17.307)"><path class="u" d="M.8-2.5l.7.3.4-.7-.7-.3Z"/><path class="u" d="M18.1,47.5l.7.3.4-.7-.7-.3Z"/></g><g transform="translate(1.534 13.296)"><path class="u" d="M1.1-2.2l.8-.2-.3-.8-.8.3Z"/><path class="u" d="M49.9,21.3l.8-.2-.3-.7-.8.2Z"/></g><g transform="translate(0.359 0.349)"><g transform="translate(0 15.306)"><path class="u" d="M52.3-3.2l-.3.7.7.3.3-.7Z"/><path class="u" d="M1.2,15.5l-.3.7.7.3.3-.7Z"/></g><g transform="translate(14.293 0.618)"><path class="u" d="M23.4-2.9l.3.7.7-.3-.3-.7Z"/><path class="u" d="M.8,45.2l.3.7.7-.3-.3-.7Z"/></g><g transform="translate(15.965)"><path class="u" d="M.8-2.5l.7.3.3-.7-.6-.3Z"/><path class="u" d="M20,46.8l.7.3.3-.7-.7-.3Z"/></g><g transform="translate(0.712 13.859)"><path class="u" d="M1.1-2.2l.7-.3-.2-.7-.8.3Z"/><path class="u" d="M50.9,19.4l.7-.3-.3-.7-.7.3Z"/></g></g></g></g><path class="u" d="M77.4,85.3,48.3,44.4l-7.1,4S70.4,92.2,70.5,92.2Z"/></g><g transform="translate(79.675 28.834)"><path class="l" d="M35.6,6.2A135.732,135.732,0,0,1,24.9-3.2,98,98,0,0,1,.8,14a143.82,143.82,0,0,0,9,11.6A109.137,109.137,0,0,0,35.6,6.2Z"/><path class="e" d="M31.5,4.6A53.386,53.386,0,0,1,27.1.7a3.32,3.32,0,0,1-4.7,0L22.3.6A106.227,106.227,0,0,1,5.8,12.5a2.89,2.89,0,0,1-.6,4.1H5.1a2.092,2.092,0,0,1-.6.4c1.2,1.6,2.5,3.2,3.8,4.7a5.176,5.176,0,0,1,5.7.6A116.525,116.525,0,0,0,31.4,9.2a3.144,3.144,0,0,1-.3-4.4C31.2,4.8,31.3,4.6,31.5,4.6Z"/><path class="w" d="M21.7,14.6a3.766,3.766,0,0,0,1.1-5.3h0V9.2c-.2-.2-.3-.4-.5-.5a5.146,5.146,0,0,0-6.6-.4,4.128,4.128,0,0,0-1.3,5.5,1.756,1.756,0,0,0,.4.5A5.313,5.313,0,0,0,21.7,14.6Z"/></g></g></svg>