<svg xmlns="http://www.w3.org/2000/svg" xmlns:xlink="http://www.w3.org/1999/xlink" viewBox="0 0 303.93 186.318"><defs><style>.a{fill:#97ce89;}.b{fill:#c9e4be;}.c{fill:#212121;}.d,.h{fill:#fff;}.e{fill:#ffc736;}.f{fill:#f2a039;}.g,.q{fill:#45bf55;}.g,.h,.i,.j{fill-rule:evenodd;}.i,.k{fill:#efefef;}.j,.v{fill:#030404;}.l{clip-path:url(#a);}.m{fill:#ffce33;}.n{fill:#f4af00;}.o{fill:#d69515;}.p{fill:#e1a10f;}.r{fill:#eee;}.s{clip-path:url(#b);}.t{fill:#ffd94b;}.u{fill:#d8b236;}</style><clipPath id="a"><rect width="18.7" height="19.5" transform="translate(-0.54 2.093) rotate(-10.673)"/></clipPath><clipPath id="b"><rect width="20.2" height="21" transform="matrix(0.695, -0.719, 0.719, 0.695, 0.534, 5.054)"/></clipPath></defs><g transform="translate(-0.5 -9.188)"><g transform="translate(18.293 86.861)"><path class="a" d="M91.2,17.5C62.9,17.3,64,.1,42,.9S9.2,28.5.5,47.1c0,0,17.1,24.5,91.8,31.7S225.7,29.3,225.7,29.3C221.4,23,194.3-9.2,154.6-9.4S119.4,17.6,91.2,17.5Z"/></g><path class="b" d="M287.2,155.1h-36a9.757,9.757,0,0,0-6.9,2.8,9.164,9.164,0,0,0-2.9,6.6,9.6,9.6,0,0,1-9.8,9.4h-44a11.435,11.435,0,0,0-8,3.2,10.614,10.614,0,0,0-3.3,7.6A10.993,10.993,0,0,1,165,195.5H114.5a8.468,8.468,0,0,1-6-2.4,7.887,7.887,0,0,1-2.5-5.7,8.282,8.282,0,0,0-8.5-8.1H60a9,9,0,0,1-6.4-2.6,8.415,8.415,0,0,1-2.7-6.1,8.335,8.335,0,0,0-2.3-5.8,9.223,9.223,0,0,0-6.8-2.9H14.4A13.617,13.617,0,0,1,.5,148.6v-10a6.19,6.19,0,0,1,6.2-6H298.2C309.9,132.7,304.5,155.1,287.2,155.1Z"/><g transform="translate(66.753 67.843)"><g transform="translate(0 13.505)"><path class="c" d="M37.5-9.5H24.8C15.5-3.4.5,16,.5,27.9c0,10,3,16.4,9.6,21.8A10.827,10.827,0,0,0,17,52.2H45.2a10.827,10.827,0,0,0,6.9-2.5c6.6-5.5,9.6-11.8,9.6-21.8C61.8,16,46.8-3.4,37.5-9.5Z"/></g><g transform="translate(15.372)"><path class="c" d="M28.3-7.1a4.3,4.3,0,0,0-2.5-.2l-3.1,1a2.924,2.924,0,0,1-2.4-.4L17-9.1a2.167,2.167,0,0,0-2.2,0L11.4-6.6A2.924,2.924,0,0,1,9-6.2l-3.1-1a3.569,3.569,0,0,0-2.5.1L1.1-6A.782.782,0,0,0,.6-4.9h0a1.38,1.38,0,0,0,.3.4L8.8,3.1a3.337,3.337,0,0,0,2.3.9h9.5a3.641,3.641,0,0,0,2.3-.9l7.9-7.6A.83.83,0,0,0,31-5.7a.536.536,0,0,0-.4-.3Z"/></g><g transform="translate(20.503 11.253)"><path class="d" d="M18.5-5H2.8A2.241,2.241,0,0,1,.6-7.3,2.289,2.289,0,0,1,2.8-9.5H18.6a2.38,2.38,0,0,1,2.2,2.3A2.458,2.458,0,0,1,18.5-5Z"/></g></g><g transform="translate(69.955 111.6)"><g transform="translate(34.901 24.291)"><path class="e" d="M1.4-9.5H27.5a.9.9,0,0,1,.9.9v5.2a.9.9,0,0,1-.9.9H1.4a.9.9,0,0,1-.9-.9V-8.6A.9.9,0,0,1,1.4-9.5Z"/><g transform="translate(13.96 1.114)"><path class="f" d="M.5-9.5v4.7H12.8a.576.576,0,0,0,.6-.6h0V-9a.576.576,0,0,0-.6-.6h0Z"/></g></g><g transform="translate(36.018 16.194)"><path class="e" d="M1.4-9.5H27.5a.9.9,0,0,1,.9.9v5.2a.9.9,0,0,1-.9.9H1.4a.9.9,0,0,1-.9-.9V-8.6A.9.9,0,0,1,1.4-9.5Z"/><g transform="translate(13.959 1.117)"><path class="f" d="M.5-9.5v4.7H12.8a.645.645,0,0,0,.6-.6V-9a.576.576,0,0,0-.6-.6h0Z"/></g></g><g transform="translate(33.785 8.097)"><path class="e" d="M1.4-9.5H27.5a.9.9,0,0,1,.9.9v5.2a.9.9,0,0,1-.9.9H1.4a.9.9,0,0,1-.9-.9V-8.6A.9.9,0,0,1,1.4-9.5Z"/><g transform="translate(13.96 1.118)"><path class="f" d="M.5-9.5v4.7H12.8a.645.645,0,0,0,.6-.6V-9a.576.576,0,0,0-.6-.6h0C12.8-9.5.5-9.5.5-9.5Z"/></g></g><g transform="translate(34.901)"><path class="e" d="M1.4-9.5H27.5a.9.9,0,0,1,.9.9v5.2a.9.9,0,0,1-.9.9H1.4a.9.9,0,0,1-.9-.9V-8.6A.9.9,0,0,1,1.4-9.5Z"/><g transform="translate(13.96 1.118)"><path class="f" d="M.5-9.5v4.7H12.8a.576.576,0,0,0,.6-.6h0V-9a.576.576,0,0,0-.6-.6h0C12.8-9.5.5-9.5.5-9.5Z"/></g></g><g transform="translate(0 24.291)"><path class="e" d="M1.4-9.5H27.5a.9.9,0,0,1,.9.9v5.2a.9.9,0,0,1-.9.9H1.4a.9.9,0,0,1-.9-.9V-8.6A.9.9,0,0,1,1.4-9.5Z"/><g transform="translate(13.96 1.114)"><path class="f" d="M.5-9.5v4.7H12.8a.576.576,0,0,0,.6-.6h0V-9a.576.576,0,0,0-.6-.6h0Z"/></g></g><g transform="translate(1.116 16.194)"><path class="e" d="M1.4-9.5H27.5a.9.9,0,0,1,.9.9v5.2a.9.9,0,0,1-.9.9H1.4a.9.9,0,0,1-.9-.9V-8.6A.9.9,0,0,1,1.4-9.5Z"/><g transform="translate(13.957 1.117)"><path class="f" d="M.5-9.5v4.7H12.8a.576.576,0,0,0,.6-.6V-9a.645.645,0,0,0-.6-.6h0L.5-9.5Z"/></g></g></g><g transform="translate(137.846 119.697)"><g transform="translate(1.116 16.194)"><path class="e" d="M1.4-9.5H27.5a.9.9,0,0,1,.9.9v5.2a.9.9,0,0,1-.9.9H1.4a.9.9,0,0,1-.9-.9V-8.6A.9.9,0,0,1,1.4-9.5Z"/><g transform="translate(13.96 1.114)"><path class="f" d="M.5-9.5v4.7H12.8a.576.576,0,0,0,.6-.6h0V-9a.576.576,0,0,0-.6-.6h0Z"/></g></g><g transform="translate(2.234 8.097)"><path class="e" d="M1.4-9.5H27.5a.9.9,0,0,1,.9.9v5.2a.9.9,0,0,1-.9.9H1.4a.9.9,0,0,1-.9-.9V-8.6A.9.9,0,0,1,1.4-9.5Z"/><g transform="translate(13.959 1.117)"><path class="f" d="M.5-9.5v4.7H12.8a.645.645,0,0,0,.6-.6V-9a.576.576,0,0,0-.6-.6h0Z"/></g></g><path class="e" d="M1.4-9.5H27.5a.9.9,0,0,1,.9.9v5.2a.9.9,0,0,1-.9.9H1.4a.9.9,0,0,1-.9-.9V-8.6A.9.9,0,0,1,1.4-9.5Z"/><g transform="translate(13.959 1.118)"><path class="f" d="M.5-9.5v4.7H12.8a.645.645,0,0,0,.6-.6V-9a.576.576,0,0,0-.6-.6h0C12.8-9.5.5-9.5.5-9.5Z"/></g></g><g transform="translate(128.847 13.043)"><path class="g" d="M96.8,31.4c14.1,8.3,14.5,50.5,16.9,64.9,1.1,6.7-2.9,30.7-6.2,36.5-1.1,1.9-16.4.8-18.4,1.1-8.8,1.6-50.1,2.2-55.5-3.8s9.6-20.4,8.6-27.5C36.8,65.5,57.8,29.8,57.8,29.8S81.5,22.4,96.8,31.4Z"/><path class="g" d="M54.2,113.1s28.3-4.4,36.3-35.8c3.3-13,1.3-22.3,4.3-23.2,5.6-1.7,13.8,8.7,13.8,8.7s7.9,32.7,4.3,42.6-53.1,15.8-53.1,15.8Z"/><path class="g" d="M57.5,29.8S30.8,32.4,13.3,81.9l17.9,3.7L57.7,64.4Z"/><path class="h" d="M71.1,150.3s17.8-1.1,16.7-7.8-19.7-1.1-19.7-1.1Z"/><path class="i" d="M62.6,17.1l3.2,18.1a6.189,6.189,0,0,0,7.1,5,6.9,6.9,0,0,0,3-1.4c.5-.5,1.1-.9,1.6-1.4a7.916,7.916,0,0,0,2.4-8.1c-2.1-7.5-6-21.1-6-21.1Z"/><path class="j" d="M55,3.9s-6.8,5.2.8,11S55,3.9,55,3.9Z"/><path class="i" d="M53.9,12.4A9.459,9.459,0,0,1,61.5,1.3a4.331,4.331,0,0,0,.5-.1h0A9.627,9.627,0,0,1,72.6,8.9c.5,2.9,1.1,6,1.6,8.7a6.73,6.73,0,0,1-5.4,7.9.6.6,0,0,0-.4.1l-5.2.7a7,7,0,0,1-7.8-5.7c-.4-2.5-1-5.5-1.5-8.2Z"/><path class="j" d="M67.9,6.2s.8,8.7,7.5,7.4c0,0,1.6-8.4,1.1-12.4C75.6-6.3,60.6-4.4,55.4.1S55.2,9.3,67.9,6.2Z"/><path class="i" d="M74.4,10.1a3.008,3.008,0,1,0,2.1,3.7h0a1.7,1.7,0,0,0,.1-.7A2.539,2.539,0,0,0,74.4,10.1Z"/><g transform="translate(40.732 73.056)"><path class="k" d="M20.1,8a15.292,15.292,0,0,0-2.6,3.1c-.5,1-1,1.3-.9,2.2s.1,1.8-.1,1.8a1.763,1.763,0,0,1-1.5-.8,5.547,5.547,0,0,1-.7-2.8,2.389,2.389,0,0,1,.5-1.4A14.373,14.373,0,0,1,20.1,8Z"/><g transform="translate(15.52 16.879)"><path class="k" d="M1-1.9c-.2,0-.5-.2-.5-.3,0-.3-.1-1.3.5-1.6H1v.2A4.845,4.845,0,0,1,1-1.9Z"/></g><path class="k" d="M29.8.3S28.9.8,26.6,2C24.6,3,23,5.1,21,7a9.016,9.016,0,0,1-1,.9,17.081,17.081,0,0,1-5.7,2.9l-.5.2c-1.1.4-6.1,3.1-8.2,4s-4.4,2.2-4.9.8c-.5-1.3.5-1.6,3.7-3.3a44.623,44.623,0,0,0,6.6-4c-.1-.2-.5-.2-.7-1.1A2.924,2.924,0,0,1,10.7,5a3.01,3.01,0,0,1-.2-2.9c-1.3-.9.3-3.4,1.1-4.5s2.6-.9,4.6-1.4l.8-.1A83.007,83.007,0,0,1,29.1-1.7Z"/><g transform="translate(0.281 18.316)"><path class="k" d="M2.2-3.3c.2.6.1.9-.4,1.1S.8-2,.6-2.5A.926.926,0,0,1,1-3.7H1A.764.764,0,0,1,2.2-3.3Z"/></g><path class="k" d="M10.5,2.2a8.175,8.175,0,0,1,1.2-2,10.391,10.391,0,0,1-.6,1A10.391,10.391,0,0,0,10.5,2.2Z"/><path class="k" d="M10.7,5.1a5.5,5.5,0,0,1,.7-.9,3.044,3.044,0,0,1,.8-.8c-.1.2-.3.3-.7.9C10.9,4.8,10.8,4.9,10.7,5.1Z"/><path class="k" d="M11,8.5l.5-.5a1.794,1.794,0,0,0,.5-.7,4.348,4.348,0,0,1-.4.7A2.651,2.651,0,0,1,11,8.5Z"/></g><path class="j" d="M63.1,7S46.6,9.4,48.7,1.4c2-7.5,16.5,4,18.3.9Z"/><path class="j" d="M59.4,20.6l4.6-.5s.2,3.2-2,3.1C59.8,23.2,59.4,20.6,59.4,20.6Z"/><path class="j" d="M53.5,94.2l-8-.2A8.548,8.548,0,0,1,38,88.4L31.4,65.3c-.9-3,1.1-5.4,4.4-5.3l8,.2a8.548,8.548,0,0,1,7.5,5.6l6.6,23.1C58.7,91.9,56.7,94.3,53.5,94.2Z"/><path class="i" d="M31.2,73.5s-22.6,1.8-21,9.3,8.9,15.5,25.6-.3S31.2,73.5,31.2,73.5Z"/><path class="j" d="M43.9,105.5s-33-17.2-42.6,6.2c-8.2,20.1,50,35.1,66.8,38.9a5.655,5.655,0,0,0,6.4-3.1l6.9-14.4Z"/><path class="j" d="M92,142.2s35.2-12,24.9-35.1-78.1,24-78.1,24l5.7,15a5.408,5.408,0,0,0,6,3.4Z"/><path class="h" d="M41.6,139.5s-17.8,2-16.3,8.6,19.7.2,19.7.2Z"/><path class="g" d="M93.8,29.9s22.8,6.1,23.1,45.8S78.6,91.6,78.6,91.6L80.9,77l3.3-.3A13.466,13.466,0,0,0,96.6,62.2v-.1Z"/><path class="i" d="M87.6,97.2c-3.4-.3-22.3-14.4-25.8-17.1a4.574,4.574,0,0,0-.6-.4s2.8-9.8,8.6-8.3c7.2,1.9,15.7,5.3,20.1,11.3C98.2,94.1,91.3,97.4,87.6,97.2Z"/><g transform="translate(27.597 71.758)"><path class="k" d="M.5,4A54.567,54.567,0,0,0,7.2,1.4a36.063,36.063,0,0,1,4.4-3.3,6.7,6.7,0,0,1,2,0c.8-.3,2.8-1.1,3.8-1.6s2.3-.7,2.7-.1a1.519,1.519,0,0,1,0,2A1.609,1.609,0,0,1,21.4-.4c.2.6-.1,1.1-.7,1.5a2.088,2.088,0,0,1,.8,1.6,2.1,2.1,0,0,1-.8,1.1,1.022,1.022,0,0,1,.5,1.4h0v.1c-.3.4-.7.9-2.4,1.2-.6.1-1.3.5-3.2.9a15.6,15.6,0,0,1-4.3.3,4.623,4.623,0,0,0-3.2.9c-1.5.7-4.2,2.2-4.2,2.2Z"/><path class="k" d="M17.8-3.6l-.1.1-.1.1-.2.1-.2.2c-.1.1-.2.1-.3.2-.2.2-.4.3-.6.5a5.547,5.547,0,0,1-.8.6c-.1.1-.3.2-.4.3l-.2.1c-.1.1-.2.2-.3.2l-.3.3c-.1.2-.2.3-.2.5a1.268,1.268,0,0,0,.1.6.781.781,0,0,0,.4.4,1.268,1.268,0,0,0,.6.1,1.268,1.268,0,0,0,.6-.1,10.375,10.375,0,0,0,1-.4,5.9,5.9,0,0,0,.8-.4,5.9,5.9,0,0,1,.8-.4,6.872,6.872,0,0,1,1.3-.6c.2-.1.3-.1.4-.2l.1-.1-.1.1c-.1,0-.2.1-.3.2a13.086,13.086,0,0,1-1.3.7c-.3.1-.5.3-.8.4a4.671,4.671,0,0,0-1,.5,4.671,4.671,0,0,1-1,.5,1.268,1.268,0,0,1-.6.1,1.268,1.268,0,0,1-.6-.1,1,1,0,0,1-.4-.5A1.952,1.952,0,0,1,14-.3a1.421,1.421,0,0,1,.2-.6l.3-.3.3-.3h.3a1.38,1.38,0,0,0,.4-.3,4.349,4.349,0,0,0,.7-.6,2.651,2.651,0,0,1,.6-.5,1.238,1.238,0,0,0,.3-.2l.2-.2.2-.1a.1.1,0,0,0,.1-.1Z"/><path class="k" d="M16.4.3h0c-.1.1-.2.1-.2.2l-.1.1L16,.7c0,.1-.1.1-.1.2v.2c.1.2.1.3.2.5l.1.1a.1.1,0,0,0,.1.1.367.367,0,0,0,.1.3.1.1,0,0,0,.1.1l.1.1H17a.367.367,0,0,0,.3-.1c.1,0,.2-.1.3-.1.2-.1.4-.1.6-.2l.6-.2c.4-.1.8-.2,1.1-.3l.8-.2.2-.1H21a.774.774,0,0,0-.3.1,4.875,4.875,0,0,1-.7.3,7.6,7.6,0,0,0-1.1.4l-.6.2c-.2.1-.4.1-.6.2-.1,0-.2.1-.3.1a.367.367,0,0,0-.3.1h-.4c-.1,0-.1,0-.2-.1l-.1-.1a.367.367,0,0,0-.1-.3V1.9a.1.1,0,0,0-.1-.1.764.764,0,0,1-.2-.5V1.1c0-.1,0-.1.1-.2a.1.1,0,0,1,.1-.1l.1-.1c0-.3,0-.3.1-.4Z"/><path class="k" d="M20.8,1.2l-.4.1-1.1.4a14.242,14.242,0,0,0-1.6.5,3.552,3.552,0,0,0-.9.4,1.205,1.205,0,0,0-.5.5,1.7,1.7,0,0,0,.1.7c.1.1.1.3.3.4a1.136,1.136,0,0,0,.8.3c.3,0,.6-.1.9-.1a2.2,2.2,0,0,1,.8-.1c.3,0,.5-.1.7-.1s.3-.2.4-.2a.367.367,0,0,0,.3-.1h0a.367.367,0,0,0-.3.1,5.16,5.16,0,0,0-1.1.2,3.091,3.091,0,0,0-.8.2c-.3.1-.6.1-.9.2a1.613,1.613,0,0,1-.9-.3c-.1-.1-.2-.3-.3-.4a1.7,1.7,0,0,1-.1-.7,1.205,1.205,0,0,1,.5-.5c.3-.1.6-.3.9-.4a9.83,9.83,0,0,1,1.6-.5c.5-.1.9-.3,1.1-.3Z"/><path class="k" d="M18,4.4c-.1,0-.2.1-.3.2-.1,0-.1.1-.2.2a.31.31,0,0,0-.1.2v.5c0,.2.1.3.2.5.1.1.2.1.3.2.1,0,.2.1.3.1.2,0,.4.1.6.1a1.083,1.083,0,0,1,.6.1h-.6a1.268,1.268,0,0,1-.6-.1c-.1,0-.2-.1-.3-.1s-.2-.1-.3-.2a.764.764,0,0,1-.2-.5V5.1c0-.1.1-.2.2-.3l.2-.2C17.7,4.5,17.9,4.4,18,4.4Z"/><path class="k" d="M8.3,2.5a3.847,3.847,0,0,0,2.6,1.3c2-.1,3.3-2.4,3.3-2.4a2.834,2.834,0,0,1,1.6.6,3.662,3.662,0,0,0,3.3.7c.8-.5.6-1.4,0-2S17.6-.6,17.2-1a1.809,1.809,0,0,0-1.7-.7c-1,0-1.9-.1-1.9-.1a3.408,3.408,0,0,0-2,0A24.737,24.737,0,0,0,7.8,1C7.6,1.4,7.7,1.9,8.3,2.5Z"/><path class="k" d="M19.6,2.2a1.376,1.376,0,0,0-.1-1.1,1.344,1.344,0,0,0-.6-.7,4.349,4.349,0,0,0-.7-.6c-.3-.2-.4-.4-.7-.6l-.3-.3c-.1-.1-.1,0-.2-.1l-.3-.3c-.1-.1-.3-.1-.4-.2a2.769,2.769,0,0,0-.9-.1h-.9a2.769,2.769,0,0,1-.9-.1c.3,0,.6.1.9.1h.9a2.769,2.769,0,0,1,.9.1.758.758,0,0,1,.4.2l.3.3c0,.1.1.2.2.3l.3.3a4.349,4.349,0,0,1,.7.6l.6.6a1.794,1.794,0,0,1,.5.7c.3.2.3.6.3.9a1.612,1.612,0,0,1-1.3.6,2.769,2.769,0,0,1-.9-.1,6.89,6.89,0,0,1-.8-.3,2.01,2.01,0,0,1-.8-.4,2.01,2.01,0,0,0-.8-.4.6.6,0,0,0-.4-.1.6.6,0,0,1-.4-.1h0A5.391,5.391,0,0,1,12.8,3a2.732,2.732,0,0,1-1.9.8A3.258,3.258,0,0,0,12.8,3a7.312,7.312,0,0,0,1.4-1.6.6.6,0,0,1,.4.1c.1,0,.3.1.4.1a4.348,4.348,0,0,1,.7.4,2.01,2.01,0,0,0,.8.4c.3.1.5.2.8.3a2.769,2.769,0,0,0,.9.1A1.158,1.158,0,0,0,19.6,2.2Z"/></g></g><g transform="translate(221.827 23.194)"><g class="l"><g transform="translate(3.591 1.444)"><path class="m" d="M9.6,17.5c-4.5.9-9-2.7-10-7.8S1.5-.4,6-1.3s9,2.7,10,7.8-1.9,10.1-6.4,11"/></g></g><path class="n" d="M3.2,11.1C2.3,6.3,4.7,1.8,8.6.4c-.3,0-.7.1-1,.1-4.5.9-7.4,5.8-6.4,11s5.4,8.7,10,7.8a3.81,3.81,0,0,0,1-.3c-4.2.3-8.1-3.1-9-7.9"/><path class="o" d="M3.3,11.4l-2,.4a2.544,2.544,0,0,0,.2.7l2-.4a1.445,1.445,0,0,1-.2-.7"/><path class="o" d="M3,9.7l-2,.4a1.7,1.7,0,0,0,.1.7l2-.4c0-.2-.1-.4-.1-.7"/><path class="o" d="M3.8,13.1l-2,.4.3.6,2-.4a.864.864,0,0,1-.3-.6"/><path class="o" d="M4.5,14.7l-2,.4c.1.2.3.4.4.6l2-.4a2.092,2.092,0,0,0-.4-.6"/><path class="o" d="M3.1,8,1,8.4v.7l2-.4A1.7,1.7,0,0,1,3.1,8"/><path class="o" d="M3.4,6.2l-2,.4c-.1.2-.1.5-.2.7l2-.4c.1-.2.1-.5.2-.7"/><path class="o" d="M4.4,3.9l-2,.4a2.994,2.994,0,0,0-.4.8l2-.4a2.994,2.994,0,0,1,.4-.8"/><path class="o" d="M6.1,1.9l-2,.4a3.044,3.044,0,0,0-.8.8l2-.4a3.044,3.044,0,0,1,.8-.8"/><path class="o" d="M5.9,16.5l-2,.4.6.6,2-.4c-.1-.2-.4-.4-.6-.6"/><path class="o" d="M5.7,18.3a3.128,3.128,0,0,0,1,.5l2-.4a4.671,4.671,0,0,1-1-.5Z"/><g transform="translate(5.233 3.22)"><g transform="translate(2.86 3.299)"><g transform="translate(3.559 3.369)"><path class="p" d="M1.1-1.4l.2,2L.9.7,0-.2.1.7-.4.8l-.2-2,.4-.1.8.9-.1-1Z"/></g><path class="p" d="M3.1-1.4A3.91,3.91,0,0,1,7.1,1l-1.4.6A2.419,2.419,0,0,0,3.2.2,2.923,2.923,0,0,0,.9,3.5,2.693,2.693,0,0,0,3.7,6.1h.1A2.849,2.849,0,0,0,6,4.2l1.4.2A4.4,4.4,0,0,1,3.9,7.7,4.15,4.15,0,0,1-.5,3.8V3.6A4.429,4.429,0,0,1,3.1-1.4Z"/></g><g transform="translate(5.571 6.92)"><path class="p" d="M-.1-1.4.1.6-.4.7l-.2-2Z"/></g><path class="p" d="M5.7-1.3c3.8-.5,7.2,2.6,7.6,6.9s-2.4,8.1-6.2,8.6S-.1,11.6-.5,7.3,1.8-.9,5.7-1.3ZM6.9,12.5a6.106,6.106,0,0,0,4.9-6.8A5.678,5.678,0,0,0,6,.2H5.8A6.184,6.184,0,0,0,.9,7.1a5.678,5.678,0,0,0,5.8,5.5c0-.1.1-.1.2-.1"/></g></g><g transform="translate(126.706 9)"><path class="q" d="M9.4.7H36.6a8.706,8.706,0,0,1,8.7,8.7v5.2a8.706,8.706,0,0,1-8.7,8.7H9.4A8.706,8.706,0,0,1,.7,14.6V9.4A8.706,8.706,0,0,1,9.4.7Z"/><path class="g" d="M33.2,21.7l11,7.6-.9-12.1Z"/><g transform="translate(18.467 4.167)"><path class="r" d="M5.5,11v1.3H3.8V11A3.242,3.242,0,0,1,.7,8H2.9A1.723,1.723,0,0,0,4.7,9.3c.8,0,1.2-.3,1.2-.8,0-.3-.2-.6-.9-.8L3.6,7.4C1.8,7,1,6.3,1,4.9A2.862,2.862,0,0,1,3.8,2.1V.7H5.5V2.1A3.084,3.084,0,0,1,8.2,4.9H6A1.194,1.194,0,0,0,4.6,3.8h0c-.8,0-1.3.3-1.3.9,0,.5.4.7,1.1.9l1.2.3c1.6.3,2.6,1,2.6,2.5A2.669,2.669,0,0,1,5.5,11Z"/></g></g><g transform="translate(115.999 52.909)"><g class="s"><g transform="translate(5.521 3.979)"><path class="m" d="M17.6,7.3C14.1,10.9,8,10.6,3.9,6.6S-.6-3.4,2.8-7s9.6-3.3,13.6.7S21,3.7,17.6,7.3"/></g></g><path class="n" d="M9.5,10.6C5.7,7,5,1.5,7.6-2.2l-.8.8C3.3,2.2,3.9,8.3,7.9,12.2s10.2,4.3,13.6.7a5.008,5.008,0,0,0,.7-.8c-3.5,2.7-9,2.2-12.7-1.5"/><path class="o" d="M9.7,10.9,8.2,12.5c.2.2.4.3.6.5l1.5-1.6a2.651,2.651,0,0,0-.6-.5"/><path class="o" d="M8.5,9.5,7,11.1c.2.2.3.4.5.6L9,10.1a2.651,2.651,0,0,1-.5-.6"/><path class="o" d="M11.2,12,9.7,13.6c.2.1.4.3.6.4l1.5-1.6c-.2-.1-.4-.3-.6-.4"/><path class="o" d="M12.9,12.9l-1.5,1.6c.2.1.5.2.7.3l1.5-1.6c-.2-.1-.5-.2-.7-.3"/><path class="o" d="M7.4,8,5.9,9.6a2.092,2.092,0,0,0,.4.6L7.8,8.6c-.1-.2-.3-.4-.4-.6"/><path class="o" d="M6.6,6.2,5.1,7.8c.1.2.2.5.3.7L6.9,6.9c-.1-.2-.2-.5-.3-.7"/><path class="o" d="M6.1,3.6,4.5,5.2c0,.3.1.6.1.9L6.1,4.5V3.6"/><path class="o" d="M6.3.7,4.8,2.3a5.067,5.067,0,0,0-.2,1.3L6.1,2A5.067,5.067,0,0,1,6.3.7"/><path class="o" d="M15.2,13.6l-1.5,1.6a2.769,2.769,0,0,0,.9.1l1.5-1.6a2.769,2.769,0,0,1-.9-.1"/><path class="o" d="M16.1,15.4a5.019,5.019,0,0,0,1.2-.2l1.5-1.6c-.4.1-.8.1-1.2.2Z"/><g transform="translate(7.654 5.426)"><g transform="translate(3.251 3.415)"><g transform="translate(3.48 3)"><path class="p" d="M1.9-9.5,3.3-7.8,3-7.5,1.7-7.7l.7.7-.5.4L.5-8.2l.3-.3,1.3.3-.7-.9Z"/></g><path class="p" d="M1.9-8.4a4.211,4.211,0,0,1,5-.4L6-7.5a2.568,2.568,0,0,0-3,.4A3.018,3.018,0,0,0,3-2.8a2.885,2.885,0,0,0,4,.6l.1-.1a2.954,2.954,0,0,0,.7-3.1l1.4-.7A4.446,4.446,0,0,1,8.2-1a4.459,4.459,0,0,1-6.3-.6h0c0-.1-.1-.1-.1-.2A4.806,4.806,0,0,1,1.9-8.4Z"/></g><g transform="translate(6.053 7.888)"><path class="p" d="M.9-9.5,2.3-7.8l-.4.4L.5-9.1Z"/></g><path class="p" d="M2.8-7.7c3.1-2.8,7.9-2.2,10.9,1.3s3,8.6-.1,11.4S5.7,7.2,2.7,3.7-.2-4.9,2.8-7.7ZM12.6,3.7c2.4-2.2,2.4-6.3,0-9S6.4-8.6,4-6.4,1.5-.1,3.9,2.7s6.2,3.2,8.7,1"/></g></g><g transform="translate(250.217 74.15)"><g transform="translate(5.999 16.521)"><g transform="translate(8.56)"><path class="b" d="M1,28.3a.472.472,0,0,1-.5-.5V-9A.472.472,0,0,1,1-9.5a.472.472,0,0,1,.5.5V27.8a.536.536,0,0,1-.5.5Z"/></g><g transform="translate(0 20.049)"><g transform="translate(8.559)"><path class="b" d="M3.8-1.9h0a6.41,6.41,0,0,1-3-.8A.319.319,0,0,1,.5-3,6.343,6.343,0,0,1,6.6-9.5a6.094,6.094,0,0,1,3.2.8.52.52,0,0,1,.2.4A6.191,6.191,0,0,1,3.9-1.9H3.8ZM1.5-3.3a5.932,5.932,0,0,0,2.3.5h0A5.315,5.315,0,0,0,9.1-8,5.423,5.423,0,0,0,2-5.5a5.45,5.45,0,0,0-.5,2.2Z"/></g><path class="b" d="M6.8-1.9A6.274,6.274,0,0,1,.5-8.2v-.2c0-.2.1-.3.3-.4A6.255,6.255,0,0,1,9.3-6.3a7.216,7.216,0,0,1,.8,3.2c0,.2-.1.3-.3.4A5.419,5.419,0,0,1,6.8-1.9ZM1.5-8A5.335,5.335,0,0,0,6.9-2.8,4.99,4.99,0,0,0,9-3.3,5.151,5.151,0,0,0,3.6-8.5,5.374,5.374,0,0,0,1.5-8Z"/></g><g transform="translate(0 7.185)"><g transform="translate(8.559)"><path class="b" d="M3.8-1.9h0a6.41,6.41,0,0,1-3-.8A.319.319,0,0,1,.5-3,6.343,6.343,0,0,1,6.6-9.5a6.094,6.094,0,0,1,3.2.8.52.52,0,0,1,.2.4A6.191,6.191,0,0,1,3.9-1.9H3.8ZM1.5-3.3a5.932,5.932,0,0,0,2.3.5h0A5.315,5.315,0,0,0,9.1-8,5.423,5.423,0,0,0,2-5.5a5.45,5.45,0,0,0-.5,2.2Z"/></g><path class="b" d="M6.8-1.9A6.274,6.274,0,0,1,.5-8.2v-.2c0-.2.1-.3.3-.4A6.255,6.255,0,0,1,9.3-6.3a7.216,7.216,0,0,1,.8,3.2c0,.2-.1.3-.3.4A5.419,5.419,0,0,1,6.8-1.9ZM1.5-8A5.335,5.335,0,0,0,6.9-2.8,4.99,4.99,0,0,0,9-3.3,5.151,5.151,0,0,0,3.6-8.5,5.374,5.374,0,0,0,1.5-8Z"/></g></g><g transform="translate(7.591 3.109)"><circle class="t" cx="7.5" cy="7.5" r="7.5" transform="translate(0.5 -9.5)"/></g><g transform="translate(8.977 4.495)"><circle class="u" cx="6.1" cy="6.1" r="6.1" transform="translate(0.5 -9.5)"/></g><g transform="translate(4.23)"><path class="b" d="M8.9,11.6a.548.548,0,0,1-.4-.6h0a.548.548,0,0,1,.6-.4h0a.548.548,0,0,1,.4.6h0a.664.664,0,0,1-.5.4H9C9,11.7,9,11.7,8.9,11.6Zm4.2-.3c-.1-.3.1-.5.4-.6h0c.3-.1.5.1.6.4h0c.1.3-.1.5-.4.6h-.1a1,1,0,0,1-.5-.4ZM4.6,9.6h0a.605.605,0,0,1-.1-.8h0a.483.483,0,0,1,.7,0h0a.494.494,0,0,1,.1.7h0a.52.52,0,0,1-.4.2h0c-.1,0-.2-.1-.3-.1Zm12.8-.1a.494.494,0,0,1,.1-.7h0a.494.494,0,0,1,.7.1h0a.494.494,0,0,1-.1.7h0a.367.367,0,0,1-.3.1h0a.52.52,0,0,1-.4-.2ZM1.6,5.8a.574.574,0,0,1,.2-.7h0a.574.574,0,0,1,.7.2h0a.574.574,0,0,1-.2.7h0c-.1,0-.1,0-.2.1h0a.55.55,0,0,1-.5-.3ZM20.4,6a.43.43,0,0,1-.2-.7h0a.43.43,0,0,1,.7-.2h0a.43.43,0,0,1,.2.7h0a.55.55,0,0,1-.5.3h0c-.1,0-.1,0-.2-.1ZM.5,1.1A.472.472,0,0,1,1,.6H1a.472.472,0,0,1,.5.5h0a.472.472,0,0,1-.5.5H1a.472.472,0,0,1-.5-.5Zm20.6,0h0a.472.472,0,0,1,.5-.5h0a.472.472,0,0,1,.5.5h0a.472.472,0,0,1-.5.5h0a.536.536,0,0,1-.5-.5ZM1.8-2.9a.574.574,0,0,1-.2-.7h0a.574.574,0,0,1,.7-.2h0a.43.43,0,0,1,.2.7h0a.764.764,0,0,1-.5.2H1.8Zm18.3-.3h0a.574.574,0,0,1,.2-.7h0a.574.574,0,0,1,.7.2h0a.574.574,0,0,1-.2.7h0c-.1,0-.1.1-.2.1h0a.55.55,0,0,1-.5-.3ZM4.5-6.6a.467.467,0,0,1,.1-.7h0a.494.494,0,0,1,.7.1h0a.494.494,0,0,1-.1.7h0c-.1,0-.2.1-.3.1h0a.52.52,0,0,1-.4-.2Zm12.9,0h0a.494.494,0,0,1-.1-.7h0a.494.494,0,0,1,.7-.1h0a.494.494,0,0,1,.1.7h0a.52.52,0,0,1-.4.2h0a.367.367,0,0,1-.3-.1ZM8.5-8.8c0-.3.1-.6.4-.6h0c.3-.1.5.1.6.4h0c.1.3-.1.5-.4.6H9a.664.664,0,0,1-.5-.4Zm5,.3h0a.548.548,0,0,1-.4-.6h0a.548.548,0,0,1,.6-.4h0a.548.548,0,0,1,.4.6h0a.664.664,0,0,1-.5.4h-.1Z"/></g><g transform="translate(10.477 6.014)"><path class="t" d="M5.1-8.5A3.585,3.585,0,0,1,8.7-4.9,3.585,3.585,0,0,1,5.1-1.3,3.585,3.585,0,0,1,1.5-4.9h0A3.585,3.585,0,0,1,5.1-8.5m0-1A4.588,4.588,0,0,0,.5-4.9,4.526,4.526,0,0,0,5.1-.3,4.526,4.526,0,0,0,9.7-4.9h0A4.653,4.653,0,0,0,5.1-9.5Z"/><g transform="translate(3.727 4.005)"><path class="t" d="M.9-8.3H.5V-9.5H.9Z"/></g><g transform="translate(4.287 4.005)"><path class="t" d="M1.6-8.3H1.4L.9-8.8v.6H.5V-9.4H.8l.5.6v-.6h.4Z"/></g><g transform="translate(1.901 1.929)"><path class="t" d="M4.7-6a1.766,1.766,0,0,1-2.3.8,1.781,1.781,0,0,1-1-1.6h0A1.685,1.685,0,0,1,3.1-8.5a1.781,1.781,0,0,1,1.6,1l.9-.2A2.633,2.633,0,0,0,2.2-9.3,2.731,2.731,0,0,0,.7-5.8,2.615,2.615,0,0,0,4.2-4.3,2.758,2.758,0,0,0,5.7-5.8Z"/></g></g><g transform="translate(0 52.443)"><path class="v" d="M30.9-8.4a.972.972,0,0,0-1.1-1c-.2,0-26.6.2-26.6.2H3.1a.52.52,0,0,0-.4-.2h0a.856.856,0,0,0-.9.7.6.6,0,0,0-.1.4v.1C.5-3.1-.2,2.5,1.8,7.5a15.345,15.345,0,0,0,3.9,5.6A10.964,10.964,0,0,0,12,15.9a17.708,17.708,0,0,0,4.6,0,2.769,2.769,0,0,0,.9-.1,15.683,15.683,0,0,0,4.3-.4.367.367,0,0,0,.3-.1h.1c4.2-1.1,6.4-5.7,7.5-9.6C31.1,1.2,31-3.7,30.9-8.4ZM25.6-5.1h.1v.4c0-.1-.1-.3-.1-.4Zm1.2,13c.2-.5.4-1.1.6-1.6-.2.5-.4,1.1-.6,1.6Z"/></g></g></g></svg>