<svg xmlns="http://www.w3.org/2000/svg" xmlns:xlink="http://www.w3.org/1999/xlink" viewBox="0 0 303.905 186.424"><defs><style>.a{fill:#1a1818;}.b{fill:#98c989;}.c{fill:#040506;}.d{fill:#262626;}.e{fill:#55b257;}.f{fill:#fff;}.g{fill:#ddd;}.h{fill:#8fc475;}.i{fill:#1a1718;}.j{fill:#9a9a99;}.k{fill:#59ac33;}.l{fill:#6b879b;}.m{fill:#90c475;}.n{fill:#c9e2be;}.o,.r{fill:#010202;}.p{clip-path:url(#a);}.q{clip-path:url(#b);}.r,.s{stroke:#55ad42;}.r,.s,.t{stroke-miterlimit:10;}.s,.t{fill:none;}.t{stroke:#727c70;}.u{fill:#54ad41;}.v{fill:#8ea08f;}.w{fill:#030405;}</style><clipPath id="a"><path d="M7.6,12.8A9.658,9.658,0,0,0,.5,24.5L31,147.5a9.642,9.642,0,0,0,11.7,7l50.1-12.4a9.658,9.658,0,0,0,7.1-11.7L69.5,7.4A9.642,9.642,0,0,0,57.8.4Z"/></clipPath><clipPath id="b"><rect width="155.8" height="153.4" transform="translate(0.245 37.607) rotate(-13.922)"/></clipPath></defs><g transform="translate(-0.3 0.418)"><g transform="translate(93.816 71.147)"><path class="a" d="M80.2,21.8C56.8,17.2,60.3,3.1,41.9.3S10.4,18.1.3,32.1c0,0,10.3,23,71.1,40.7S189.9,52.7,189.9,52.7c-2.6-5.9-20-36.9-52.9-43.3S103.6,26.4,80.2,21.8Z"/></g><path class="b" d="M129.6,35.4c-44.3.4-41.1,55.4-68.9,59,0,0,8.9,24.1,44.7,33.5s81.4-3.6,81.4-3.6C169.4,117.2,173.8,34.9,129.6,35.4Z"/><g transform="translate(93.666 16.766)"><path class="c" d="M5.7,10.6a24.424,24.424,0,0,0,5,34.2h0a3.039,3.039,0,0,0,.7.5c11.5,8.2,27.5,5.9,35.8-5.1A24.424,24.424,0,0,0,42.2,6a3.039,3.039,0,0,0-.7-.5C30-2.7,14-.4,5.7,10.6ZM41.1,6.2a23.747,23.747,0,0,1,6.1,33c-.2.2-.3.5-.5.7C38.6,50.7,23,52.9,11.9,45A23.747,23.747,0,0,1,5.8,12c.2-.2.3-.5.5-.7C14.4.5,29.9-1.7,41.1,6.2Z"/><path class="c" d="M38.4,49.1l-.5-1.8L32.7,49l.6,2.2Z"/><path class="d" d="M6.3,11.2a23.674,23.674,0,0,0,4.9,33.2c.2.2.5.3.7.5a25.307,25.307,0,0,0,34.8-5A23.674,23.674,0,0,0,41.8,6.7h0a3.039,3.039,0,0,0-.7-.5C29.9-1.7,14.4.5,6.3,11.2ZM40.7,6.7c10.8,7.9,13.3,22.5,5.5,33s-23.1,12.6-34,4.8A23.245,23.245,0,0,1,6.3,12.2c.2-.2.3-.5.5-.7C14.3,1.5,30-1.1,40.7,6.7Z"/><g transform="translate(0.331 0.297)"><g transform="translate(4.635 9.848)"><path class="c" d="M42.6,29.7l-.7.1.1.7.7-.1Z"/><path class="c" d="M1,.1.3.2.4.9,1.1.8Z"/></g><g transform="translate(0 20.972)"><path class="c" d="M51.4.1,51,.7l.6.4L52,.5Z"/><path class="c" d="M.7,7.3l-.4.6.6.4.4-.6Z"/></g><g transform="translate(10.385 4.743)"><path class="c" d="M30.3.2l.1.7.7-.1L31,.1Z"/><path class="c" d="M.3,40l.1.7.7-.1L1,39.9Z"/></g><g transform="translate(21.261)"><path class="c" d="M.3.6.9,1,1.3.4.7.1Z"/><path class="c" d="M8.4,49.8l.6.4.4-.6-.6-.4Z"/></g><g transform="translate(0.177 0.159)"><g transform="translate(3.884 10.457)"><path class="c" d="M43.7,28.2l-.7.1.1.7.7-.1Z"/><path class="c" d="M1,.1.3.2.4.9,1.1.8Z"/></g><g transform="translate(0 19.874)"><path class="c" d="M51,.1l-.4.6.6.4.4-.6Z"/><path class="c" d="M.7,9.2l-.4.6.6.4.4-.6Z"/></g><g transform="translate(11.008 4.017)"><path class="c" d="M28.7.2l.1.7.7-.1L29.4.1Z"/><path class="c" d="M.3,41.2l.1.7.7-.1L1,41Z"/></g><g transform="translate(20.116)"><path class="c" d="M.3.7l.6.4L1.3.5.7.1Z"/><path class="c" d="M10.3,49.5l.6.4.4-.6-.6-.4Z"/></g></g><g transform="translate(0.404 0.368)"><g transform="translate(3.091 11.071)"><path class="c" d="M44.8,26.5l-.7.2.2.7.7-.2Z"/><path class="c" d="M1,.1.3.2.5.9,1.2.7Z"/></g><g transform="translate(0 18.692)"><path class="c" d="M50.5.1l-.4.6.6.4.4-.6Z"/><path class="c" d="M.7,11.1l-.4.6.6.4.4-.6Z"/></g><g transform="translate(11.638 3.249)"><path class="c" d="M27,.2l.2.7.7-.2L27.7,0Z"/><path class="c" d="M.3,42.3l.1.7.7-.2L1,42.1Z"/></g><g transform="translate(18.887)"><path class="c" d="M.3.7l.6.4L1.3.5.7.1Z"/><path class="c" d="M12.4,49.1l.6.4.4-.6-.6-.4Z"/></g><g transform="translate(0.256 0.234)"><g transform="translate(2.327 11.645)"><path class="c" d="M45.8,24.9l-.7.2.2.7.7-.2Z"/><path class="c" d="M1,.1.3.3.5,1,1.2.8Z"/></g><g transform="translate(0 17.534)"><path class="c" d="M50,.1l-.4.6.7.4.4-.6Z"/><path class="c" d="M.6,13l-.4.6.7.4.4-.6Z"/></g><g transform="translate(12.224 2.512)"><path class="c" d="M25.3.3l.2.7.7-.2L26,.1Z"/><path class="c" d="M.3,43.3l.2.7.7-.2L1,43.1Z"/></g><g transform="translate(17.681)"><path class="c" d="M.3.7l.7.4L1.4.5.6.1Z"/><path class="c" d="M14.3,48.7l.7.4.4-.6-.7-.4Z"/></g></g></g><g transform="translate(0.96 0.881)"><g transform="translate(1.545 12.212)"><path class="c" d="M46.7,23.2l-.7.2.2.7.7-.2Z"/><path class="c" d="M1,.1.3.3.5,1,1.2.8Z"/></g><g transform="translate(0 16.324)"><path class="c" d="M49.4.1,49,.7l.7.3L50,.4Z"/><path class="c" d="M.6,14.9l-.3.6.7.3.3-.6Z"/></g><g transform="translate(12.804 1.753)"><path class="c" d="M23.5.3l.2.7.7-.2L24.2.1Z"/><path class="c" d="M.3,44.3l.2.7.7-.2L1,44.1Z"/></g><g transform="translate(16.424)"><path class="c" d="M.3.7.9,1,1.2.4.6.1Z"/><path class="c" d="M16.2,48.2l.7.3.3-.6-.7-.3Z"/></g><g transform="translate(0.332 0.308)"><g transform="translate(0.773 12.75)"><path class="c" d="M47.6,21.4l-.7.2.3.7.7-.2Z"/><path class="c" d="M1,.1.3.3.5,1,1.2.8Z"/></g><g transform="translate(0 15.116)"><path class="c" d="M48.7.1l-.3.7.7.2.3-.7Z"/><path class="c" d="M.6,16.7l-.3.7.7.3.3-.7Z"/></g><g transform="translate(13.352 1.009)"><path class="c" d="M21.7.3,22,1l.7-.2L22.4.1Z"/><path class="c" d="M.3,45.2l.3.7.7-.2L1,44.9Z"/></g><g transform="translate(15.167)"><path class="c" d="M.3.7,1,1,1.3.3.6.1Z"/><path class="c" d="M18.1,47.6l.7.3.3-.7-.7-.3Z"/></g></g><g transform="translate(0.319 0.53)"><g transform="translate(0.368 13.424)"><path class="c" d="M48.4,19.6l-.7.3.3.7.7-.3Z"/><path class="c" d="M1,.1.3.3.6,1,1.3.7Z"/></g><g transform="translate(0.398 13.967)"><path class="c" d="M47.9.1l-.3.7.7.2.3-.7Z"/><path class="c" d="M.6,18.5l-.3.7.7.3.3-.7Z"/></g><g transform="translate(14.301 0.368)"><path class="c" d="M19.8.3l.3.7.7-.3L20.5,0Z"/><path class="c" d="M.3,46l.3.7.7-.3L1,45.8Z"/></g><g transform="translate(14.228 0.138)"><path class="c" d="M.3.7,1,1,1.3.3.6.1Z"/><path class="c" d="M20,46.9l.7.3.3-.7-.7-.3Z"/></g><g transform="translate(0 14.307)"><path class="c" d="M49.1,17.9l-.7.3.3.7.7-.3Z"/><path class="c" d="M1,.1.3.4.6,1,1.3.7Z"/></g><g transform="translate(0.802 13.095)"><path class="c" d="M47.1.1l-.3.7.7.2.3-.7Z"/><path class="c" d="M.5,20.3.3,21l.7.2.3-.7Z"/></g><g transform="translate(15.212)"><path class="c" d="M18,.4l.3.6L19,.7,18.7,0Z"/><path class="c" d="M.3,46.8l.3.7.7-.3L1,46.5Z"/></g><g transform="translate(13.333 0.518)"><path class="c" d="M.3.7,1,1,1.3.3.5.1Z"/><path class="c" d="M21.8,46.1l.7.3.3-.7-.8-.2Z"/></g></g></g></g><g transform="translate(0.489 0.572)"><g transform="translate(0.476 0.487)"><g transform="translate(0.289 15.924)"><path class="c" d="M49.8,15.9l-.7.3.3.6.7-.3Z"/><path class="c" d="M.9.1.3.4.6,1,1.3.7Z"/></g><g transform="translate(1.925 12.809)"><path class="c" d="M46.1.1l-.2.7.7.2.2-.7Z"/><path class="c" d="M.5,22.2l-.2.7.7.2.2-.7Z"/></g><g transform="translate(16.862 0.292)"><path class="c" d="M16,.4l.3.6L17,.7,16.7.1Z"/><path class="c" d="M.3,47.5l.3.6.7-.3L1,47.2Z"/></g><g transform="translate(13.025 1.615)"><path class="c" d="M.3.8,1,1,1.2.3.5.1Z"/><path class="c" d="M23.7,45.3l.7.2.2-.7-.7-.2Z"/></g><g transform="translate(0 16.828)"><path class="c" d="M50.3,14.1l-.7.3.4.6.7-.3Z"/><path class="c" d="M.9.1.3.4.7,1,1.4.7Z"/></g><g transform="translate(2.404 11.975)"><path class="c" d="M45.2.1,45,.8l.7.2.2-.7Z"/><path class="c" d="M.5,23.9l-.2.7.7.2.2-.7Z"/></g><g transform="translate(17.802)"><path class="c" d="M14.1.4l.3.6.7-.3L14.7.1Z"/><path class="c" d="M.3,48.1l.4.6.7-.3L1,47.8Z"/></g><g transform="translate(12.167 2.074)"><path class="c" d="M.3.8,1,1,1.2.3.5.1Z"/><path class="c" d="M25.4,44.4l.7.2.2-.7-.7-.2Z"/></g></g><g transform="translate(0.213 18.275)"><path class="c" d="M50.8,12.2l-.6.4.4.6.6-.4Z"/><path class="c" d="M.9.1.3.4.7,1,1.3.6Z"/></g><g transform="translate(3.414 11.607)"><path class="c" d="M44.1.1l-.2.7.7.2.2-.7Z"/><path class="c" d="M.4,25.6l-.2.7.8.2.2-.7Z"/></g><g transform="translate(19.271 0.217)"><path class="c" d="M12.1.4l.4.6.6-.4L12.7,0Z"/><path class="c" d="M.3,48.6l.4.6.6-.4-.4-.6Z"/></g><g transform="translate(11.766 3.062)"><path class="c" d="M.3.8,1,.9,1.2.2.4.1Z"/><path class="c" d="M27.2,43.4l.7.2.2-.7-.7-.2Z"/></g><g transform="translate(0 19.202)"><path class="c" d="M51.2,10.3l-.6.4.4.6.6-.4Z"/><path class="c" d="M.9.1.3.5l.4.6L1.3.7Z"/></g><g transform="translate(3.959 10.807)"><rect class="c" width="0.7" height="0.7" transform="translate(42.827 0.807) rotate(-78.522)"/><rect class="c" width="0.7" height="0.7" transform="translate(0.28 27.987) rotate(-78.516)"/></g><g transform="translate(20.229)"><path class="c" d="M10.2.5l.4.6.6-.4L10.8.1Z"/><path class="c" d="M.3,49.1l.4.6.6-.4-.4-.6Z"/></g><g transform="translate(10.947 3.579)"><rect class="c" width="0.7" height="0.7" transform="translate(0.238 0.821) rotate(-78.522)"/><rect class="c" width="0.7" height="0.7" transform="translate(28.854 42.346) rotate(-78.522)"/></g></g><g transform="translate(0.017 0.061)"><g transform="translate(0.159 0.18)"><g transform="translate(0.134 20.488)"><path class="c" d="M51.6,8.4l-.6.4.4.6L52,9Z"/><path class="c" d="M.9.1.3.5l.4.6L1.3.7Z"/></g><g transform="translate(4.862 10.343)"><path class="c" d="M41.8.1l-.1.7.7.1.1-.7Z"/><path class="c" d="M.4,28.8l-.1.7.7.2.1-.7Z"/></g><g transform="translate(21.533 0.144)"><path class="c" d="M8.2.5l.4.6L9.2.7,8.8.1Z"/><path class="c" d="M.3,49.5l.4.6.6-.4-.4-.6Z"/></g><g transform="translate(10.446 4.471)"><path class="c" d="M.3.8,1,.9,1.1.2.4.1Z"/><path class="c" d="M30.5,41.3l.7.1.1-.7-.7-.1Z"/></g><g transform="translate(0 21.431)"><path class="c" d="M51.8,6.5l-.6.4.5.6.6-.4Z"/><path class="c" d="M.9.1.3.5l.5.6L1.4.7Z"/></g><g transform="translate(5.473 9.586)"><path class="c" d="M40.6.1l-.1.7.7.1.1-.7Z"/><path class="c" d="M.4,30.4l-.1.7.7.1.1-.7Z"/></g><g transform="translate(22.507)"><path class="c" d="M6.2.5l.5.6L7.3.7,6.8.1Z"/><path class="c" d="M.3,49.8l.5.6.6-.4-.5-.6Z"/></g><g transform="translate(9.673 5.05)"><path class="c" d="M.3.8,1,.9,1.1.2.4.1Z"/><path class="c" d="M32.1,40.2l.7.1.1-.7-.7-.1Z"/></g></g><g transform="translate(0.056 22.601)"><path class="c" d="M52,4.5l-.6.5.5.6.6-.5Z"/><path class="c" d="M.8.1.3.5l.5.6L1.4.6Z"/></g><g transform="translate(6.299 9)"><path class="c" d="M39.3.1l-.1.7.7.1L40,.1Z"/><path class="c" d="M.3,31.9l-.1.7.8.1.1-.7Z"/></g><g transform="translate(23.687 0.072)"><path class="c" d="M4.2.5l.5.6L5.3.6,4.7.1Z"/><path class="c" d="M.3,50l.5.6.6-.5-.5-.6Z"/></g><g transform="translate(9.05 5.867)"><path class="c" d="M.3.8,1,.9,1.1.2.3.1Z"/><path class="c" d="M33.7,38.9l.7.1.1-.7-.7-.1Z"/></g><g transform="translate(0 23.553)"><path class="c" d="M52.1,2.6l-.5.5.4.5.5-.5Z"/><path class="c" d="M.8.1.3.6l.5.5L1.3.6Z"/></g><g transform="translate(6.97 8.294)"><path class="c" d="M37.9.1V.8h.7V.1Z"/><path class="c" d="M.3,33.4v.7H1v-.7Z"/></g><g transform="translate(24.675)"><path class="c" d="M2.2.6l.5.5L3.2.6,2.7.1Z"/><path class="c" d="M.3,50.2l.5.5.5-.5-.5-.5Z"/></g><g transform="translate(8.328 6.506)"><path class="c" d="M.3.8H1V.1H.3Z"/><path class="c" d="M35.2,37.7h.7V37h-.7Z"/></g></g><g transform="translate(0 24.575)"><path class="c" d="M52.1.6l-.5.5.5.5.5-.5Z"/><path class="c" d="M.8.1.3.6l.5.5L1.3.6Z"/></g><g transform="translate(7.711 7.615)"><path class="c" d="M36.5.1V.8h.7V.1Z"/><path class="c" d="M.3,34.8v.7H1v-.7Z"/></g><g transform="translate(25.589)"><path class="c" d="M.3.6l.5.5L1.3.6.8.1Z"/><path class="c" d="M.4,50.3l.5.5.5-.5-.5-.5Z"/></g><g transform="translate(7.626 7.234)"><path class="c" d="M.3.8H1V.1H.3Z"/><path class="c" d="M36.6,36.3h.7v-.7h-.7Z"/></g><g transform="translate(0.022 0.009)"><g transform="translate(0 24.151)"><path class="c" d="M52,.1l-.5.5.6.5.5-.5Z"/><path class="c" d="M.8,1.4.3,2l.6.5L1.4,2Z"/></g><g transform="translate(8.389 6.931)"><path class="c" d="M35,.1V.8h.7V.1Z"/><path class="c" d="M.3,36.2v.7H1v-.7Z"/></g><g transform="translate(24.58)"><path class="c" d="M.3.6l.6.5L1.4.6.8.1Z"/><path class="c" d="M2.4,50.3l.6.5.5-.5-.6-.5Z"/></g><g transform="translate(6.904 7.901)"><path class="c" d="M.3.8H1V.1H.3Z"/><path class="c" d="M38,35h.7v-.7H38Z"/></g></g><g transform="translate(0.085 0.057)"><g transform="translate(0 23.106)"><path class="c" d="M51.9.1l-.5.5.6.5.5-.5Z"/><path class="c" d="M.8,3.4.3,4l.6.5L1.4,4Z"/></g><g transform="translate(9.083 6.196)"><path class="c" d="M33.5.1l.1.7h.7L34.2.1Z"/><path class="c" d="M.3,37.6l.1.7.7-.1L1,37.5Z"/></g><g transform="translate(23.489)"><path class="c" d="M.3.6l.6.5L1.4.6.8.1Z"/><path class="c" d="M4.4,50.2l.6.5.5-.5-.6-.5Z"/></g><g transform="translate(6.143 8.575)"><path class="c" d="M.3.8H1V.1H.3Z"/><path class="c" d="M39.4,33.5h.7l-.1-.7-.7.1Z"/></g><g transform="translate(0.104 0.085)"><g transform="translate(0 22.07)"><path class="c" d="M51.7.1l-.5.6.6.5.5-.6Z"/><path class="c" d="M.7,5.3l-.4.6.6.5.5-.6Z"/></g><g transform="translate(9.734 5.482)"><path class="c" d="M32,.1V.9l.7-.1L32.6.1Z"/><path class="c" d="M.3,38.8l.1.7.7-.1L1,38.7Z"/></g><g transform="translate(22.406)"><path class="c" d="M.3.6l.6.5L1.4.5.7.1Z"/><path class="c" d="M6.4,50l.6.5.5-.6-.6-.5Z"/></g><g transform="translate(5.402 9.21)"><path class="c" d="M.4.9,1.1.8,1,.1H.3Z"/><path class="c" d="M40.7,32.1l.7-.1-.1-.7-.7.1Z"/></g></g></g><path class="c" d="M56.7,92.8l-17.2-44-7.4,2S48.6,97.5,48.7,97.4Z"/></g><path class="e" d="M150.9,92.9c-12.9-9.6-38.1,5.2-51.2-7.1S81.4,68.9,66,68.9C38.1,68.9,33.5,128,12.5,128c0,0,177.3-.4,179.4-.2C173.3,123.2,163.8,102.6,150.9,92.9Z"/><g transform="translate(15.447 100.094)"><path class="c" d="M148,41.4S102.9,72.5,55.6,58.7c-6.5-1.9-12.9-4.1-19.1-6.6a7.729,7.729,0,0,0-5.9-2.6h-.2C5.2,37.8.3,26.4.3,26.4c.8-1.1,1.6-2.3,2.4-3.5C10.3,11.8,19.9-1.6,32.8.2c14.4,2.1,11.5,13.5,29.7,17S81.3,1.9,106.9,6.8c12.1,2.3,21.5,9.1,28.2,16.1A66.189,66.189,0,0,1,148,41.4Z"/></g><g transform="translate(74.932 55.346)"><path class="f" d="M.3,21H11.6V4.1L5.9.1.3,4.1Z"/><rect class="g" width="3.8" height="16.9" transform="translate(11.6 4.1)"/><path class="h" d="M5.8.1c6.9,4.8,4.7,4,9.6,4C8.5-.7,10.6.1,5.8.1Z"/><path class="i" d="M6.5,9c0-3,.4-2.4-1.2-2.4C5.3,9.6,5,9,6.5,9Z"/><path class="i" d="M6.5,14.8c0-3,.4-2.4-1.2-2.4C5.3,15.4,5,14.8,6.5,14.8Z"/><path class="i" d="M12.9,21c1.6,0,1.2.6,1.2-3.2C12.5,17.8,12.9,17.1,12.9,21Z"/></g><g transform="translate(104.889 27.134)"><path class="f" d="M19.6,2.3,14,6l.2,15.7,11.3-.1L25.2,5.9Z"/><rect class="j" width="3.8" height="15.7" transform="matrix(1, -0.01, 0.01, 1, 10.121, 6.019)"/><path class="i" d="M19.6,2.3c-4.8,0-2.7-.7-9.5,3.8C15,6,12.8,6.8,19.6,2.3Z"/><path class="k" d="M18.4,10c0,2.8-.3,2.2,1.2,2.2C19.6,9.5,20,10,18.4,10Z"/><path class="k" d="M18.5,15.4c0,2.8-.3,2.2,1.2,2.2C19.7,14.8,20.1,15.4,18.5,15.4Z"/><path class="f" d="M14.1,21.7,14,13.9,4.2,14l.1,10.7Z"/><path class="j" d="M.4,24.8H4.3c-.1-12.9.4-9.4-2.1-16C-.2,15.4.3,11.9.4,24.8Z"/><path class="i" d="M14,13.9,12,8.7H2.2l2,5.2Z"/><path class="k" d="M9.8,21.8c0-3.6.4-3-1.2-3C8.6,22.4,8.2,21.8,9.8,21.8Z"/><path class="k" d="M2.9,21.8c0-3.6.4-3-1.2-3C1.7,22.4,1.3,21.9,2.9,21.8Z"/><path class="f" d="M13.5.1l.1,5.3c1.8-1.2,1.4,0,1.3-5.3Z"/><rect class="j" width="1.3" height="5.3" transform="matrix(1, -0.01, 0.01, 1, 12.173, 0.107)"/></g><g transform="translate(96.624 81.274)"><path class="c" d="M9.1,3.2,11.7.1H8.4l-2.8,3Z"/><path class="c" d="M14.3,3.2,17,.1H13.7L10.9,3.2Z"/><rect class="l" width="3.5" height="13.8" transform="translate(0.3 3.1)"/><path class="f" d="M3.8,16.9H9V3.2L6.4.1,3.8,3.2Z"/><path class="f" d="M9.1,16.9h5.3V3.2L11.8.1,9.1,3.2Z"/><path class="f" d="M14.3,16.9h5.3V3.2L17,.1,14.4,3.2Z"/><g transform="translate(5.098 4.582)"><path class="c" d="M.4.6C.4,0,.5.1.2.1.3.7.2.6.4.6Z"/><path class="c" d="M2.4.6c0-.6.1-.5-.2-.5C2.3.7,2.2.6,2.4.6Z"/><path class="c" d="M.4,2.4c0-.6.1-.5-.2-.5C.3,2.5.2,2.4.4,2.4Z"/><path class="c" d="M2.4,2.4c0-.6.1-.5-.2-.5C2.3,2.5,2.2,2.4,2.4,2.4Z"/><path class="c" d="M.4,4.3c0-.6.1-.5-.2-.5C.3,4.4.2,4.3.4,4.3Z"/><path class="c" d="M2.4,4.3c0-.6.1-.5-.2-.5C2.3,4.4,2.2,4.3,2.4,4.3Z"/><path class="c" d="M.4,6.2c0-.6.1-.5-.2-.5C.3,6.2.2,6.2.4,6.2Z"/><path class="c" d="M2.4,6.2c0-.6.1-.5-.2-.5C2.3,6.2,2.2,6.2,2.4,6.2Z"/><path class="c" d="M.4,8c0-.6.1-.5-.2-.5C.3,8.1.2,8,.4,8Z"/><path class="c" d="M2.4,8c0-.6.1-.5-.2-.5C2.3,8.1,2.2,8,2.4,8Z"/><path class="c" d="M.4,9.9c0-.6.1-.5-.2-.5C.3,10,.2,9.9.4,9.9Z"/><path class="c" d="M2.4,9.9c0-.6.1-.5-.2-.5C2.3,10,2.2,9.9,2.4,9.9Z"/><path class="c" d="M5.7.6c0-.6.1-.5-.2-.5C5.5.7,5.5.6,5.7.6Z"/><path class="c" d="M7.7.6c0-.6.1-.5-.2-.5C7.5.7,7.5.6,7.7.6Z"/><path class="c" d="M5.7,2.4c0-.6.1-.5-.2-.5C5.5,2.5,5.5,2.4,5.7,2.4Z"/><path class="c" d="M7.7,2.4c0-.6.1-.5-.2-.5C7.5,2.5,7.5,2.4,7.7,2.4Z"/><path class="c" d="M5.7,4.3c0-.6.1-.5-.2-.5C5.5,4.4,5.5,4.3,5.7,4.3Z"/><path class="c" d="M7.7,4.3c0-.6.1-.5-.2-.5C7.5,4.4,7.5,4.3,7.7,4.3Z"/><path class="c" d="M5.7,6.2c0-.6.1-.5-.2-.5C5.5,6.2,5.5,6.2,5.7,6.2Z"/><path class="c" d="M7.7,6.2c0-.6.1-.5-.2-.5C7.5,6.2,7.5,6.2,7.7,6.2Z"/><path class="c" d="M5.7,8c0-.6.1-.5-.2-.5C5.5,8.1,5.5,8,5.7,8Z"/><path class="c" d="M7.7,8c0-.6.1-.5-.2-.5C7.5,8.1,7.5,8,7.7,8Z"/><path class="c" d="M5.7,9.9c0-.6.1-.5-.2-.5C5.5,10,5.5,9.9,5.7,9.9Z"/><path class="c" d="M7.7,9.9c0-.6.1-.5-.2-.5C7.5,10,7.5,9.9,7.7,9.9Z"/><path class="c" d="M10.9.6c0-.6.1-.5-.2-.5C10.8.7,10.7.6,10.9.6Z"/><path class="c" d="M12.9.6c0-.6.1-.5-.2-.5C12.8.7,12.7.6,12.9.6Z"/><path class="c" d="M10.9,2.4c0-.6.1-.5-.2-.5C10.8,2.5,10.7,2.4,10.9,2.4Z"/><path class="c" d="M12.9,2.4c0-.6.1-.5-.2-.5C12.8,2.5,12.7,2.4,12.9,2.4Z"/><path class="c" d="M10.9,4.3c0-.6.1-.5-.2-.5C10.8,4.4,10.7,4.3,10.9,4.3Z"/><path class="c" d="M12.9,4.3c0-.6.1-.5-.2-.5C12.8,4.4,12.7,4.3,12.9,4.3Z"/><path class="c" d="M10.9,6.2c0-.6.1-.5-.2-.5C10.8,6.2,10.7,6.2,10.9,6.2Z"/><path class="c" d="M12.9,6.2c0-.6.1-.5-.2-.5C12.8,6.2,12.7,6.2,12.9,6.2Z"/><path class="c" d="M10.9,8c0-.6.1-.5-.2-.5C10.8,8.1,10.7,8,10.9,8Z"/><path class="c" d="M12.9,8c0-.6.1-.5-.2-.5C12.8,8.1,12.7,8,12.9,8Z"/><path class="c" d="M10.9,9.9c0-.6.1-.5-.2-.5C10.8,10,10.7,9.9,10.9,9.9Z"/><path class="c" d="M12.9,9.9c0-.6.1-.5-.2-.5C12.8,10,12.7,9.9,12.9,9.9Z"/></g><path class="c" d="M3.8,3.2,6.4.1H3.1L.3,3.1Z"/></g><g transform="translate(254.782 86.566)"><path class="m" d="M11.2,5c.3-.9-.8-1-.7-1.9s-1-.7-1.3-1.6C9,.6,8,1.2,7.4.5S6.2.7,5.4.3,4.4,1,3.5,1s-.8.9-1.6,1.2C1,2.5,1.6,3.5.9,4S1,5.3.4,6,.9,7.2.5,8.1s.8,1,.7,1.9,1,.7,1.3,1.6c.2.9,1.2.3,1.8,1s1.2-.2,2,.2,1-.7,1.9-.7.6-1.1,1.5-1.4.2-1.3,1-1.8-.1-1.3.4-2S10.8,5.8,11.2,5Z"/><path class="f" d="M6.8,19.1C6.2,3.4,6,7,5.9,5c-.1-1.1.1-7.4-.4-.3-.2,2.4-.2,9.9-.4,14.4A1.715,1.715,0,0,0,6.8,19.1Z"/></g><g transform="translate(43.474 96.597)"><path class="m" d="M11.2,5c.3-.9-.8-1-.7-1.9s-1-.7-1.3-1.6C9,.6,8,1.2,7.4.5S6.2.7,5.4.3,4.4,1,3.5,1s-.8.9-1.6,1.2C1,2.5,1.6,3.5.9,4S1,5.3.4,6,.9,7.2.5,8.1s.8,1,.7,1.9,1,.7,1.3,1.6c.2.9,1.2.3,1.8,1s1.2-.2,2,.2,1-.7,1.9-.7.6-1.1,1.5-1.4.2-1.3,1-1.8-.1-1.3.4-2S10.8,5.8,11.2,5Z"/><path class="f" d="M6.8,19.1C6.2,3.4,6,7,5.9,5c-.1-1.1.1-7.4-.4-.3-.2,2.4-.2,9.9-.4,14.4A1.715,1.715,0,0,0,6.8,19.1Z"/></g><path class="n" d="M287,145.6H251a9.757,9.757,0,0,0-6.9,2.8,9.164,9.164,0,0,0-2.9,6.6,9.6,9.6,0,0,1-9.8,9.4h-44a11.435,11.435,0,0,0-8,3.2,10.614,10.614,0,0,0-3.3,7.6A10.993,10.993,0,0,1,164.8,186H114.3a8.468,8.468,0,0,1-6-2.4,7.887,7.887,0,0,1-2.5-5.7,8.282,8.282,0,0,0-8.5-8.1H59.7a9,9,0,0,1-6.4-2.6,8.415,8.415,0,0,1-2.7-6.1,8.335,8.335,0,0,0-2.3-5.8,9.223,9.223,0,0,0-6.8-2.9H14.2A13.617,13.617,0,0,1,.3,139.1v-10a6.125,6.125,0,0,1,6.2-6H298C309.7,123.2,304.2,145.6,287,145.6Z"/><g transform="translate(146.728)"><path class="o" d="M7.6,12.8A9.658,9.658,0,0,0,.5,24.5L31,147.5a9.642,9.642,0,0,0,11.7,7l50.1-12.4a9.658,9.658,0,0,0,7.1-11.7L69.5,7.4A9.642,9.642,0,0,0,57.8.4Z"/><g class="p"><g transform="translate(-55.756 -14.931)"><rect class="o" width="155.8" height="153.4" transform="translate(0.245 37.607) rotate(-13.922)"/><g class="q"><g transform="translate(43.188 5.399)"><rect class="r" width="88.9" height="158" transform="translate(0.283 21.41) rotate(-13.922)"/></g></g><rect class="s" width="155.8" height="153.4" transform="translate(0.245 37.607) rotate(-13.922)"/></g></g><path class="t" d="M7.6,12.8A9.658,9.658,0,0,0,.5,24.5L31,147.5a9.642,9.642,0,0,0,11.7,7l50.1-12.4a9.658,9.658,0,0,0,7.1-11.7L69.5,7.4A9.642,9.642,0,0,0,57.8.4Z"/><g transform="translate(14.449 14.702)"><path class="f" d="M46.6,4.2l9.1,35.6a5.46,5.46,0,0,1-.1,3.1c-.1.2-.1.3-.2.5a5.417,5.417,0,0,1-3.6,3L16.2,55.5a5.435,5.435,0,0,1-6.6-3.9h0L.4,15.9A5.435,5.435,0,0,1,4.3,9.3h0L39.9.2a5.6,5.6,0,0,1,6.7,4Z"/><g transform="translate(5.347 27.597)"><path class="o" d="M47.2.1,50,11.2v4.6a5.417,5.417,0,0,1-3.6,3L26,24,4.1,23.6.3,8.7A10.556,10.556,0,0,1,5.6,5.6c.4-.1.9-.2,1.4-.3,3.9-.3,5.8,1,8,2.4a14.664,14.664,0,0,0,10.1,2.9c4.2-.1,6.4-1.9,8.4-3.9C36.4,3.9,39.1.5,47.2.1Z"/></g><path class="u" d="M14.5,59,33,54.3a1.791,1.791,0,0,1,2.1,1.2l.7,2.9a1.791,1.791,0,0,1-1.2,2.1L16.1,65.2A1.791,1.791,0,0,1,14,64l-.7-2.9A1.791,1.791,0,0,1,14.5,59Z"/><g transform="translate(18.619 15.711)"><path class="u" d="M5,1.7,1.1,6.4,5.9,25.2l9.3-2.4L10.4,4Z"/><rect class="h" width="4.7" height="19.4" transform="translate(10.377 3.991) rotate(-14.3)"/><path class="o" d="M1.1,6.4l-.8.1L4.8,1.2l6.6,2.6-.9.3L5,1.8Z"/><path class="o" d="M4.7,1.2,9.9.1l5.6,2.6L11.3,3.9Z"/><g transform="translate(2.134 6.303)"><path class="f" d="M1,.1A.949.949,0,0,0,.3,1.3L.9,3.5,2.6,3,2.1.8A.921.921,0,0,0,1,.1Z"/><path class="v" d="M1,.1H1l.7,3.2h.1L1,.1Z"/><rect class="v" width="1.8" height="0.1" transform="translate(0.322 1.328) rotate(-14.3)"/></g><g transform="translate(4.72 5.645)"><path class="f" d="M1,.1A.949.949,0,0,0,.3,1.3L.9,3.5,2.6,3,2.1.8A.921.921,0,0,0,1,.1Z"/><path class="v" d="M1,.1H1l.7,3.2h.1L1,.1Z"/><rect class="v" width="1.8" height="0.1" transform="translate(0.322 1.328) rotate(-14.3)"/></g><g transform="translate(7.303 4.988)"><path class="f" d="M1,.1A.949.949,0,0,0,.3,1.3L.9,3.5,2.6,3,2.1.8A.921.921,0,0,0,1,.1Z"/><path class="v" d="M1,.1H1l.7,3.2h.1L1,.1Z"/><rect class="v" width="1.8" height="0.1" transform="translate(0.323 1.328) rotate(-14.3)"/></g><g transform="translate(3.724 11.641)"><path class="f" d="M1,.1A.949.949,0,0,0,.3,1.3h0L.9,3.5,2.6,3,2.1.8A.921.921,0,0,0,1,.1Z"/><path class="v" d="M1,.1H1l.7,3.2h.1L1,.1Z"/><rect class="v" width="1.8" height="0.1" transform="translate(0.322 1.328) rotate(-14.3)"/></g><g transform="translate(6.31 10.984)"><path class="f" d="M1,.1A.949.949,0,0,0,.3,1.3h0L.9,3.5,2.6,3,2.1.8A.921.921,0,0,0,1,.1Z"/><path class="v" d="M1,.1H1l.7,3.2h.1L1,.1Z"/><rect class="v" width="1.8" height="0.1" transform="translate(0.322 1.327) rotate(-14.3)"/></g><g transform="translate(8.893 10.325)"><path class="f" d="M1,.1A.949.949,0,0,0,.3,1.3h0L.9,3.5,2.6,3,2.1.8A.921.921,0,0,0,1,.1Z"/><path class="v" d="M1,.1H1l.7,3.2h.1L1,.1Z"/><rect class="v" width="1.8" height="0.1" transform="translate(0.322 1.328) rotate(-14.3)"/></g><g transform="translate(5.249 17.474)"><path class="f" d="M1,.1A.949.949,0,0,0,.3,1.3L.9,3.5,2.7,3,2.1.8A.921.921,0,0,0,1,.1Z"/><path class="v" d="M1,.1H1l.7,3.2h.1L1,.1Z"/><rect class="v" width="1.8" height="0.1" transform="translate(0.322 1.328) rotate(-14.3)"/></g><g transform="translate(7.834 16.815)"><path class="f" d="M1,.1A.949.949,0,0,0,.3,1.3L.9,3.5,2.6,3,2.1.8A.921.921,0,0,0,1,.1Z"/><path class="v" d="M1,.1H1l.7,3.2h.1L1,.1Z"/><rect class="v" width="1.8" height="0.1" transform="translate(0.322 1.327) rotate(-14.3)"/></g><g transform="translate(10.418 16.156)"><path class="f" d="M1,.1A.949.949,0,0,0,.3,1.3L.9,3.5,2.6,3,2.1.8A.921.921,0,0,0,1,.1Z"/><path class="v" d="M1,.1H1l.7,3.2h.1L1,.1Z"/><rect class="v" width="1.8" height="0.1" transform="translate(0.322 1.328) rotate(-14.3)"/></g></g><g transform="translate(11.815 25.878)"><path class="n" d="M40.3.1l3.5,13.8a5.435,5.435,0,0,1-3.9,6.6h0L4.3,29.6a5.061,5.061,0,0,1-4-.5C1,23.5,1.8,16.5,6.6,13.9a5.359,5.359,0,0,1,1.1-.5,9.117,9.117,0,0,1,6.7.2,11.864,11.864,0,0,0,8.5.1,8.966,8.966,0,0,0,5.7-4.9c1.7-2.9,3.1-6.2,9.6-8.3C39,.4,39.6.2,40.3.1Z"/></g><g transform="translate(4.745 33.676)"><path class="u" d="M50.8,9.2A5.564,5.564,0,0,1,47,12.7L11.4,21.8a5.435,5.435,0,0,1-6.6-3.9h0L.3.2A7.412,7.412,0,0,1,2.4.1c5.7.5,5.7,4.4,11.2,6a19.969,19.969,0,0,0,2.6.5,8.892,8.892,0,0,0,5.3-.8C25.1,3.9,27.2,0,35.6,1h.1A25.782,25.782,0,0,1,50.8,9.2Z"/></g><path class="f" d="M61.2,61.7l9.1,35.6a5.46,5.46,0,0,1-.1,3.1c-.1.2-.1.3-.2.5a5.417,5.417,0,0,1-3.6,3L30.8,113a5.435,5.435,0,0,1-6.6-3.9L15.1,73.5A5.435,5.435,0,0,1,19,66.9h0l35.6-9.1a5.358,5.358,0,0,1,6.6,3.9Z"/><g transform="translate(19.991 85.094)"><path class="o" d="M47.2.1,50,11.2v4.6a5.417,5.417,0,0,1-3.6,3L26,24,4.1,23.6.3,8.7A10.556,10.556,0,0,1,5.6,5.6,5.768,5.768,0,0,1,7,5.3c3.8-.3,5.8,1,8,2.4a15.192,15.192,0,0,0,10.1,2.9c4.2-.1,6.4-1.9,8.4-4C36.4,3.9,39.1.5,47.2.1Z"/></g><path class="u" d="M29.2,116.5l18.5-4.7a1.791,1.791,0,0,1,2.1,1.2l.7,2.9a1.791,1.791,0,0,1-1.2,2.1l-18.5,4.7a1.791,1.791,0,0,1-2.1-1.2l-.7-2.9A1.633,1.633,0,0,1,29.2,116.5Z"/><g transform="translate(26.458 83.376)"><path class="h" d="M40.3.1l3.5,13.8a5.435,5.435,0,0,1-3.9,6.6h0L4.3,29.6a5.061,5.061,0,0,1-4-.5C1,23.5,1.8,16.5,6.6,13.9a5.359,5.359,0,0,1,1.1-.5,9.117,9.117,0,0,1,6.7.2,11.864,11.864,0,0,0,8.5.1,8.966,8.966,0,0,0,5.7-4.9c1.7-2.9,3.1-6.2,9.6-8.3C39,.4,39.6.2,40.3.1Z"/></g><g transform="translate(19.388 91.173)"><path class="u" d="M50.8,9.2A5.564,5.564,0,0,1,47,12.7L11.4,21.8a5.435,5.435,0,0,1-6.6-3.9L.3.2A7.412,7.412,0,0,1,2.4.1c5.7.5,5.7,4.4,11.2,6a19.969,19.969,0,0,0,2.6.5,8.892,8.892,0,0,0,5.3-.8C25.1,3.9,27.2,0,35.6,1h.1A25.782,25.782,0,0,1,50.8,9.2Z"/></g><g transform="translate(32.17 76.596)"><path class="f" d="M14.5,1,10.4,5.4l3.4,13.5,9.7-2.5L20,2.9Z"/><rect class="j" width="3.4" height="14" transform="translate(7.028 6.24) rotate(-14.3)"/><path class="w" d="M14.5,1C10.3,2,12,.9,7,6.2,11.2,5.2,9.5,6.3,14.5,1Z"/><path class="u" d="M15.1,7.9c.6,2.4.2,2,1.5,1.6C16,7.2,16.4,7.6,15.1,7.9Z"/><path class="u" d="M16.2,12.6c.6,2.4.2,2,1.5,1.6C17.1,11.8,17.6,12.2,16.2,12.6Z"/><path class="f" d="M13.8,18.9l-1.7-6.8L3.6,14.3,6,23.6Z"/><path class="j" d="M2.6,24.4,6,23.5C3.2,12.4,4.4,15.3.8,10.1.1,16.5-.3,13.3,2.6,24.4Z"/><path class="w" d="M12.1,12.2,9.3,8.1.8,10.3l2.8,4.1Z"/><path class="u" d="M10,19.9c-.8-3.1-.3-2.7-1.7-2.3C9.1,20.7,8.7,20.2,10,19.9Z"/><path class="u" d="M4.1,21.4c-.8-3.1-.3-2.7-1.7-2.3C3.2,22.2,2.7,21.7,4.1,21.4Z"/><path class="f" d="M8.6.4,9.8,5c1.3-1.4,1.2-.3,0-4.9Z"/><rect class="j" width="1.1" height="4.7" transform="translate(7.524 0.62) rotate(-14.3)"/></g></g></g><g transform="translate(84.548 73.685)"><path class="f" d="M20.3.5A15.765,15.765,0,1,0,37.8,14.3v-.1A15.8,15.8,0,0,0,20.3.5Zm17,13.8a15.334,15.334,0,0,1-13.2,17,15.334,15.334,0,0,1-17-13.2,15.334,15.334,0,0,1,13.2-17h0A15.261,15.261,0,0,1,37.3,14.3Z"/><path class="f" d="M16.5,31.7l.6-1-3-1.6-.8,1.2Z"/><path class="f" d="M20.3,1.1a15.263,15.263,0,1,0,17,13.3v-.1A15.334,15.334,0,0,0,20.3,1.1ZM37,14.3A14.866,14.866,0,1,1,20.4,1.4h0A15.059,15.059,0,0,1,37,14.3Z"/><g transform="translate(6.139 0.142)"><g transform="translate(13.576)"><path class="f" d="M4.8,31.6l-.4-.3-.3.4.4.3Z"/><path class="f" d="M.9.3.6.1.3.4.7.7Z"/></g><g transform="translate(3.23 6.062)"><path class="f" d="M25.5,19.3l-.5.1.1.5.5-.1Z"/><path class="f" d="M.7.1H.3L.4.6.9.5Z"/></g><g transform="translate(0 13.597)"><path class="f" d="M31.6.1l-.3.4.4.3L32,.3Z"/><path class="f" d="M.6,4.1l-.3.4.4.3L1,4.4Z"/></g><g transform="translate(6.006 3.212)"><path class="f" d="M19.5.1l.1.5L20,.5,19.9,0Z"/><path class="f" d="M.3,25.1l.1.5.5-.1L.7,25Z"/></g><g transform="translate(0.088 0.089)"><g transform="translate(12.903)"><path class="f" d="M6,31.4l-.4-.3-.3.4.4.3Z"/><path class="f" d="M.9.3.5.1.3.4.7.7Z"/></g><g transform="translate(2.774 6.447)"><path class="f" d="M26.2,18.3l-.5.1.1.5.5-.1Z"/><path class="f" d="M.7.1H.3L.4.6.9.5Z"/></g><g transform="translate(0 12.91)"><path class="f" d="M31.5.1l-.3.4.4.3.3-.4Z"/><path class="f" d="M.5,5.3l-.2.4L.7,6,1,5.6Z"/></g><g transform="translate(6.395 2.755)"><path class="f" d="M18.5.1l.1.5L19,.5V.1Z"/><path class="f" d="M.3,25.8l.1.5.5-.1-.1-.5Z"/></g></g><g transform="translate(0.206 0.21)"><g transform="translate(12.165)"><path class="f" d="M7.3,31.1l-.4-.3-.3.4.4.3Z"/><path class="f" d="M.9.3.5.1.3.5.7.7Z"/></g><g transform="translate(2.292 6.847)"><path class="f" d="M26.9,17.3l-.4.1.1.4.4-.1Z"/><path class="f" d="M.7.1.3.2.4.6.8.5Z"/></g><g transform="translate(0 12.17)"><path class="f" d="M31.2.1,31,.5l.4.3.3-.4Z"/><path class="f" d="M.5,6.5l-.2.4.4.3L1,6.8Z"/></g><g transform="translate(6.788 2.27)"><path class="f" d="M17.5.2l.1.4L18,.5,17.9.1Z"/><path class="f" d="M.3,26.5l.1.5.4-.1-.1-.4Z"/></g><g transform="translate(0.137 0.139)"><g transform="translate(11.444)"><path class="f" d="M8.4,30.8,8,30.6l-.2.4.4.2Z"/><path class="f" d="M.9.3.5.1.3.5.7.7Z"/></g><g transform="translate(1.828 7.214)"><path class="f" d="M27.5,16.3l-.4.1.1.4.4-.1Z"/><path class="f" d="M.7.1.3.2.4.6.8.5Z"/></g><g transform="translate(0 11.439)"><path class="f" d="M30.9.1l-.2.4.4.2.2-.4Z"/><path class="f" d="M.5,7.7l-.2.4.4.2L.9,8Z"/></g><g transform="translate(7.154 1.801)"><path class="f" d="M16.5.2l.1.4L17,.5,16.9.1Z"/><path class="f" d="M.3,27.2l.1.4.4-.1-.1-.4Z"/></g></g></g><g transform="translate(0.507 0.514)"><g transform="translate(10.688)"><path class="f" d="M9.6,30.5l-.4-.2-.2.4.4.2Z"/><path class="f" d="M.9.3.5.1.3.5.7.7Z"/></g><g transform="translate(1.351 7.579)"><path class="f" d="M28.2,15.2l-.4.1.1.4.4-.1Z"/><path class="f" d="M.7.1.3.2.4.6.8.5Z"/></g><g transform="translate(0 10.685)"><path class="f" d="M30.6.1l-.2.4.4.2L31,.3Z"/><path class="f" d="M.5,8.9l-.2.4.4.2.2-.4Z"/></g><g transform="translate(7.517 1.324)"><path class="f" d="M15.4.2l.1.4.4-.1L15.8.1Z"/><path class="f" d="M.3,27.8l.1.4.4-.1-.1-.4Z"/></g><g transform="translate(0.182 0.186)"><g transform="translate(9.933)"><path class="f" d="M10.8,30.1l-.4-.2-.2.4.4.2Z"/><path class="f" d="M.9.3.5.1.3.5.7.7Z"/></g><g transform="translate(0.882 7.925)"><path class="f" d="M28.7,14.1l-.4.1.1.4.4-.1Z"/><path class="f" d="M.7.1.3.2.4.6.8.5Z"/></g><g transform="translate(0 9.925)"><path class="f" d="M30.2.1,30,.5l.4.2.2-.4Z"/><path class="f" d="M.5,10.1l-.2.4.4.2.2-.4Z"/></g><g transform="translate(7.864 0.852)"><path class="f" d="M14.3.2l.1.4.4-.1L14.7.1Z"/><path class="f" d="M.3,28.4l.1.4.4-.1-.1-.4Z"/></g></g><g transform="translate(0.396 0.402)"><g transform="translate(9.13)"><path class="f" d="M11.9,29.7l-.4-.2-.2.4.4.2Z"/><path class="f" d="M.9.3.5.1.3.5.7.7Z"/></g><g transform="translate(0.392 8.274)"><path class="f" d="M29.3,13l-.4.2.2.4.4-.2Z"/><path class="f" d="M.7.1.3.2.5.6.9.4Z"/></g><g transform="translate(0 9.118)"><path class="f" d="M29.8.1l-.2.4.4.2.2-.4Z"/><path class="f" d="M.5,11.3l-.2.4.4.2.2-.4Z"/></g><g transform="translate(8.213 0.359)"><path class="f" d="M13.2.2l.2.4.4-.2L13.6,0Z"/><path class="f" d="M.3,29l.2.4.4-.2-.2-.4Z"/></g><g transform="translate(0.15 0.117)"><g transform="translate(8.426 0.114)"><path class="f" d="M13,29.2l-.4-.2-.2.4.4.2Z"/><path class="f" d="M.9.2.4.1.3.5.7.7Z"/></g><g transform="translate(0 8.71)"><path class="f" d="M29.7,11.8l-.4.2.2.4.4-.2Z"/><path class="f" d="M.7.1.3.2.5.6.9.4Z"/></g><g transform="translate(0.074 8.444)"><path class="f" d="M29.3.1l-.2.4.4.2.2-.4Z"/><path class="f" d="M.4,12.4l-.2.4.5.2.2-.4Z"/></g><g transform="translate(8.611)"><path class="f" d="M12.1.2l.2.4.4-.2L12.5,0Z"/><path class="f" d="M.3,29.4l.2.4.4-.2-.2-.4Z"/></g></g></g></g></g><g transform="translate(6.424 0.412)"><g transform="translate(0.331 0.33)"><g transform="translate(8.269 0.822)"><rect class="f" width="0.5" height="0.5" transform="translate(13.67 28.954) rotate(-70.318)"/><rect class="f" width="0.5" height="0.5" transform="translate(0.227 0.523) rotate(-70.318)"/></g><g transform="translate(0.197 9.752)"><path class="f" d="M30.2,10.6l-.4.2.2.4.4-.2Z"/><path class="f" d="M.7.1.3.3.5.7.9.5Z"/></g><g transform="translate(0.786 8.284)"><rect class="f" width="0.5" height="0.5" transform="translate(28.589 0.466) rotate(-70.367)"/><rect class="f" width="0.5" height="0.5" transform="translate(0.215 14.032) rotate(-70.367)"/></g><g transform="translate(9.653 0.197)"><path class="f" d="M10.9.3l.2.4.4-.2L11.3.1Z"/><path class="f" d="M.3,29.9l.2.4.4-.2-.2-.4Z"/></g><g transform="translate(7.736 1.099)"><rect class="f" width="0.5" height="0.5" transform="translate(14.705 28.38) rotate(-72.542)"/><rect class="f" width="0.5" height="0.5" transform="translate(0.236 0.526) rotate(-72.542)"/></g><g transform="translate(0 10.324)"><path class="f" d="M30.6,9.5l-.4.2.2.4.4-.2Z"/><path class="f" d="M.7.1.3.3.5.7.9.5Z"/></g><g transform="translate(1.06 7.747)"><rect class="f" width="0.5" height="0.5" transform="translate(28.039 0.531) rotate(-72.542)"/><rect class="f" width="0.5" height="0.5" transform="translate(0.237 15.125) rotate(-72.542)"/></g><g transform="translate(10.22)"><path class="f" d="M9.7.3l.2.4.4-.2L10.1.1Z"/><path class="f" d="M.3,30.3l.2.4.4-.2-.2-.4Z"/></g></g><g transform="translate(7.519 1.74)"><rect class="f" width="0.5" height="0.5" transform="matrix(0.261, -0.965, 0.965, 0.261, 15.825, 27.778)"/><rect class="f" width="0.5" height="0.5" transform="translate(0.244 0.528) rotate(-74.864)"/></g><g transform="translate(0.15 11.257)"><path class="f" d="M30.9,8.3l-.4.2.2.4.4-.2Z"/><path class="f" d="M.7.1.3.3.5.7.9.5Z"/></g><g transform="translate(1.699 7.529)"><rect class="f" width="0.5" height="0.5" transform="matrix(0.261, -0.965, 0.965, 0.261, 27.444, 0.53)"/><rect class="f" width="0.5" height="0.5" transform="translate(0.236 16.234) rotate(-74.864)"/></g><g transform="translate(11.15 0.15)"><path class="f" d="M8.5.3l.2.4L9.1.5,8.9.1Z"/><path class="f" d="M.3,30.7l.2.4.4-.2-.2-.4Z"/></g><g transform="translate(7.009 2.058)"><rect class="f" width="0.5" height="0.5" transform="translate(16.883 27.194) rotate(-77.067)"/><rect class="f" width="0.5" height="0.5" transform="matrix(0.224, -0.975, 0.975, 0.224, 0.252, 0.529)"/></g><g transform="translate(0 11.842)"><path class="f" d="M31.2,7.1l-.4.2.2.4.4-.2Z"/><path class="f" d="M.7.1.3.3.5.7.9.5Z"/></g><g transform="translate(2.014 7.016)"><rect class="f" width="0.5" height="0.5" transform="matrix(0.224, -0.975, 0.975, 0.224, 26.838, 0.513)"/><rect class="f" width="0.5" height="0.5" transform="matrix(0.224, -0.975, 0.975, 0.224, 0.305, 17.286)"/></g><g transform="translate(11.733)"><path class="f" d="M7.3.3l.2.4L8,.5,7.7.1Z"/><path class="f" d="M.3,31l.2.4.4-.2-.2-.4Z"/></g></g><g transform="translate(6.053 0.045)"><g transform="translate(0.139 0.131)"><g transform="translate(6.733 2.639)"><rect class="f" width="0.5" height="0.5" transform="translate(17.895 26.539) rotate(-79.327)"/><rect class="f" width="0.5" height="0.5" transform="matrix(0.185, -0.983, 0.983, 0.185, 0.261, 0.528)"/></g><g transform="translate(0.103 12.679)"><path class="f" d="M31.4,5.9l-.4.3.3.4.4-.3Z"/><path class="f" d="M.6.1.3.3.6.7,1,.4Z"/></g><g transform="translate(2.589 6.741)"><rect class="f" width="0.5" height="0.5" transform="translate(26.169 0.54) rotate(-79.28)"/><rect class="f" width="0.5" height="0.5" transform="matrix(0.186, -0.983, 0.983, 0.186, 0.281, 18.311)"/></g><g transform="translate(12.565 0.107)"><path class="f" d="M6.1.3l.3.4L6.8.4,6.5.1Z"/><path class="f" d="M.3,31.3l.3.4.4-.3L.6,31Z"/></g><g transform="translate(6.247 2.998)"><path class="f" d="M19.4,25.4l-.5-.1-.1.5.5.1Z"/><path class="f" d="M.8.1H.3V.5L.8.6Z"/></g><g transform="translate(0 13.275)"><path class="f" d="M31.6,4.7l-.3.3.3.4.3-.4Z"/><path class="f" d="M.6.1.3.3.6.7,1,.4Z"/></g><g transform="translate(2.945 6.258)"><path class="f" d="M25.6.1l-.1.5.5.1V.1Z"/><path class="f" d="M.3,18.8l-.1.5.5.1.1-.5Z"/></g><g transform="translate(13.157)"><path class="f" d="M4.9.3l.3.4L5.6.4,5.3.1Z"/><path class="f" d="M.3,31.5l.3.4.4-.3-.3-.4Z"/></g></g><g transform="translate(5.896 3.525)"><path class="f" d="M20.4,24.6h-.5V25h.5Z"/><path class="f" d="M.8.1H.3V.5H.8Z"/></g><g transform="translate(0.051 14.031)"><path class="f" d="M31.8,3.4l-.4.3.3.4.4-.3Z"/><path class="f" d="M.6.1.3.4.6.8,1,.5Z"/></g><g transform="translate(3.476 5.9)"><path class="f" d="M24.8.1l-.1.5h.5l.1-.5Z"/><path class="f" d="M.3,19.8l-.1.5H.7l.1-.5Z"/></g><g transform="translate(13.918 0.055)"><path class="f" d="M3.7.4,4,.7,4.4.4,4.1.1Z"/><path class="f" d="M.3,31.7l.3.3.4-.3-.3-.4Z"/></g><g transform="translate(5.442 3.92)"><path class="f" d="M21.3,23.8h-.5v.5h.5Z"/><path class="f" d="M.8.1H.3V.6H.8Z"/></g><g transform="translate(0 14.634)"><path class="f" d="M31.9,2.2l-.3.3.3.3.3-.3Z"/><path class="f" d="M.6.1.3.4.6.7.9.4Z"/></g><g transform="translate(3.87 5.438)"><path class="f" d="M24,.1V.6h.5V.1Z"/><path class="f" d="M.3,20.8v.5H.8v-.5Z"/></g><g transform="translate(14.517)"><path class="f" d="M2.5.4l.3.3L3.1.4,2.8.1Z"/><path class="f" d="M.3,31.8l.3.3.3-.3-.3-.3Z"/></g></g><g transform="translate(6.027)"><g transform="translate(5.024 4.384)"><path class="f" d="M22.2,23h-.5v.5h.5Z"/><path class="f" d="M.7.1H.2V.6H.7Z"/></g><g transform="translate(0.007 15.293)"><path class="f" d="M31.9,1l-.3.3.3.3.3-.3Z"/><path class="f" d="M.6.1.3.4.6.7.9.4Z"/></g><g transform="translate(4.337 5.016)"><path class="f" d="M23.1.1V.6h.5V.1Z"/><path class="f" d="M.3,21.7v.5H.8v-.5Z"/></g><g transform="translate(15.181 0.002)"><path class="f" d="M1.2.4l.3.3L1.8.4,1.6.1Z"/><path class="f" d="M.3,31.9l.3.3.3-.3-.3-.3Z"/></g><g transform="translate(4.598 4.814)"><path class="f" d="M23.1,22.1h-.5v.5H23Z"/><path class="f" d="M.7.1H.3V.6H.8V.1Z"/></g><g transform="translate(0 15.579)"><path class="f" d="M31.9.1l-.3.3.3.3.3-.3Z"/><path class="f" d="M.6.4.3.7.6,1,.9.7Z"/></g><g transform="translate(4.763 4.592)"><path class="f" d="M22.3.1V.6h.5V.1Z"/><path class="f" d="M.3,22.6V23H.8v-.5Z"/></g><g transform="translate(15.551)"><path class="f" d="M.3.4.6.7.9.4.6.1Z"/><path class="f" d="M.5,31.9l.3.3.3-.3-.3-.3Z"/></g><g transform="translate(0.017 0.016)"><g transform="translate(4.141 5.249)"><path class="f" d="M23.9,21.2h-.5v.5h.5Z"/><path class="f" d="M.7.1H.2V.6H.7Z"/></g><g transform="translate(0 14.932)"><path class="f" d="M31.9.1l-.3.3.3.3.3-.3Z"/><path class="f" d="M.6,1.7.3,2l.3.3L.9,2Z"/></g><g transform="translate(5.194 4.129)"><path class="f" d="M21.4.1V.6h.5V.1Z"/><path class="f" d="M.3,23.4v.5H.8v-.5Z"/></g><g transform="translate(14.905)"><path class="f" d="M.3.4.6.7.9.4.6.1Z"/><path class="f" d="M1.8,31.9l.3.3.3-.3-.3-.3Z"/></g><g transform="translate(0.04 0.044)"><g transform="translate(3.696 5.655)"><path class="f" d="M24.7,20.3h-.5v.5h.5Z"/><path class="f" d="M.7.1H.2V.6H.7Z"/></g><g transform="translate(0 14.284)"><path class="f" d="M31.8.1l-.3.4.3.3.3-.4Z"/><path class="f" d="M.6,2.9l-.3.3.3.3.3-.4Z"/></g><g transform="translate(5.6 3.68)"><path class="f" d="M20.4.1V.6h.5V.1Z"/><path class="f" d="M.3,24.3v.5H.8v-.5Z"/></g><g transform="translate(14.265)"><path class="f" d="M.3.4.6.7.9.3.6.1Z"/><path class="f" d="M3,31.8l.3.3.3-.4-.3-.3Z"/></g></g></g></g><path class="f" d="M5.8,52.3,17.1,31.8,13,29.6S.2,50.7.3,50.8Z"/></g></g></svg>