<svg xmlns="http://www.w3.org/2000/svg" viewBox="0 0 63.3 63.1"><defs><style>.a{fill:#85ca8e;}.b{fill:#45bf55;}.c{fill:#1a171b;}</style></defs><g transform="translate(-111.556 -101.694)"><g transform="translate(125.107 116.117)"><g transform="translate(30.546)"><path class="a" d="M13.5.7A4.8,4.8,0,0,0,8.7,5.5h0V38.3H-1a9.6,9.6,0,0,0,19.2,0V5.5A4.654,4.654,0,0,0,13.5.7Z"/></g><g transform="translate(0 21.68)"><path class="a" d="M18,8.9H13.2v4.8L4.5,8.9H-.3v7.7H22.8V.2H18Z"/></g></g><g transform="translate(120.179 105.228)"><g transform="translate(23.649 1.033)"><rect class="b" width="4.8" height="10.6" transform="translate(-0.7 0.9)"/></g><g transform="translate(4.928 16.802)"><path class="b" d="M18,3.5H13.2V8.3L4.5,3.5H-.3v7.7H22.8V.6H18Z"/></g><path class="b" d="M7.5,13.1l4.8,2.5-.9-5.3,3.9-3.8L9.9,5.8,7.5,1,5.2,5.8l-5.3.8,3.9,3.8-.9,5.3Z"/></g><g transform="translate(111.556 100.594)"><path class="c" d="M57.6,15.5H43.9V1.8a.684.684,0,0,0-.7-.7H35.5a.684.684,0,0,0-.7.7.684.684,0,0,0,.7.7h7V53.8a10.123,10.123,0,0,0,5.1,8.9H16.2a8.92,8.92,0,0,1-8.9-8.9v-7H18l8.5,4.7a.854.854,0,0,0,.7,0,.822.822,0,0,0,.4-.6V46.8h4.1a.684.684,0,0,0,.7-.7V35.5a.684.684,0,0,0-.7-.7H7.3V25.6H18l8.5,4.7a.854.854,0,0,0,.7,0,.822.822,0,0,0,.4-.6V25.6h4.1a.684.684,0,0,0,.7-.7V1.8a.684.684,0,0,0-.7-.7H.8a.773.773,0,0,0-.8.7H0V24.9a.684.684,0,0,0,.7.7H5.8v9.2H.8a.684.684,0,0,0-.7.7h0V46.1a.684.684,0,0,0,.7.7H5.9v7A10.392,10.392,0,0,0,16.3,64.2H52.9A10.456,10.456,0,0,0,63.3,53.8V21.1A5.881,5.881,0,0,0,57.6,15.5ZM1.5,24.2V2.5H30.9V24.2H26.8a.684.684,0,0,0-.7.7v3.6l-7.6-4.2c-.1-.1-.2-.1-.4-.1Zm0,21.2V36.2H30.9v9.2H26.8a.684.684,0,0,0-.7.7h0v3.6l-7.6-4.2c-.1-.1-.2-.1-.4-.1Zm42.4,3.4H48a.7.7,0,0,0,0-1.4H43.9V43H48a.7.7,0,1,0,0-1.4H43.9V37.3H48a.7.7,0,0,0,0-1.4H43.9V31.6H48a.7.7,0,1,0,0-1.4H43.9V25.9H48a.7.7,0,1,0,0-1.4H43.9V17h10a5.238,5.238,0,0,0-1.8,4.1v32H43.9Zm17.8,5a8.914,8.914,0,0,1-17.8.7h8.9a.684.684,0,0,0,.7-.7h0V21.1a4.1,4.1,0,0,1,8.2-.2V53.8Z"/><g transform="translate(7.884 3.928)"><path class="c" d="M13,17a.684.684,0,0,0,.7-.7v-.1l-.8-4.9,3.6-3.5a.668.668,0,0,0,0-1,.758.758,0,0,0-.4-.2l-4.9-.7L8.9,1.3a.751.751,0,0,0-1-.2c-.1,0-.2.1-.3.2L5.4,5.8.5,6.5a.779.779,0,0,0-.6.9.52.52,0,0,0,.2.4l3.6,3.5-.8,4.9a.547.547,0,0,0,.5.8.9.9,0,0,0,.5-.1l4.4-2.3,4.4,2.3A.367.367,0,0,0,13,17ZM8.6,13.2a.854.854,0,0,0-.7,0L4.5,15l.7-3.9c0-.2,0-.5-.2-.6L2.1,7.8,6,7.2a.664.664,0,0,0,.5-.4L8.2,3.3,10,6.8a.664.664,0,0,0,.5.4l3.9.6-2.8,2.7a.735.735,0,0,0-.2.6l.7,3.9Z"/></g><g transform="translate(14.2 39.913)"><path class="c" d="M13.8.9a.684.684,0,0,0-.7-.7H.4A.684.684,0,0,0-.3.9a.684.684,0,0,0,.7.7H13A.773.773,0,0,0,13.8.9Z"/></g><g transform="translate(4.434 39.913)"><path class="c" d="M6.3.2H.6A.684.684,0,0,0-.1.9a.684.684,0,0,0,.7.7H6.3A.684.684,0,0,0,7,.9.684.684,0,0,0,6.3.2Z"/></g><g transform="translate(59.126 9.856)"><path class="c" d="M-.6,2.3H3.3A.684.684,0,0,0,4,1.6.684.684,0,0,0,3.3.9H-.6a.684.684,0,0,0-.7.7A.684.684,0,0,0-.6,2.3Z"/></g><g transform="translate(48.286)"><path class="c" d="M-.3,12.1H5.5a.7.7,0,0,0,0-1.4H.4V1.8a.684.684,0,0,0-.7-.7.684.684,0,0,0-.7.7v9.6C-1.1,11.8-.7,12.1-.3,12.1Z"/></g><g transform="translate(0 51.247)"><path class="c" d="M.8-.1A.773.773,0,0,0,0,.6H0V12.2a.684.684,0,0,0,.7.7.684.684,0,0,0,.7-.7h0V.6A.563.563,0,0,0,.8-.1Z"/></g></g></g></svg>