<svg xmlns="http://www.w3.org/2000/svg" viewBox="0 0 509.924 351.909">
  <defs>
    <clipPath id="a">
      <path d="M-2.9 13L25.8 1.6l11.8 29.6L8.9 42.7z"/>
    </clipPath>
    <clipPath id="b">
      <path d="M0 0h26.3v27.1H0z" transform="rotate(-21.629 28.13516542 13.44292343)"/>
    </clipPath>
    <clipPath id="d">
      <path d="M-2.9 11.3l24.4-9.7 10 25.2-24.4 9.6z"/>
    </clipPath>
    <clipPath id="e">
      <path d="M-2.9 9.7l20.5-8.1L26 22.7 5.5 30.8z"/>
    </clipPath>
    <style>
      .b{fill:#141313}.g{fill:#2e813a}.h{fill:#fff}.i{fill:#5db34c}.j{fill:#fbfdff}.k{fill:#4fa553}.l{fill:#e3b31b}.n{fill:#020304}.o{fill:#54ad41}.p{fill:#8fc475}.w{clip-path:url(#b)}.x{fill:#ffd84b}.y{fill:#f2be19}.z{fill:#daa927}.aa{fill:#e2b219}
    </style>
  </defs>
  <path fill="#c9e2be" d="M443.591 332.575c62.8-35.9 64.6-151.9-6.6-196.3-73-45.4-102.2-157.6-229.6-73-35.2 18.4-72-2.7-113.6 71.2-11.4 27-41.8 37.3-60.5 67.6-17.8 39.7-27.8 128.1 78.6 126.6 44.9-.7 39.7 6.9 79 10.1 43.9 3.5 112.6 9.4 134 11.5 50.7 4.8 88.3-4.7 118.7-17.7z"/>
  <path d="M297.593 90.251a.472.472 0 01-.5-.5v-38.7a.536.536 0 01.5-.5.472.472 0 01.5.5v38.7c.1.2-.2.4-.5.5zM222.395 81.061h-6v-13.7h6a.458.458 0 00.5-.4c0-.3-.3-.5-.5-.4h-6v-9.5a.632.632 0 00-.8-.4c-.2.1-.4.2-.4.4v9.4h-31.2v-9.4c0-.3-.3-.5-.5-.4a.675.675 0 00-.6.4v9.4h-5.6c-.2 0-.5.1-.5.4s.1.5.4.5h5.8v13.7h-5.7c-.2-.1-.4 0-.5.3v.1c-.1.2 0 .4.3.5h6v7.3c0 .3.3.5.5.4a.675.675 0 00.6-.4v-7.3h31.1v7.3a.632.632 0 00.8.4.43.43 0 00.4-.4v-7.3h6a.382.382 0 00.5-.3c0-.2-.1-.5-.3-.5h-.3zm-38.4 0v-13.7h31.2v13.7h-31.2z" class="b"/>
  <path fill="#8ebf80" d="M147.499 89.366l-.7 250.4s133.7 7.8 189.5 10.7c.3-32.1.1-261 .1-261zm62.9 45.8h-26.1v-27.6h26.2zm80.2 56h-26.2v-27.6h26.2zm0 67.7h-26.2v-27.6h26.2zm0-124.2h-26.2v-27.5h26.2z"/>
  <path fill="#98c989" d="M248.891 63.675h-2.3a.472.472 0 01-.5-.5V37.275a.472.472 0 00-.5-.5h-.1a.472.472 0 01-.5-.5v-10.3l.3-.9-149.7-25a.446.446 0 00-.5 0l-62.4 22.6.6.8a3.381 3.381 0 00-3.7 3.1v18a4.091 4.091 0 004.3 3.7h30.3a4.091 4.091 0 004.3-3.7v-6.4a.472.472 0 01.5-.5h19.6a.472.472 0 01.5.5V336.375a.472.472 0 00.5.5h23.4a.56.56 0 00.6-.5v-298.2a.536.536 0 01.5-.5h100.4c.1 0 .3.1.4.1l27.1 25a.483.483 0 010 .7c-.1.1-.3.2-.4.1h-3.9a4.091 4.091 0 00-4.3 3.7v2.2a4.091 4.091 0 004.3 3.7h10.7a4.091 4.091 0 004.3-3.7v-2.2a3.5 3.5 0 00-3.5-3.6h-.3zm-153-61.6l141.5 23.2a.419.419 0 01.3.6v.1a.55.55 0 01-.5.3h-168.4a.55.55 0 01-.5-.3 3.578 3.578 0 00-3.6-2.3h-27.5a.634.634 0 01-.6-.5.764.764 0 01.2-.5l58.7-20.6zm136.9 35.9l10.6.9a.472.472 0 01.5.5v21.5a.5.5 0 01-.6.5c-.1 0-.2-.1-.3-.2l-23.8-22.2a.483.483 0 010-.7c.1-.1.3-.2.4-.1z"/>
  <g clip-path="url(#a)" transform="translate(376.779 296.874)">
    <path fill="#ffd94c" d="M-256.18-165.707c-7.2 2.9-15.4-1.4-18.7-9.5s0-16.8 7.1-19.5 15.3 1.5 18.6 9.5 0 16.7-7 19.5"/>
  </g>
  <path d="M363.325 50.222a131.654 131.654 0 01-12.6-11.1 118.7 118.7 0 01-28.4 20.3c3.3 4.7 6.9 9.3 10.7 13.7a129.959 129.959 0 0030.3-22.9z" class="g"/>
  <path d="M358.525 48.322a56.963 56.963 0 01-5.2-4.6 3.953 3.953 0 01-5.6.1l-.1-.1a117.486 117.486 0 01-19.5 14 3.475 3.475 0 01-.7 4.8l-.1.1a1.234 1.234 0 01-.8.4c1.4 1.9 2.9 3.8 4.5 5.6a5.753 5.753 0 016.7.8 140.517 140.517 0 0020.6-15.5 3.748 3.748 0 01-.3-5.2 1 1 0 01.5-.4z" class="h"/>
  <path d="M346.925 60.122a4.534 4.534 0 001.3-6.3c-.2-.2-.3-.4-.5-.6a5.933 5.933 0 00-7.8-.4 4.9 4.9 0 00-1.5 6.5 2.181 2.181 0 00.4.5 6.105 6.105 0 008.1.3z" class="i"/>
  <path d="M476.691 126.975a152.129 152.129 0 00-18 7 135.378 135.378 0 00-22.5-33.1 199.313 199.313 0 0117-10.5 148.415 148.415 0 0123.5 36.6z" class="g"/>
  <path d="M470.491 127.275c-2.5 1-5.1 1.9-7.4 3a4.65 4.65 0 00-6.1-2.2 134.743 134.743 0 00-15.3-22.7 3.938 3.938 0 001.2-5.5v-.1a1.47 1.47 0 00-.5-.6c2.4-1.5 4.7-2.9 7.2-4.3a6.188 6.188 0 007.4 1.7 147.98 147.98 0 0115.9 24.9 4.078 4.078 0 00-2.5 5.3v.1c0 .1.1.2.1.4z" class="h"/>
  <path d="M462.991 109.775a5.25 5.25 0 01-1.1 7.3h-.1a3.128 3.128 0 01-1 .5 7.1 7.1 0 01-8.6-2.6 5.383 5.383 0 011-7.5h.1c.2-.1.3-.2.5-.3a7.383 7.383 0 019.2 2.6zM39.391 145.175a155.256 155.256 0 001.5-19.3 135.486 135.486 0 0039.5-5.9 167.659 167.659 0 012 19.9 152.261 152.261 0 01-43 5.3z" class="i"/>
  <path d="M41.891 139.475c.2-2.7.4-5.4.5-8a4.721 4.721 0 004.6-4.6 129.428 129.428 0 0027.1-4 4.19 4.19 0 004.5 3.6 2.92 2.92 0 00.9-.2c.3 2.7.6 5.5.8 8.3a6.4 6.4 0 00-4.8 5.9 151.465 151.465 0 01-29.3 3.6 4.154 4.154 0 00-3.8-4.5h-.5z" class="h"/>
  <path d="M60.791 140.175a5.3 5.3 0 01-6.1-4.2 4.1 4.1 0 01-.1-1.1 7.044 7.044 0 016-6.6 5.5 5.5 0 016.4 4.2c0 .2.1.4.1.6a7.066 7.066 0 01-6.3 7.1z" class="i"/>
  <path d="M262.059 134.17l-55.2 10.6 9.3 10.6-48.1 39.2a5.844 5.844 0 01-8.2-.7l-31.5-37-123.6 84.8 14.4 22.6 104.5-71.7 31.7 37.3a7.792 7.792 0 0010.7 1l67.9-55.4 10 11.5z" class="g"/>
  <path d="M186.283 195.777s57.6-.3 76.8 0c13.3.2 11.8 13.3 11.1 119.8l-82.3-.3v-94.5s.4-19-5.6-25z" class="j"/>
  <path d="M203.917 215.624h58a1.155 1.155 0 001.3-1.1 1.155 1.155 0 00-1.1-1.3h-58.2a1.164 1.164 0 00-1.3 1.1 1.221 1.221 0 001 1.3zM204.383 226.593h40.5a.882.882 0 01.9.8.882.882 0 01-.8.9h-40.6a.882.882 0 01-.9-.8 1.055 1.055 0 01.9-.9zM262.325 225.746h-3.4a.882.882 0 00-.9.8.882.882 0 00.8.9h3.5a.882.882 0 00.9-.8 1.055 1.055 0 00-.9-.9zM204.383 233.09h40.5a.882.882 0 01.9.8.882.882 0 01-.8.9h-40.6a.882.882 0 01-.9-.8 1.182 1.182 0 01.9-.9zM262.302 232.321h-3.5a.9.9 0 00-1 .8.9.9 0 00.8 1h3.7a.824.824 0 001-.7v-.1a.824.824 0 00-.7-1h-.3zM204.383 238.283h40.5a.882.882 0 01.9.8c0 .5-.4.8-.9.9h-40.5a.882.882 0 01-.9-.8 1.055 1.055 0 01.9-.9zM262.325 237.451h-3.4a.882.882 0 00-.9.8.882.882 0 00.8.9h3.5a.882.882 0 00.9-.8 1.182 1.182 0 00-.9-.9zM204.383 244.208h40.5a.882.882 0 01.9.8c0 .5-.4.8-.9.9h-40.5a.882.882 0 01-.9-.8 1.055 1.055 0 01.9-.9zM262.325 243.376h-3.4a.882.882 0 00-.9.8.882.882 0 00.8.9h3.5a.882.882 0 00.9-.8 1.055 1.055 0 00-.9-.9zM204.383 250.205h40.5a.882.882 0 01.9.8.86.86 0 01-.8.8h-40.6a.948.948 0 01-.9-.8 1.063 1.063 0 01.9-.8zM262.325 249.373h-3.4a.882.882 0 00-.9.8.882.882 0 00.8.9h3.5a.882.882 0 00.9-.8 1.055 1.055 0 00-.9-.9zM204.383 256.201h40.5a.882.882 0 01.9.8.882.882 0 01-.8.9h-40.6a.882.882 0 01-.9-.8 1.055 1.055 0 01.9-.9zM262.325 255.369h-3.4a.882.882 0 00-.9.8.882.882 0 00.8.9h3.5a.882.882 0 00.9-.8 1.055 1.055 0 00-.9-.9zM261.917 217.083h-58a1.164 1.164 0 00-1.3 1.1 1.221 1.221 0 001 1.3h58.2a1.164 1.164 0 001.3-1.1 1.223 1.223 0 00-1.2-1.3zM236.183 278.477a1.777 1.777 0 01-1-.4l-2.9-3.4a1.116 1.116 0 01.1-1.6 1.238 1.238 0 011.7.1l2.2 2.7 11.3-7a1.15108644 1.15108644 0 011.3 1.9l-12.2 7.5a.551.551 0 01-.5.2z" class="k"/>
  <path d="M236.683 285.777a10.25 10.25 0 11.1 0zm0-18.1a7.95 7.95 0 108 7.9 7.938 7.938 0 00-8-7.9z" class="k"/>
  <ellipse cx="67.9" cy="67.1" class="l" rx="67.9" ry="67.1" transform="translate(85.112 212.999)"/>
  <ellipse cx="67.9" cy="67.1" fill="#ffd94b" rx="67.9" ry="67.1" transform="translate(79.186 212.999)"/>
  <path d="M142.353 289.137h-4.7v-15.5h4.6zM159.884 289.137h-3.6l-6.5-7.3v7.3h-4.7v-15.5h3.7l6.6 7.4v-7.4h4.6z" class="l"/>
  <path d="M169.315 291.263a22.924 22.924 0 01-30.5 10.4 22.271 22.271 0 01-12.9-20.3 22.963 22.963 0 0143.4-9.9l12.4-2.9a35.471 35.471 0 00-45.8-19.6 34.818 34.818 0 00-20.3 44.8v.1c0 .1.1.2.1.4a35.4 35.4 0 0045.9 19.8 34.541 34.541 0 0020-19.8z" class="l"/>
  <path d="M148.745 233.606a47.353 47.353 0 11-47.9 47.4 47.736 47.736 0 0147.9-47.4m0-12.3c-33.4 0-60.4 26.7-60.4 59.7s27 59.7 60.4 59.7 60.4-26.7 60.4-59.7-27-59.7-60.4-59.7z" class="l"/>
  <path d="M53.164 337.012c-.2.2-.5 0-.5.3-.3 1.9-1.4 9.8.6 9.8.5.1 12.5.1 17.2 0 1 0 1.8-1.1 1.4-1.8a1.8 1.8 0 00-1.7-1.2c-3.5-.6-9.7-1-10.7-5.4-.8-3.7-4.9-2.6-6.3-1.7z" class="k"/>
  <path d="M64.916 294.687c-.5 7.2-5.5 44-5.5 44a4.892 4.892 0 01-6.9-.3l-.1-.2s.3-35 0-43.4c-.5-13.7-9.4-36.2-11.9-47.5 2.7-13.7 22.2 2 22.2 2s3.1 31.7 2.2 45.4z" class="n"/>
  <path d="M93.267 233.307s3.9-5.7 5.6-5.7 5.8-1.7 6.3-.8-2.6 3-3.9 4.1-1.5 3.3-3.7 3.4a12.3 12.3 0 01-4.3-1z" class="h"/>
  <path d="M65.228 185.741s8.7 26 12.7 30.9 18.1 12.4 18.2 13c.3 1.5-1.2 3.8-2.5 3.8-3.3-.6-13.8-3.6-18.2-7.9-4.6-4.4-12-30.4-12-30.4z" class="o"/>
  <path d="M105.785 219.311s5-.1 7.8-1.8 8.2-1.6 9.4-.8 1 1.4-.4 2.2-6.1 4.5-9.8 4.1a33.286 33.286 0 00-8.4.8z" class="h"/>
  <path d="M6.936 330.323c-6.5 4.5-1.9 8 1.2 12.3 1.9 2.7 1.8 3.9 4 4.2 1.5.2 8.4.6 7.6-.8-8.1-8-4.2-12.5-6.5-16-1.5-.1 0-4.6-6.3.3z" class="k"/>
  <path d="M62.852 232.439s-19.7 51.1-32.1 72.9-16.7 27-16.7 27-5.7-1.2-6.4-3c0 0 12.4-29.5 18.4-48.9 4.4-14.1 2.8-30.3 4.1-39.5a19.179 19.179 0 014.1-9.6z" class="n"/>
  <path d="M69.852 179.832c.6 2 2.3 3 2.9 5.1-7.8-.5-15.4-8.6-15.4-8.6a66.791 66.791 0 008.6-10.5 3.128 3.128 0 00.5-1 14.622 14.622 0 001.6-3.6l2.3 4 3.8 6.6a51.224 51.224 0 01-2.7 5.2 25.432 25.432 0 01-1.6 2.8z" class="j"/>
  <path d="M77.399 199.565c-6.2 12.5-9.5 38.9-14.8 51.3-6.1 2.5-31.4-11-31.8-12.7 0-2.9 5.9-15.7 12.6-35.3s14.6-29.1 19-32.3c12.4 10.8 12 13.2 15 29z" class="o"/>
  <path d="M74.128 209.65c-.5 2.4-1.2 5-1.8 7.4-1.1 4.1-2.3 8.2-3.4 12.1v.1c-.1.4-.2.9-.3 1.2-1 3.4-1.6 6.9-2.5 9.6-11.5-22-5.2-52.2-5.2-52.2z" class="o"/>
  <path d="M57.761 186.232s11.1 39.1 20.7 40.2c4.7.5 24.7-1.9 30.4-3.1 0 0 .4-.6-.3-4.1 0 0-23.5-1-27.4-4.2-5-7.9-2.5-27-9.3-31.1s-12-7.1-14.1 2.3z" class="p"/>
  <g>
    <path fill="#c9c5c4" d="M74.185 172.242a32.087 32.087 0 01-2.4 4.5c-2.6-2.9-5.7-8.1-5.8-10.5v-1h.5l3.9.4z"/>
  </g>
  <g>
    <path d="M76.361 173.39s-12.1-2.5-10.3-9.9 1.3-12.7 9-11.4 8.6 4.4 8.6 7.1-4.1 14.7-7.3 14.2z" class="j"/>
  </g>
  <path fill="#221f20" d="M83.836 158.853c9.1-1.5-3.3-17.6-14.8-6.5-6.1 6-1.7 18.1 1 5.7 2.2-4.9 7.6-1.5 13.8.8z"/>
  <path d="M335.091 328.775c1-24.1 20.3-96.6-21.5-80.7-5.1 26.6.6 80.9 2.9 103.1 23.3.4 13.9-.8 18.2-.5.4-2-.3-10.2.4-21.9zM404.991 152.475c.2-8.4.4-17.7 0-28.2l-37.3 6.6s0 10.2.1 21.5-1 10.6 13.1 12.1 24.6-3.8 24.1-12z" class="h"/>
  <g opacity=".46">
    <path fill="#eae5e5" d="M367.565 132.881s8.6 16.2 18.4 16.2 19.1-15.2 19.1-15.2z"/>
  </g>
  <path d="M408.791 115.775s24.4-35.2-22.4-37.5c0 0-17.6 1.9-21.5-1.7 0 0-13.6 19-.9 39.3s44.8-.1 44.8-.1z" class="n"/>
  <path d="M368.691 134.175c3.6 2.6 13.9 5.1 16.9 5.4 0 0 15.4-3.1 18.2-4.7 4.3-2.4 4.1-7.3 4.3-14.1.2-8.1 1.2-14.3.1-19-1.2-5.5-5-8.7-15.7-9.6-19.6-1.6-27.8 2.9-28.2 9.1-.1 1.6-.2 3.2-.2 4.6-.6 18.8 1 25.5 4.6 28.3z" class="h"/>
  <g>
    <path d="M417.923 96.121l-62.6.6s-1-17.3 9.9-28.4a10.7 10.7 0 011.6-1.4 28.794 28.794 0 018.6-5.1c12.4-4.8 22.8-.4 29.3 4.1.6.4 1.3.9 1.8 1.3a38.534 38.534 0 015.5 5.2c.1.1 6.1 7.6 5.9 23.7z" class="o"/>
    <path fill="#328c3e" d="M400.284 96.197c-.2-2.2-1.3-22.1 6.4-28.8a4.44 4.44 0 00-1.1-.8c-8.1 7.8-8.7 27.4-8.7 29.8l-20 .2c-.6-14-9.1-28-10.1-29.6-.4.4-.8.7-1.2 1.1a77.249 77.249 0 017.5 28.7h-17.8s16.7 4 29.2 3.8 33.4-4.4 33.4-4.4z"/>
  </g>
  <path fill="#cce3c0" d="M337.091 181.975a76.421 76.421 0 0026.4 21.1c1.4.6 2.9 1.3 4.3 1.9.8.3 1.1.4 1.1.4l1.4.5a80.466 80.466 0 009.5 3 87.643 87.643 0 0020.3 3.8c12.9.5 24.6-1.5 37-4.3-8-29.2-18.4-46.5-24-54.2a39.235 39.235 0 00-7.2-6.9c-1.6 7.6-12 15-24.6 14.2-10.6-.6-14.3-10.5-14.3-14.5l-3.1 2.3c-.5 0-17.2 13.5-28.7 30.7a17.5 17.5 0 001.9 2z"/>
  <path d="M436.691 220.575c-.6-8.6-.6-5.7-2-13a145.668 145.668 0 00-14.2-40.5l-1.3-15.8s-9.6-4.1-13.9-4.8c-.2 8.6-20.4 41.6-27.6 41.9-9-.5-10.1-42.6-10.1-42.6l-1.6.5h-.1s-33.3 12.9-41.9 31.2c-9.9 21.2-12.5 82.2-12.4 89.3a24.883 24.883 0 0121.9 6.5c-.8 45.9-4.5 73.2-4.8 78.6 52.6.5 77.9-4.4 113.5-18.6-.4-5.9-3.5-87.9-5.5-112.7z" class="b"/>
  <g>
    <path d="M407.553 202.228l-63.4 37.7 50.2 89.5 63.3-37.7z" class="p"/>
  </g>
  <path d="M449.491 275.975l.1-.2v-1.2c.1 3.1-.4-.6-.6-1.4l-.1-.3a10 10 0 00-.8-1.4 27.506 27.506 0 00-1.9-2.8 27.867 27.867 0 01-2-2.2c-.3-.3-2.7-2-2.2-1.8-.7-.4-1.5-.8-2.3-1.2a10.858 10.858 0 01-6.1-8.9c-1.6.3-3.2.5-5 .8-20 3-47 4.3-49.8 4.5-.2-.2-9.8-9.4-13.6-9.4s-14.7 4.1-15.7 7.2c-1.1 3.1-1.5 8.8 1.6 10a127.594 127.594 0 0019.4 4.7h1.6a328.329 328.329 0 0060.5 12.5c5.4.5 10.2 1 14.5 1.2a12.989 12.989 0 012.4-10.1z" class="j"/>
  <path d="M469.891 285.275c-5.7 1.9-15.2 1.9-37.4-.4 1.2-6.2 2.4-18.3-3.9-29.5a129.356 129.356 0 0013.8-2.7c7.7-2-11.7-38.1-39.2-78.8 6.2-6.9 2-28.3 2-28.3s34.6 7.6 45.7 26c13.1 21.2 41.6 105.9 19 113.7z" class="b"/>
  <g>
    <path d="M306.973 269.257a154.166 154.166 0 00-16.7 8.5 135.06 135.06 0 00-24.6-30.2 146.1 146.1 0 0115.4-11.8 145.15 145.15 0 0125.9 33.5z" class="g"/>
    <path d="M301.073 270.057c-2.4 1.2-4.6 2.4-6.9 3.6a4.4 4.4 0 00-6-1.6l-.1.1a130.232 130.232 0 00-16.9-20.8 4.075 4.075 0 00.7-5.6c-.2-.2-.3-.4-.5-.5a77.862 77.862 0 016.5-4.8 6.216 6.216 0 007.3 1.1 138.5 138.5 0 0117.7 22.7 4.123 4.123 0 00-1.8 5.5c-.1 0-.1.2 0 .3z" class="h"/>
    <path d="M292.273 253.857a5.269 5.269 0 01-.4 7.2 2.177 2.177 0 01-.8.5 6.637 6.637 0 01-8.5-1.7 5.345 5.345 0 01.3-7.5c.1-.1.3-.2.4-.4a7.1 7.1 0 019 1.9z" class="i"/>
  </g>
  <path d="M462.991 305.675a143.639 143.639 0 009.7-15.9 128.714 128.714 0 0036.7 12.6 170.25 170.25 0 01-6.8 18 147.624 147.624 0 01-39.6-14.7z" class="g"/>
  <path d="M467.491 301.875c1.4-2.2 2.7-4.4 4-6.7a4.448 4.448 0 006-1.9 132.884 132.884 0 0025.1 8.6 4.009 4.009 0 002.4 5.1c.2.1.5.1.8.2-.9 2.5-1.8 5-2.9 7.5a6.245 6.245 0 00-6.8 3 159.545 159.545 0 01-26.8-9.9 4.006 4.006 0 00-1.4-5.6c0-.1-.1-.2-.4-.3z" class="h"/>
  <path d="M483.591 310.975a5.143 5.143 0 01-3.4-6.4 4.18 4.18 0 01.4-1 6.736 6.736 0 018.1-3 5.382 5.382 0 013.7 6.5c-.1.2-.1.4-.2.6a7.108 7.108 0 01-8.6 3.3z" class="i"/>
  <g>
    <path d="M218.253 321.775a182.171 182.171 0 009.7-15.9 129.556 129.556 0 0036.7 12.5 171.874 171.874 0 01-6.8 18.1 147.623 147.623 0 01-39.6-14.7z" class="g"/>
    <path d="M222.753 317.975c1.4-2.2 2.7-4.4 4-6.7a4.448 4.448 0 006-1.9 119.017 119.017 0 0025.2 8.6 4.009 4.009 0 002.4 5.1c.2.1.5.1.8.2-.9 2.5-1.8 5-2.9 7.4a6.245 6.245 0 00-6.8 3 149.762 149.762 0 01-26.9-10 4.006 4.006 0 00-1.4-5.6c-.2 0-.3 0-.4-.1z" class="h"/>
    <path d="M238.753 326.975a5.143 5.143 0 01-3.4-6.4 4.179 4.179 0 01.4-1 6.67 6.67 0 018.1-3.1 5.382 5.382 0 013.7 6.5c-.1.2-.1.4-.2.6a6.828 6.828 0 01-8.6 3.4z" class="i"/>
  </g>
  <g>
    <g class="w">
      <path d="M317.288 167.215c-6 2.4-13.1-1.2-15.8-8.1-2.7-6.8 0-14.2 6-16.6s13.2 1.2 15.9 8.1c2.7 6.8 0 14.3-6.1 16.6" class="x"/>
    </g>
    <path d="M301.602 159.295c-2.5-6.3-.4-13.2 4.7-16.1-.4.1-.9.3-1.4.4-6 2.4-8.7 9.8-6 16.6s9.8 10.4 15.8 8.1l1.3-.6c-5.7 1.4-11.9-2.2-14.4-8.4" class="y"/>
    <path d="M301.754 159.679l-2.7 1.1a3.552 3.552 0 00.4.9l2.7-1.1c-.1-.3-.3-.6-.4-.9M301 157.416l-2.7 1.1.3 1 2.7-1.1-.3-1M302.939 161.724l-2.7 1.1a3.508 3.508 0 00.5.8l2.7-1.1a2.177 2.177 0 01-.5-.8M304.341 163.666l-2.7 1.1a2.336 2.336 0 00.7.7l2.7-1.1-.7-.7M300.568 155.045l-2.7 1.1c0 .3.1.6.1 1l2.7-1.1c0-.3-.1-.7-.1-1M300.56 152.461l-2.7 1.1c0 .3-.1.6-.1 1l2.7-1.1c0-.3.1-.7.1-1M301.3 149.12l-2.7 1.1a2.663 2.663 0 00-.3 1.2l2.7-1.1.3-1.2M303.194 145.887l-2.7 1.1a16.965 16.965 0 00-1 1.4l2.8-1.1a4.2 4.2 0 01.9-1.4M306.818 165.819l-2.7 1.1 1 .6 2.7-1.1-1-.6M306.918 168.32a4.191 4.191 0 001.5.4l2.7-1.1a3.707 3.707 0 01-1.5-.4z" class="z"/>
    <path d="M314.074 153.106l.8 2.7-.5.2-1.4-1 .3 1.3-.6.2-.8-2.7.5-.2 1.4 1-.4-1.3z" class="aa"/>
    <path d="M310.973 148.878a5.323 5.323 0 016.1 2.3l-1.7 1.1a3.275 3.275 0 00-3.8-1.2 3.97 3.97 0 00-2.4 5.1 3.758 3.758 0 004.5 2.8h.2a3.946 3.946 0 002.5-3.2l2-.1a5.55 5.55 0 01-5.6 5.7 5.68 5.68 0 01-5.6-4.6 6.615 6.615 0 013.8-7.9z" class="aa"/>
    <path d="M311.389 153.968l.8 2.7-.8.2-.8-2.7z" class="aa"/>
    <path d="M309.771 144.642c5.2-1.8 10.7 1.6 12.3 7.3s-1.2 11.7-6.2 13.4c-5.2 1.7-10.7-1.6-12.3-7.3-1.8-5.8 1-11.7 6.2-13.4zm5.3 18.5c4.1-1.3 6.2-6 5-10.7-1.3-4.5-5.7-7.1-9.7-5.8-4.1 1.3-6.2 6.1-5 10.7s5.7 7.2 9.7 5.8" class="aa"/>
  </g>
  <g>
    <g class="w">
      <path d="M451.948 43.32c-6 2.4-13.1-1.2-15.8-8.1-2.7-6.8 0-14.2 6-16.6s13.1 1.2 15.8 8.1c2.6 6.8-.1 14.3-6 16.6" class="x"/>
    </g>
    <path d="M436.054 35.399c-2.5-6.3-.4-13.2 4.7-16.1-.4.1-.9.3-1.4.4-6 2.4-8.7 9.8-6 16.6s9.8 10.4 15.8 8.1l1.3-.6c-5.7 1.4-11.9-2.2-14.4-8.4" class="y"/>
    <path d="M436.206 35.784l-2.7 1.1a3.552 3.552 0 00.4.9l2.7-1.1c-.1-.3-.3-.6-.4-.9M435.453 33.521l-2.7 1.1.3 1 2.7-1.1-.3-1M437.392 37.831l-2.7 1.1a1.794 1.794 0 00.5.7l2.7-1.1a.752.752 0 01-.5-.7M438.901 39.878l-2.7 1.1a2.336 2.336 0 00.7.7l2.7-1.1-.7-.7M435.023 31.15l-2.7 1.1c0 .3.1.6.1 1l2.7-1.1c0-.3-.1-.7-.1-1M435.015 28.565l-2.7 1.1c0 .3-.1.6-.1 1l2.7-1.1c0-.3.1-.7.1-1M435.861 25.225l-2.7 1.1a2.663 2.663 0 00-.3 1.2l2.7-1.1a2.663 2.663 0 01.3-1.2M437.646 21.994l-2.7 1.1a16.965 16.965 0 00-1 1.4l2.8-1.1a4.2 4.2 0 01.9-1.4M441.27 41.923l-2.7 1.1 1 .6 2.7-1.1-1-.6M441.371 44.425a4.191 4.191 0 001.5.4l2.7-1.1a3.707 3.707 0 01-1.5-.4z" class="z"/>
    <path d="M448.526 29.211l.8 2.7-.5.2-1.4-1 .4 1.3-.8.2-.8-2.7.5-.2 1.4 1-.4-1.3z" class="aa"/>
    <path d="M445.472 25.091a5.323 5.323 0 016.1 2.3l-1.7 1.1a3.32 3.32 0 00-3.8-1.2 3.97 3.97 0 00-2.4 5.1 3.758 3.758 0 004.5 2.8h.2a3.946 3.946 0 002.5-3.2l2-.1a5.55 5.55 0 01-5.6 5.7 5.68 5.68 0 01-5.6-4.6c-.9-3.4.8-6.9 3.8-7.9z" class="aa"/>
    <path d="M445.843 30.073l.8 2.7-.8.3-.8-2.8z" class="aa"/>
    <path d="M444.224 20.747c5.2-1.8 10.7 1.6 12.3 7.3s-1.2 11.7-6.2 13.4c-5.2 1.7-10.7-1.6-12.3-7.3-1.8-5.8 1.1-11.7 6.2-13.4zm5.3 18.6c4.1-1.3 6.2-6 5-10.7a7.729 7.729 0 00-9.7-5.8c-4.1 1.3-6.2 6.1-5 10.7a7.761 7.761 0 009.7 5.8" class="aa"/>
  </g>
  <g>
    <g clip-path="url(#d)" transform="translate(478.424 260.858)">
      <path d="M20.396 30.576c-6 2.4-13.1-1.2-15.8-8.1-2.7-6.8 0-14.2 6-16.6s13.2 1.2 15.9 8.1c2.7 6.8 0 14.3-6.1 16.6" class="x"/>
    </g>
    <path d="M483.028 283.514c-2.5-6.3-.4-13.2 4.7-16.1-.4.1-.9.3-1.4.4-6 2.4-8.7 9.8-6 16.6s9.8 10.4 15.8 8.1l1.3-.6c-5.6 1.4-11.8-2.2-14.4-8.4" class="y"/>
    <path d="M483.288 283.897l-2.7 1.1a3.552 3.552 0 00.4.9l2.7-1.1c-.1-.3-.3-.6-.4-.9M482.534 281.634l-2.7 1.1.3 1 2.7-1.1-.3-1M484.365 285.944l-2.7 1.1a1.794 1.794 0 00.5.7l2.7-1.1a6.818 6.818 0 01-.5-.7M485.873 287.883l-2.7 1.1a2.336 2.336 0 00.7.7l2.7-1.1-.7-.7M482.102 279.265l-2.7 1.1c0 .3.1.6.1 1l2.7-1.1c0-.3-.1-.7-.1-1M482.094 276.678l-2.7 1.1c0 .3-.1.6-.1 1l2.7-1.1c0-.3.1-.7.1-1M482.834 273.34l-2.7 1.1a2.663 2.663 0 00-.3 1.2l2.7-1.1c.1-.4.2-.9.3-1.2M484.618 269.999l-2.7 1.1a16.965 16.965 0 00-1 1.4l2.8-1.1c.3-.4.6-.9.9-1.4M488.352 289.93l-2.7 1.1 1 .6 2.7-1.1a2.075 2.075 0 01-1-.6M488.452 292.54a4.191 4.191 0 001.5.4l2.7-1.1a3.707 3.707 0 01-1.5-.4z" class="z"/>
    <path d="M495.601 277.326l.8 2.7-.5.1-1.4-.9.3 1.2-.6.3-.9-2.7.6-.2 1.3 1-.3-1.3z" class="aa"/>
    <path d="M492.545 273.097a5.323 5.323 0 016.1 2.3l-1.7 1.1a3.32 3.32 0 00-3.8-1.2 3.97 3.97 0 00-2.4 5.1 3.758 3.758 0 004.5 2.8h.2a3.946 3.946 0 002.5-3.2l2-.1a5.677 5.677 0 01-5.6 5.7 5.691 5.691 0 01-5.6-4.5c-.9-3.4.7-7 3.8-8z" class="aa"/>
    <path d="M492.923 278.188l.8 2.7-.8.2-.8-2.7z" class="aa"/>
    <path d="M491.247 268.86c5.2-1.7 10.7 1.6 12.3 7.3s-1.2 11.7-6.2 13.4c-5.2 1.7-10.7-1.6-12.3-7.3s1.1-11.7 6.2-13.4zm5.4 18.5c4.1-1.3 6.2-6 5-10.7-1.3-4.5-5.7-7.1-9.7-5.8-4.1 1.3-6.2 6.1-5 10.7a7.761 7.761 0 009.7 5.8" class="aa"/>
  </g>
  <g>
    <g clip-path="url(#e)" transform="translate(2.9 195.441)">
      <path d="M16.679 25.864c-5.1 2-11-1-13.3-6.7s0-12 5.1-13.9 11 1 13.3 6.7c2.2 5.7 0 12-5.1 13.9" class="x"/>
    </g>
    <path d="M6.316 214.634c-2-5.3-.3-11 4-13.5l-1.2.3c-5.1 2-7.3 8.2-5.1 13.9s8.2 8.7 13.3 6.7a5.359 5.359 0 001.1-.5c-4.7 1.3-9.9-1.6-12.1-6.9" class="y"/>
    <path d="M6.51 214.924l-2.3.9a2.506 2.506 0 01.4.7l2.3-.9c-.2-.1-.3-.5-.4-.7M5.862 213.093l-2.3.9c.2.2.2.5.3.7l2.3-.9a.908.908 0 01-.3-.7M7.371 216.756l-2.3.9c.1.2.3.4.4.6l2.3-.9c0-.2-.2-.4-.4-.6M8.665 218.373l-2.3.9.6.6 2.4-.8-.7-.7M5.54 211.046l-2.3.9c0 .3.1.5.1.9l2.3-.9a2.769 2.769 0 01-.1-.9M5.532 208.891l-2.3 1a2.769 2.769 0 01-.1.9l2.3-.9a3.4 3.4 0 01.1-1M6.262 206.09l-2.3.9-.3 1 2.3-.9a1.689 1.689 0 01.3-1M7.74 203.397l-2.3.9a8.342 8.342 0 00-.8 1.2l2.3-.9a8.342 8.342 0 01.8-1.2M10.712 220.096l-2.3.9a7.255 7.255 0 01.9.5l2.3-.9c-.3-.2-.6-.3-.9-.5M10.881 222.29c.4.1.9.2 1.2.3l2.3-.9c-.5-.1-.9-.2-1.3-.3z" class="z"/>
    <path d="M16.875 209.431l.6 2.3-.5.2-1.1-.9.3 1.1-.6.2-.6-2.3.4-.1 1.2.8-.3-1.1z" class="aa"/>
    <path d="M14.302 206.005a4.975 4.975 0 015.2 1.8l-1.5 1a3.033 3.033 0 00-3.1-1 3.307 3.307 0 00-2 4.2 3.088 3.088 0 003.7 2.4h.1a3.18 3.18 0 002-2.7l1.7-.1a4.969 4.969 0 01-3.3 4.6c-2.5.9-5.2-.8-6-3.6a5.384 5.384 0 013.2-6.6z" class="aa"/>
    <path d="M14.606 210.184l.6 2.3-.6.2-.6-2.3z" class="aa"/>
    <path d="M13.17 202.358c4.4-1.4 9 1.4 10.3 6.1 1.4 4.8-1 9.8-5.3 11.2s-8.9-1.4-10.2-6.1c-1.4-4.9.9-9.8 5.2-11.2zm4.6 15.5c3.4-1.1 5.3-5.1 4.2-8.9s-4.7-6-8.2-4.8a7 7 0 00-4.2 8.8c1.1 3.8 4.7 6.1 8.2 4.9" class="aa"/>
  </g>
</svg>
